<svg version="1.2" xmlns="http://www.w3.org/2000/svg" viewBox="0 0 881 321" width="881" height="321"><style>.a{fill:#fff}.b{fill:none;stroke:#000;stroke-miterlimit:10;stroke-width:1.5}</style><path fill-rule="evenodd" class="a" d="m0 0h881v321h-881z"/><path class="b" d="m62.6 247.2l35.7-53.4"/><path fill-rule="evenodd" class="b" d="m40.5 320.5c-22.1 0-40-17.9-40-40 0-22.1 17.9-40 40-40 22.1 0 40 17.9 40 40 0 22.1-17.9 40-40 40z"/><path  d="m42.5 274q-0.5-0.5-1.3-0.5-1.4 0-2.3 1.2-1 1.3-1 4l0.1 0.1 0.1-0.3q0.8-1.2 2.2-1.2 1 0 1.7 0.4 0.4 0.3 0.9 0.8 0.5 0.6 0.8 1.2 0.4 0.9 0.4 2.1v0.4q0 0.4-0.1 0.8-0.2 1.2-1.2 2.2-0.9 0.9-1.9 1.2-0.4 0-0.8 0-0.4 0-0.7 0-1.5-0.3-2.4-1.6-1.2-1.9-1.2-5.1 0-2.1 0.8-3.7 0.8-1.7 2.1-2.6 1.1-0.7 2.4-0.7 1.1 0 1.8 0.6 0.7 0.6 0.7 1.7 0 0.5-0.3 0.8-0.2 0.3-0.7 0.3-0.5 0-0.8-0.3-0.3-0.3-0.3-0.8 0-0.9 1-1zm-0.9 4.8q-0.6-0.7-1.5-0.7-0.7 0-1.2 0.4-0.9 1-0.9 3.2 0 1.8 0.2 2.4 0.2 0.6 0.7 1.1 0.5 0.4 1.1 0.4 1 0 1.6-0.8 0.3-0.4 0.4-1 0-0.6 0-1.7v-0.3-0.3q0-1.1 0-1.7-0.1-0.6-0.4-1z"/><path class="b" d="m178.4 247.2l-35.7-53.4"/><path fill-rule="evenodd" class="b" d="m200.5 320.5c-22.1 0-40-17.9-40-40 0-22.1 17.9-40 40-40 22.1 0 40 17.9 40 40 0 22.1-17.9 40-40 40z"/><path  d="m198.4 279.3q-0.9-0.6-1.5-1.3-0.5-0.7-0.5-1.9 0-0.8 0.3-1.4 0.5-0.9 1.3-1.5 0.9-0.5 2-0.5 1.3 0 2.3 0.7 1 0.7 1.3 1.8 0 0.1 0 0.5 0 0.4-0.1 0.6-0.3 1.3-1.8 2.3l-0.2 0.1q1.1 0.8 1.1 0.8 1.5 1.2 1.5 3 0 1.6-1.2 2.8-1.1 1.1-2.9 1.1-2.5 0-3.6-1.8-0.5-0.7-0.5-1.7 0-2.2 2.5-3.6zm4-3.6q0-0.8-0.5-1.4-0.6-0.6-1.4-0.8-0.1 0-0.7 0-1 0-1.7 0.7-0.5 0.5-0.5 1.1 0 0.9 0.7 1.4 0.1 0.1 1.3 0.8l1.1 0.8q0 0 0.3-0.2 0.2-0.1 0.3-0.3 1.1-0.8 1.1-2.1zm-5.3 7.2q0 1.1 0.9 1.9 0.9 0.8 2 0.8 0.8 0 1.5-0.4 0.7-0.3 1-0.8 0.3-0.6 0.3-1.1 0-0.9-0.7-1.6-0.1-0.1-1.6-1.1-0.3-0.2-0.6-0.4-0.4-0.2-0.5-0.3l-0.2-0.1-0.2 0.1q-1.3 0.8-1.7 2-0.2 0.5-0.2 1z"/><path class="b" d="m382.6 247.2l35.7-53.4"/><path fill-rule="evenodd" class="b" d="m360.5 320.5c-22.1 0-40-17.9-40-40 0-22.1 17.9-40 40-40 22.1 0 40 17.9 40 40 0 22.1-17.9 40-40 40z"/><path  d="m356.1 276.9v-0.1q0 0 0.3-2.1l0.4-2.2q0 0 0.4 0h0.4v0.1q0 0.2 0.3 0.3 0.3 0.1 1 0.2 0.8 0 3.4 0h2.4v0.8l-1.4 1.9q-0.3 0.4-0.6 0.9-0.4 0.5-0.6 0.8-0.2 0.3-0.3 0.3-1 1.6-1.2 4.4-0.1 0.8-0.1 2.2 0 0.3 0 0.6 0 0.3 0 0.4v0.2q-0.1 0.4-0.4 0.6-0.3 0.2-0.7 0.2-0.5 0-0.8-0.3-0.2-0.3-0.2-0.9 0-0.3 0-1.1 0.3-2.7 1.9-5.5 0.4-0.6 1.7-2.4l0.9-1.2h-1.9q-3.4 0-3.6 0.1-0.1 0-0.2 0.4-0.2 0.4-0.2 1-0.1 0.3-0.1 0.3v0.1z"/><path class="b" d="m498.4 247.2l-35.7-53.4"/><path fill-rule="evenodd" class="b" d="m520.5 320.5c-22.1 0-40-17.9-40-40 0-22.1 17.9-40 40-40 22.1 0 40 17.9 40 40 0 22.1-17.9 40-40 40z"/><path  d="m517.1 281.7q0.5 0 0.8 0.4 0.4 0.3 0.4 0.8 0 0.4-0.4 0.8-0.3 0.3-0.7 0.3h-0.2l0.1 0.1q0.3 0.6 0.9 1 0.6 0.5 1.5 0.5 1.4 0 2-1.2 0.4-0.8 0.4-2.6 0-2.1-0.5-2.8-0.6-0.6-1.3-0.6-1.6 0-2.4 1.3-0.1 0.2-0.1 0.2-0.1 0-0.3 0-0.4 0-0.4-0.1 0-0.1 0-3.5 0-0.6-0.1-1.4 0-0.8 0-1.1 0-1.1 0.2-1.1 0 0 0 0l0.4 0.1q1.3 0.5 2.7 0.5 1.4 0 2.7-0.5 0.1-0.1 0.2-0.1 0.2 0 0.2 0.3v0.3q-1.6 1.9-4.1 1.9-0.6 0-1.1-0.1h-0.2v3.4q1.1-0.9 2.3-0.9 0.4 0 0.8 0.1 1.4 0.3 2.2 1.5 0.9 1.2 0.9 2.8 0 1.8-1.3 3.1-1.3 1.3-3.1 1.3-1.3 0-2.2-0.7-0.3-0.2-0.6-0.6-0.6-0.7-0.8-1.8 0-0.1 0-0.2 0-0.1 0-0.2 0-0.5 0.3-0.9 0.3-0.3 0.8-0.3z"/><path class="b" d="m152.5 136.5l96-72"/><path fill-rule="evenodd" class="b" d="m120.5 200.5c-22.1 0-40-17.9-40-40 0-22.1 17.9-40 40-40 22.1 0 40 17.9 40 40 0 22.1-17.9 40-40 40z"/><path  d="m113.4 161.4q-0.3-0.1-0.3-0.4 0-0.3 0.3-0.4h6v-3-3q0.2-0.3 0.4-0.3 0.2 0 0.4 0.3v6h5.9q0.3 0.2 0.3 0.4 0 0.2-0.3 0.4h-5.9v6q-0.2 0.2-0.4 0.2-0.3 0-0.4-0.2v-6z"/><path class="b" d="m408.5 136.5l-96-72"/><path fill-rule="evenodd" class="b" d="m440.5 200.5c-22.1 0-40-17.9-40-40 0-22.1 17.9-40 40-40 22.1 0 40 17.9 40 40 0 22.1-17.9 40-40 40z"/><path  d="m442.5 162.4h-5.3v-1.4h5.3z"/><path class="b" d="m702.6 247.2l35.7-53.4"/><path fill-rule="evenodd" class="b" d="m680.5 320.5c-22.1 0-40-17.9-40-40 0-22.1 17.9-40 40-40 22.1 0 40 17.9 40 40 0 22.1-17.9 40-40 40z"/><path  d="m677.5 276.7q-0.5 0-0.8-0.3-0.3-0.3-0.3-0.9 0-1.1 0.9-1.9 0.9-0.8 2.1-0.9h0.3q0.7 0 0.8 0 0.7 0.1 1.4 0.4 1.3 0.7 1.6 1.9 0.1 0.2 0.1 0.6 0 1.1-0.7 2.1-0.8 0.9-1.9 1.3-0.1 0 0 0.1 0.1 0 0.2 0 1.3 0.4 2.1 1.3 0.8 0.9 0.8 2.1 0 0.8-0.3 1.6-0.5 1-1.6 1.7-1.1 0.6-2.4 0.6-1.4 0-2.4-0.5-1-0.6-1.4-1.5-0.2-0.4-0.2-1 0-0.6 0.4-0.9 0.4-0.4 0.9-0.4 0.6 0 0.9 0.4 0.4 0.4 0.4 0.9 0 0.5-0.3 0.8-0.2 0.3-0.7 0.4l-0.1 0.1q1.1 0.9 2.5 0.9 1.1 0 1.6-1.1 0.4-0.6 0.4-2v-0.4q0-1.9-1.3-2.5-0.3-0.2-1.2-0.2h-0.9q-0.1-0.1-0.1-0.4 0-0.2 0.1-0.3 0 0 0.1 0 0.5 0 1.1-0.1 0.9-0.1 1.4-1 0.4-0.9 0.4-2.1 0-1.3-0.7-1.7-0.4-0.3-0.9-0.3-1 0-1.8 0.5 0 0.1-0.1 0.2-0.1 0-0.2 0.1l-0.1 0.1q0.1 0 0.2 0 0.4 0.1 0.6 0.4 0.3 0.4 0.3 0.8 0 0.5-0.3 0.8-0.3 0.3-0.9 0.3z"/><path class="b" d="m728.5 136.5l-96-72"/><path fill-rule="evenodd" class="b" d="m760.5 200.5c-22.1 0-40-17.9-40-40 0-22.1 17.9-40 40-40 22.1 0 40 17.9 40 40 0 22.1-17.9 40-40 40z"/><path  d="m755.5 157.7q-0.2 0-0.2-0.4 0 0 0-0.1 0 0 0-0.1 0.1 0 0.1 0 0-0.1 0-0.1 0 0 0 0 0.1-0.1 0.1-0.1 0 0 0.1 0 0.1 0 0.1 0 0.9-0.2 1.6-0.7 0.8-0.5 1.3-1.2 0.9-1.1 1.2-2.6 0-0.3 0.2-0.3 0.2 0 0.2 0.2 0 0 0 0.1 0 0.1 0.1 0.1 0 0.1 0 0.1 0.3 1.6 1.4 2.8 1.1 1.1 2.6 1.5 0 0 0.1 0 0.1 0 0.1 0 0 0 0 0.1 0.1 0 0.1 0 0 0 0 0.1 0 0 0 0 0.1 0.1 0.1 0.1 0 0.1 0 0.1 0 0.4-0.2 0.4-0.2 0-0.3 0-2.4-0.7-3.7-2.6l-0.1-0.2v14.7q-0.1 0.3-0.4 0.3-0.3 0-0.4-0.3v-14.7l-0.1 0.2q-1 1.4-2.5 2.2-1 0.4-1.5 0.4z"/><path class="b" d="m818.4 247.2l-35.7-53.4"/><path fill-rule="evenodd" class="b" d="m840.5 320.5c-22.1 0-40-17.9-40-40 0-22.1 17.9-40 40-40 22.1 0 40 17.9 40 40 0 22.1-17.9 40-40 40z"/><path  d="m837.2 277.4q-0.6 0-0.9-0.3-0.3-0.4-0.3-0.9 0-1.5 1.1-2.5 1.1-1 2.6-1 1.7 0 2.8 0.9 1.2 0.9 1.4 2.4 0.1 0.4 0.1 0.7 0 1.2-0.7 2.2-0.6 0.8-2.3 2.3-0.7 0.6-2 1.8l-1.2 1.1 1.6 0.1q3.1 0 3.3-0.1 0.1-0.1 0.2-0.5 0.1-0.2 0.3-1.3v-0.1h0.8v0.1l-0.6 3.6v0.1h-7.4v-0.4q0-0.4 0-0.4 0.1-0.1 1.7-1.9 2.2-2.5 2.8-3.2 1.4-1.9 1.4-3.4 0-1.3-0.7-2.2-0.7-0.9-2-0.9-1.1 0-1.8 1.1-0.1 0-0.2 0.2 0 0.1 0 0.1 0 0 0.1 0 0.5 0 0.8 0.4 0.3 0.3 0.3 0.8 0 0.5-0.3 0.9-0.4 0.3-0.9 0.3z"/><path class="b" d="m320.5 40.5h240"/><path fill-rule="evenodd" class="b" d="m280.5 80.5c-22.1 0-40-17.9-40-40 0-22.1 17.9-40 40-40 22.1 0 40 17.9 40 40 0 22.1-17.9 40-40 40z"/><path  d="m276.5 51q-0.1 0-0.3-0.1-0.1-0.1-0.1-0.3 0-0.2 3.5-9.7 3.5-9.6 3.5-9.7 0.1-0.2 0.4-0.2 0.2 0 0.3 0.1 0.1 0.2 0.1 0.3 0 0.1-3.5 9.7-3.5 9.5-3.6 9.7-0.1 0.2-0.3 0.2z"/><path fill-rule="evenodd" class="b" d="m600.5 80.5c-22.1 0-40-17.9-40-40 0-22.1 17.9-40 40-40 22.1 0 40 17.9 40 40 0 22.1-17.9 40-40 40z"/><path  d="m593.4 41.4q-0.3-0.1-0.3-0.4 0-0.3 0.3-0.4h6v-3-3q0.2-0.3 0.4-0.3 0.2 0 0.4 0.3v6h5.9q0.3 0.2 0.3 0.4 0 0.2-0.3 0.4h-5.9v6q-0.2 0.2-0.4 0.2-0.3 0-0.4-0.2v-6z"/></svg>