<svg version="1.2" xmlns="http://www.w3.org/2000/svg" viewBox="0 0 321 521" width="321" height="521"><style>.a{fill:#fff}.b{fill:#fff;stroke:#000;stroke-width:1.5}.c{stroke:#000;stroke-width:1.5}</style><path fill-rule="evenodd" class="a" d="m0 0h321v521h-321z"/><path fill-rule="evenodd" class="b" d="m160.5 80.5c-22.1 0-40-17.9-40-40 0-22.1 17.9-40 40-40 22.1 0 40 17.9 40 40 0 22.1-17.9 40-40 40z"/><path  d="m161.2 32.9h0.3q0.8 0 1 0 1.9 0.3 3.1 1.8 1.2 1.4 1.2 3.6 0 2.7-1.7 5.1-1.2 1.7-2.8 2.7-2.1 1.3-4.2 1.3-2.2 0-3.6-1.3-1.5-1.5-1.5-4 0-0.7 0-0.9 0.4-2.7 2.3-5 0.6-0.7 1.2-1.2 2.3-1.9 4.7-2.1zm3.5 4.6q0-1.5-0.7-2.5-0.6-1-1.9-1.2-0.2-0.1-0.6-0.1-0.4 0-0.7 0.1-1.3 0.2-2.4 1.1-0.4 0.4-1.1 1.1-0.9 1.2-1.5 3-0.7 1.9-0.7 3.7 0 1.4 0.6 2.4 0.6 1 1.6 1.4 0.5 0.1 1 0.1 1.2 0 2.4-0.7 2.4-1.6 3.5-5.2 0.5-1.9 0.5-3.2z"/><path class="c" d="m160.5 120.5v-40"/><path class="c" d="m142.6 196.3l-44.2 88.4"/><path class="c" d="m178.4 196.3l44.2 88.4"/><path fill-rule="evenodd" class="b" d="m160.5 200.5c-22.1 0-40-17.9-40-40 0-22.1 17.9-40 40-40 22.1 0 40 17.9 40 40 0 22.1-17.9 40-40 40z"/><path  d="m157.7 154.4q0 0 0 0 0 0 0 0-0.1-0.1-0.1-0.1-0.1 0-0.1 0-0.1 0-0.2 0 0 0-0.1 0-0.1 0-0.2 0-0.1 0-0.2 0-0.1 0-0.2 0-0.5 0-0.6-0.1-0.1 0-0.1-0.1-0.1 0 0-0.3 0.1-0.4 0.2-0.4 0-0.1 3.5-0.1 3.4 0.1 3.7 0.1 1.8 0.3 2.7 1.2 0.8 0.8 0.8 1.8 0 0.2-0.1 0.6-0.5 1.8-2.9 2.9-0.9 0.3-1 0.3l0.1 0.1q1.3 0.8 1.3 2.2 0 0.3-0.1 1.3-0.1 1-0.1 1.6 0 0.7 0.2 1 0.1 0.3 0.6 0.3 0.3 0 0.4-0.1 0.7-0.3 1-1.3 0.1-0.3 0.2-0.3 0.1-0.1 0.3-0.1 0.4 0 0.4 0.2 0 0.4-0.5 1.2-0.6 0.9-1.4 1.1-0.1 0-0.6 0-2 0-2.7-1.2-0.1-0.4-0.2-0.8 0-0.3 0-0.4 0.1-0.1 0.1-0.3 0-0.1 0-0.2 0-0.1 0.1-0.4 0.1-0.2 0.1-0.4 0.3-1.2 0.3-1.5 0-1-0.8-1.5-0.3-0.1-0.5-0.1-0.2 0-1.4-0.1h-1.4l-0.7 2.6q-0.6 2.7-0.6 2.7 0 0.2 0 0.2 0.2 0 1.1 0.1h0.7q0.1 0.1 0.1 0.2 0 0-0.1 0.3-0.1 0.3-0.2 0.4h-0.3q-0.7 0-2.6 0-0.5 0-1.3 0-0.9 0-1.3 0-0.3 0-0.3-0.2 0 0 0-0.3 0.1-0.4 0.2-0.4 0.1 0 0.3 0h0.1q0.6 0 1.2-0.1 0.3 0 0.4-0.2 0.1-0.1 1.5-5.6 1.3-5.5 1.3-5.8zm6.6 0.6q-0.4-0.5-1.1-0.6-0.7-0.1-2-0.1-0.2 0-0.5 0-0.2 0-0.4 0-0.2 0-0.2 0-0.3 0-0.4 0.2 0 0-0.7 2.6-0.6 2.6-0.6 2.7 0 0 1.4 0 1.5 0 2-0.1 1.3-0.3 2-1.2 0.4-0.5 0.6-1.2 0.2-0.8 0.2-1.4 0-0.6-0.3-0.9z"/><path class="c" d="m68.8 132.2l63.4-63.4"/><path fill-rule="evenodd" class="b" d="m40.5 200.5c-22.1 0-40-17.9-40-40 0-22.1 17.9-40 40-40 22.1 0 40 17.9 40 40 0 22.1-17.9 40-40 40z"/><path  d="m35.3 167q-0.2 0-0.9 0-0.7 0-1.3 0-1.4 0-1.7 0-0.5 0-0.6 0-0.1-0.1-0.1-0.2 0-0.1 0.1-0.3 0-0.3 0.1-0.3 0-0.1 0.4-0.1 1.4-0.1 1.8-0.8 0.1-0.1 1.4-5.4 1.3-5.2 1.3-5.5 0-0.1-0.1-0.1 0 0 0 0-0.2 0-1.1 0-0.5 0-0.6-0.1-0.1 0-0.1-0.1 0-0.1 0-0.3 0.1-0.4 0.2-0.4 0.1-0.1 2-0.1 1.6 0 1.9 0.1 0.2 0 0.3 0 0 0.1 0.7 5.7 0.7 5.5 0.7 5.6 0 0 0.3-0.4 0.2-0.4 0.6-1 0.4-0.7 1-1.5 0.5-0.8 1.1-1.7 0.6-1 1.1-1.9 0.6-0.9 1.1-1.8 0.6-0.8 1-1.5 0.4-0.6 0.6-1l0.3-0.4q0 0 0-0.1 0.1 0 0.1 0l0.1-0.1h2q1.9 0 1.9 0.1 0.1 0 0.1 0.1 0 0.1 0 0.4-0.1 0.2-0.1 0.2-0.1 0.2-0.7 0.2-1.1 0-1.3 0.1-0.1 0-0.1 0.1-0.1 0.1-1.5 5.7-1.4 5.6-1.4 5.6 0 0.2 0.1 0.2 0.1 0 1.1 0.1h0.6q0.1 0.2 0.1 0.2 0 0.3-0.1 0.6-0.1 0.1-0.3 0.1-0.4 0-1.2 0-0.8 0-1.5 0-0.6 0-1.4 0-0.8 0-1.1 0-0.3 0-0.3-0.1-0.1-0.1 0-0.4 0.1-0.3 0.1-0.4 0.1 0 0.5 0 0.5 0 1.2-0.1 0.3 0 0.4-0.2 0-0.1 0.7-2.9 0.8-2.9 1.5-5.7 0.7-2.8 0.7-2.8-1.8 2.8-3.9 6.2l-4 6.2q-0.1 0.2-0.4 0.2-0.3 0-0.4-0.1-0.1-0.1-0.8-5.8-0.7-5.6-0.8-6.6-2.7 10.7-2.7 10.9 0.1 0.7 1.4 0.7h0.2q0.2 0.1 0.2 0.2 0 0-0.1 0.3-0.1 0.3-0.1 0.4-0.1 0-0.3 0z"/><path class="c" d="m252.2 132.2l-63.4-63.4"/><path fill-rule="evenodd" class="b" d="m280.5 200.5c-22.1 0-40-17.9-40-40 0-22.1 17.9-40 40-40 22.1 0 40 17.9 40 40 0 22.1-17.9 40-40 40z"/><path  d="m277.7 154.4q0 0 0 0 0 0-0.1 0 0-0.1-0.1-0.1 0 0-0.1 0-0.1 0-0.1 0-0.1 0-0.2 0-0.1 0-0.2 0 0 0-0.1 0-0.2 0-0.2 0-0.7 0-0.8-0.2 0 0 0.1-0.3 0.1-0.4 0.1-0.4 0.1-0.1 0.4-0.1 0.8 0.1 2.7 0.1 0.5 0 1.3 0 0.9 0 1.3 0 0.3 0 0.3 0.1 0 0.1-0.1 0.3-0.1 0.4-0.1 0.4-0.1 0.1-0.7 0.1-1.1 0-1.2 0.1-0.1 0-0.2 0.1l-1.6 6.4q0 0 3.7-2.9 3.7-2.9 3.8-2.9 0.2-0.3 0.2-0.5 0-0.3-0.5-0.3-0.3 0-0.3-0.3 0 0 0.1-0.2 0.1-0.3 0.1-0.3 0-0.1 0.3-0.1 0.3 0 1.1 0 0.7 0 1.2 0 1.1 0 1.5 0 0.3-0.1 0.4 0 0.1 0 0.1 0.2 0 0-0.1 0.3-0.1 0.2-0.1 0.3 0 0.1-0.4 0.1-1.5 0.1-2.7 1l-0.2 0.1q-0.1 0.1-2.1 1.6-2 1.6-2 1.6l0.2 0.5q0.1 0.4 0.5 1.3 0.4 0.9 0.7 1.7 1.5 3.6 1.6 3.7 0.1 0 0.1 0.1 0.3 0.2 1 0.2h0.5q0.1 0.1 0.1 0.2 0 0-0.1 0.3-0.1 0.3-0.2 0.4h-0.2q-0.8-0.1-1.9-0.1-2.4 0-2.7 0.1h-0.2q-0.2-0.1-0.2-0.2 0 0 0.1-0.3 0-0.3 0.1-0.4 0.1 0 0.3 0 1 0 1-0.5 0-0.1-1.2-2.9l-1.2-2.8-1.3 1.1-1.4 1-0.4 1.9q-0.5 1.8-0.5 1.9 0 0.2 0.1 0.2 0.1 0 1.1 0.1h0.6q0.1 0.2 0.1 0.2 0 0.3-0.1 0.6-0.1 0.1-0.4 0.1-0.3 0-1.2 0-0.8 0-1.5 0-0.6 0-1.5 0-0.8 0-1.1 0-0.3 0-0.3-0.1-0.1-0.1-0.1-0.1 0-0.1 0.1-0.3 0.1-0.3 0.1-0.4 0.1 0 0.5 0 0.5 0 1.2-0.1 0.3 0 0.4-0.2 0-0.1 1.4-5.6 1.4-5.5 1.4-5.8z"/><path class="c" d="m108.8 348.8l103.4 103.4"/><path class="c" d="m80.5 360.5v80"/><path fill-rule="evenodd" class="b" d="m80.5 360.5c-22.1 0-40-17.9-40-40 0-22.1 17.9-40 40-40 22.1 0 40 17.9 40 40 0 22.1-17.9 40-40 40z"/><path  d="m77.8 314.4q0 0-0.1 0 0 0 0 0-0.1-0.1-0.1-0.1 0 0-0.1 0-0.1 0-0.2 0 0 0-0.1 0-0.1 0-0.2 0-0.1 0-0.2 0-0.1 0-0.2 0-0.5 0-0.6-0.1-0.1 0-0.1-0.1 0 0 0-0.3 0.1-0.4 0.2-0.4 0-0.1 2.6-0.1 5.2 0 5.5 0.1 1.3 0.2 2.1 0.9 0.8 0.8 0.8 1.8 0 0.7-0.4 1.4-0.4 0.8-1.4 1.4-0.9 0.7-2 0.9l-0.2 0.1q1.3 0.1 2.1 0.9 0.8 0.7 0.8 1.8 0 1.5-1.3 2.7-1.5 1.5-3.6 1.7-0.2 0-4.3 0-4 0-4 0-0.1-0.1-0.1-0.2 0-0.1 0-0.3 0.1-0.4 0.2-0.4 0.1 0 0.3 0h0.2q0.5 0 1.2-0.1 0.2 0 0.3-0.2 0.1-0.1 1.5-5.6 1.4-5.5 1.4-5.8zm7.2 1.7q0-0.7-0.4-1.1-0.3-0.5-0.9-0.7-0.1 0-1.8 0-0.4 0-0.9 0-0.4 0-0.7 0h-0.2q-0.3 0-0.4 0.1-0.1 0.1-0.7 2.5-0.6 2.5-0.6 2.6h1.6q1.6 0 1.9 0 0.8-0.2 1.5-0.7 0.8-0.5 1.2-1.2 0.4-0.8 0.4-1.5zm-1.1 6.3q0-0.9-0.5-1.4-0.4-0.6-1.2-0.7-0.1 0-1.6 0-2.4 0-2.4 0 0 0-0.4 1.4-0.3 1.5-0.6 2.9l-0.4 1.4q0 0 0.2 0.1 0.3 0 1.7 0 1.7 0 1.9 0 1.3-0.2 2.3-1.2 1-1 1-2.5z"/><path fill-rule="evenodd" class="b" d="m240.5 360.5c-22.1 0-40-17.9-40-40 0-22.1 17.9-40 40-40 22.1 0 40 17.9 40 40 0 22.1-17.9 40-40 40z"/><path  d="m234 327h-0.2q-0.1-0.1-0.1-0.2 0-0.1 0.1-0.4 0-0.2 0.1-0.3h0.1 0.2q1.4-0.1 2.1-1 0.1-0.1 3.6-6.1 3.5-6 3.6-6.1 0.1-0.2 0.1-0.2 0.1 0 0.5 0h0.3q0.2 0.2 0.2 0.2l0.5 6.4q0.6 6.5 0.6 6.6 0.1 0.2 1.3 0.2 0.2 0 0.3 0 0.1 0 0.2 0 0 0.1 0 0.2 0 0 0 0.3-0.1 0.3-0.2 0.3 0 0.1-0.2 0.1-0.4 0-1.2 0-0.8 0-1.3 0-1.9 0-2.5 0h-0.2q-0.2-0.1-0.2-0.2 0 0 0.1-0.3 0.1-0.3 0.1-0.4h0.1 0.4q1.1-0.1 1.3-0.4l-0.3-3h-4.7l-0.7 1.2q-0.7 1.2-0.8 1.3 0 0.2 0 0.3 0 0.5 0.9 0.6 0.4 0 0.4 0.2 0 0.1-0.1 0.3-0.1 0.2-0.1 0.3-0.1 0.1-0.3 0.1-0.3 0-1.1 0-0.7 0-1.1 0-1.4 0-1.8 0zm9.3-5.2q0-0.2-0.2-3.1-0.3-2.9-0.3-2.9l-0.5 0.8q-0.4 0.6-1.3 2.2l-1.8 3h2.1q2 0 2 0z"/><path fill-rule="evenodd" class="b" d="m240.5 520.5c-22.1 0-40-17.9-40-40 0-22.1 17.9-40 40-40 22.1 0 40 17.9 40 40 0 22.1-17.9 40-40 40z"/><path  d="m232.8 487q-0.3 0-0.3-0.2 0-0.1 0.1-0.3 0.1-0.3 0.1-0.4 0.1 0 0.4 0 1.7-0.1 2.7-1.1 0.2-0.2 2.3-2.5 2.1-2.3 2.1-2.3-2.2-5.6-2.3-5.7-0.1-0.2-1.2-0.2h-0.6q-0.1-0.2-0.1-0.2 0-0.1 0-0.4 0.1-0.2 0.2-0.4h0.3q0.7 0.1 2.4 0.1 0.5 0 1.3 0 0.9 0 1.3 0 0.2 0 0.2 0 0.1 0 0.1 0.1 0 0.5-0.2 0.7 0 0.1-0.3 0.1-0.8 0-1 0.3h-0.1q0.9 2.2 1.6 3.9l1-1.2q1-1 1.5-1.6 0.4-0.5 0.5-0.7 0.1-0.1 0.1-0.3 0-0.3-0.5-0.4-0.1 0-0.2 0-0.2 0-0.3-0.1-0.1-0.1 0-0.5 0.1-0.2 0.2-0.4h0.3q0.4 0.1 2.4 0.1 1.7 0 1.9-0.1h0.2q0.1 0.2 0.1 0.3 0 0.1-0.1 0.4 0 0.2-0.1 0.3h-0.3q-1.6 0-2.5 0.8-0.2 0.2-0.3 0.2 0 0.1-0.1 0.1 0 0.1-1.8 2l-1.7 1.9q0 0 0.6 1.6 0.7 1.6 1.3 3.3 0.7 1.6 0.8 1.7 0.2 0.2 1.2 0.2 0.7 0 0.7 0.1 0 0.3-0.2 0.7 0 0.1-0.3 0.1-0.3 0-1 0-0.8 0-1.4 0-0.6 0-1.4 0-0.9 0-1.2 0-0.2 0-0.3-0.1 0-0.1 0-0.4 0.1-0.3 0.2-0.3 0-0.1 0.3-0.1 0.3 0 0.7-0.2 0.4-0.1 0.4-0.2-0.1 0-1-2.3l-0.9-2.4q0 0-1.9 2.1-1.9 2.1-1.9 2.1-0.2 0.2-0.2 0.4 0 0.3 0.6 0.5 0 0 0.1 0 0.1 0 0.2 0 0.2 0 0.2 0.2 0 0.1-0.1 0.3 0 0.3-0.1 0.3 0 0.1-0.3 0.1-0.4 0-1.2 0-0.8 0-1.2 0-1.5 0-2 0z"/><path fill-rule="evenodd" class="b" d="m80.5 520.5c-22.1 0-40-17.9-40-40 0-22.1 17.9-40 40-40 22.1 0 40 17.9 40 40 0 22.1-17.9 40-40 40z"/><path  d="m86 473.4q0.7 0 1.1 0 0.5 0 1.1 0 0.6-0.1 0.8-0.1 0.3 0 0.3 0.2 0 0.1-0.1 0.4-0.1 0.2-0.1 0.2 0 0.2-0.4 0.2-1.5 0.1-2.4 1-0.1 0.1-2.8 3.2l-2.5 3-0.6 2.1q-0.5 2.2-0.5 2.3 0 0.2 1.4 0.2 0.3 0 0.4 0 0.1 0 0.1 0.2 0 0.4-0.1 0.6-0.1 0.1-0.4 0.1-0.3 0-1.2 0-0.8 0-1.5 0-0.6 0-1.4 0-0.8 0-1.2 0-0.3 0-0.3-0.2 0 0 0.1-0.3 0-0.3 0-0.3 0.1-0.1 0.8-0.1 0.8 0 1-0.1 0.3-0.1 0.4-0.3 0-0.1 0.5-2.1l0.5-2.1q-0.8-2.3-2.4-7-0.2-0.1-0.4-0.2-0.2 0-0.9 0-0.7 0-0.7-0.2 0-0.1 0.1-0.3 0-0.4 0.1-0.4 0.1-0.1 0.3-0.1 1 0.1 2.2 0.1 2.4 0 2.8-0.1h0.2q0.1 0.2 0.1 0.2 0.1 0.1 0 0.4-0.1 0.2-0.2 0.4h-0.2q-1.2 0-1.2 0.2 0 0.1 1 3 1 2.8 1.1 2.8 0.1-0.1 0.3-0.3 0.1-0.2 0.4-0.5 0.2-0.3 0.6-0.7 0.4-0.4 0.9-1 2.1-2.5 2.3-2.7 0.1-0.3 0.1-0.5 0-0.3-0.6-0.3-0.3 0-0.3-0.2 0-0.1 0-0.3 0.1-0.3 0.1-0.4 0.1-0.1 0.3-0.1 0.3 0 1 0.1z"/></svg>