<svg version="1.2" xmlns="http://www.w3.org/2000/svg" viewBox="0 0 881 321" width="881" height="321"><style>.a{fill:#fff}.b{stroke:#000;stroke-miterlimit:100;stroke-width:1.5}.c{fill:#fff;stroke:#000;stroke-miterlimit:100;stroke-width:1.5}</style><path fill-rule="evenodd" class="a" d="m0 0h881v321h-881z"/><path class="b" d="m62.6 247.2l35.7-53.4"/><path fill-rule="evenodd" class="c" d="m40.5 320.5c-22.1 0-40-17.9-40-40 0-22.1 17.9-40 40-40 22.1 0 40 17.9 40 40 0 22.1-17.9 40-40 40z"/><path  d="m37.2 277.4q-0.6 0-0.9-0.3-0.3-0.4-0.3-0.9 0-1.5 1.1-2.5 1.1-1 2.6-1 1.7 0 2.8 0.9 1.2 0.9 1.4 2.4 0.1 0.4 0.1 0.7 0 1.2-0.7 2.2-0.6 0.8-2.3 2.3-0.7 0.6-2 1.8l-1.2 1.1 1.6 0.1q3.1 0 3.3-0.1 0.1-0.1 0.2-0.5 0.1-0.2 0.3-1.3v-0.1h0.8v0.1l-0.6 3.6v0.1h-7.4v-0.4q0-0.4 0-0.4 0.1-0.1 1.7-1.9 2.2-2.5 2.8-3.2 1.4-1.9 1.4-3.4 0-1.3-0.7-2.2-0.7-0.9-2-0.9-1.1 0-1.8 1.1-0.1 0-0.2 0.2 0 0.1 0 0.1 0 0 0.1 0 0.5 0 0.8 0.4 0.3 0.3 0.3 0.8 0 0.5-0.3 0.9-0.4 0.3-0.9 0.3z"/><path class="b" d="m178.4 247.2l-35.7-53.4"/><path fill-rule="evenodd" class="c" d="m200.5 320.5c-22.1 0-40-17.9-40-40 0-22.1 17.9-40 40-40 22.1 0 40 17.9 40 40 0 22.1-17.9 40-40 40z"/><path  d="m197.1 281.7q0.5 0 0.8 0.4 0.4 0.3 0.4 0.8 0 0.4-0.4 0.8-0.3 0.3-0.7 0.3h-0.2l0.1 0.1q0.3 0.6 0.9 1 0.6 0.5 1.5 0.5 1.4 0 2-1.2 0.4-0.8 0.4-2.6 0-2.1-0.5-2.8-0.6-0.6-1.3-0.6-1.6 0-2.4 1.3-0.1 0.2-0.1 0.2-0.1 0-0.3 0-0.4 0-0.4-0.1 0-0.1 0-3.5 0-0.6-0.1-1.4 0-0.8 0-1.1 0-1.1 0.2-1.1 0 0 0 0l0.4 0.1q1.3 0.5 2.7 0.5 1.4 0 2.7-0.5 0.1-0.1 0.2-0.1 0.2 0 0.2 0.3v0.3q-1.6 1.9-4.1 1.9-0.6 0-1.1-0.1h-0.2v3.4q1.1-0.9 2.3-0.9 0.4 0 0.8 0.1 1.4 0.3 2.2 1.5 0.9 1.2 0.9 2.8 0 1.8-1.3 3.1-1.3 1.3-3.1 1.3-1.3 0-2.2-0.7-0.3-0.2-0.6-0.6-0.6-0.7-0.8-1.8 0-0.1 0-0.2 0-0.1 0-0.2 0-0.5 0.3-0.9 0.3-0.3 0.8-0.3z"/><path class="b" d="m152.5 136.5l96-72"/><path fill-rule="evenodd" class="c" d="m120.5 200.5c-22.1 0-40-17.9-40-40 0-22.1 17.9-40 40-40 22.1 0 40 17.9 40 40 0 22.1-17.9 40-40 40z"/><path  d="m124.6 165.4q0 0.2-0.1 0.3-0.1 0.1-0.3 0.1-0.1 0-0.5-0.3-0.3-0.3-1.8-1.9l-2.1-2-2.1 2.1q-2.1 2-2.2 2.1-0.1 0-0.2 0-0.1 0-0.2-0.1-0.2-0.1-0.2-0.3 0 0 0.1-0.1 0-0.2 2.1-2.2l2.1-2.1-2.1-2.1q-2.1-2-2.1-2.2-0.1-0.1-0.1-0.1 0-0.2 0.2-0.3 0.1-0.1 0.2-0.1 0.1 0 0.2 0 0.1 0.1 2.2 2.1l2.1 2.1 2.1-2q1.5-1.6 1.8-1.9 0.4-0.3 0.5-0.3 0.2 0 0.3 0.1 0.1 0.1 0.1 0.3 0 0.1 0 0.1-0.1 0.1-2.2 2.2l-2 2.1 2 2.1q2.1 2.1 2.2 2.2 0 0 0 0.1z"/><path class="b" d="m382.6 247.2l35.7-53.4"/><path fill-rule="evenodd" class="c" d="m360.5 320.5c-22.1 0-40-17.9-40-40 0-22.1 17.9-40 40-40 22.1 0 40 17.9 40 40 0 22.1-17.9 40-40 40z"/><path  d="m357.5 276.7q-0.5 0-0.8-0.3-0.3-0.3-0.3-0.9 0-1.1 0.9-1.9 0.9-0.8 2.1-0.9h0.3q0.7 0 0.8 0 0.7 0.1 1.4 0.4 1.3 0.7 1.6 1.9 0.1 0.2 0.1 0.6 0 1.1-0.7 2.1-0.8 0.9-1.9 1.3-0.1 0 0 0.1 0.1 0 0.2 0 1.3 0.4 2.1 1.3 0.8 0.9 0.8 2.1 0 0.8-0.3 1.6-0.5 1-1.6 1.7-1.1 0.6-2.4 0.6-1.4 0-2.4-0.5-1-0.6-1.4-1.5-0.2-0.4-0.2-1 0-0.6 0.4-0.9 0.4-0.4 0.9-0.4 0.6 0 0.9 0.4 0.4 0.4 0.4 0.9 0 0.5-0.3 0.8-0.2 0.3-0.7 0.4l-0.1 0.1q1.1 0.9 2.5 0.9 1.1 0 1.6-1.1 0.4-0.6 0.4-2v-0.4q0-1.9-1.3-2.5-0.3-0.2-1.2-0.2h-0.9q-0.1-0.1-0.1-0.4 0-0.2 0.1-0.3 0 0 0.1 0 0.5 0 1.1-0.1 0.9-0.1 1.4-1 0.4-0.9 0.4-2.1 0-1.3-0.7-1.7-0.4-0.3-0.9-0.3-1 0-1.8 0.5 0 0.1-0.1 0.2-0.1 0-0.2 0.1l-0.1 0.1q0.1 0 0.2 0 0.4 0.1 0.6 0.4 0.3 0.4 0.3 0.8 0 0.5-0.3 0.8-0.3 0.3-0.9 0.3z"/><path fill-rule="evenodd" class="c" d="m440.5 200.5c-22.1 0-40-17.9-40-40 0-22.1 17.9-40 40-40 22.1 0 40 17.9 40 40 0 22.1-17.9 40-40 40z"/><path  d="m435.5 157.7q-0.2 0-0.2-0.4 0 0 0-0.1 0 0 0-0.1 0.1 0 0.1 0 0-0.1 0-0.1 0 0 0 0 0.1-0.1 0.1-0.1 0 0 0.1 0 0.1 0 0.1 0 0.9-0.2 1.6-0.7 0.8-0.5 1.3-1.2 0.9-1.1 1.2-2.6 0-0.3 0.2-0.3 0.2 0 0.2 0.2 0 0 0 0.1 0 0.1 0.1 0.1 0 0.1 0 0.1 0.3 1.6 1.4 2.8 1.1 1.1 2.6 1.5 0 0 0.1 0 0.1 0 0.1 0 0 0 0 0.1 0.1 0 0.1 0 0 0 0 0.1 0 0 0 0 0.1 0.1 0.1 0.1 0 0.1 0 0.1 0 0.4-0.2 0.4-0.2 0-0.3 0-2.4-0.7-3.7-2.6l-0.1-0.2v14.7q-0.1 0.3-0.4 0.3-0.3 0-0.4-0.3v-14.7l-0.1 0.2q-1 1.4-2.5 2.2-1 0.4-1.5 0.4z"/><path class="b" d="m498.4 247.2l-35.7-53.4"/><path fill-rule="evenodd" class="c" d="m520.5 320.5c-22.1 0-40-17.9-40-40 0-22.1 17.9-40 40-40 22.1 0 40 17.9 40 40 0 22.1-17.9 40-40 40z"/><path  d="m524.4 286h-0.2q-0.2-0.1-2.5-0.1-2.4 0-2.7 0.1h-0.2v-0.9h0.6q0.9 0 1.1-0.1 0.1-0.1 0.2-0.2 0-0.1 0-1.1v-1h-5.1v-0.9l3-4.6q3-4.7 3.1-4.7 0 0 0.4 0h0.4l0.1 0.1v9.2h1.8v0.9h-1.8v1q0 0.8 0 1 0 0.1 0.1 0.2 0.2 0.2 1.1 0.2h0.6zm-5.7-4.2h2.2v-6.7l-4.4 6.6z"/><path fill-rule="evenodd" class="c" d="m280.5 80.5c-22.1 0-40-17.9-40-40 0-22.1 17.9-40 40-40 22.1 0 40 17.9 40 40 0 22.1-17.9 40-40 40z"/><path  d="m273.4 41.4q-0.3-0.1-0.3-0.4 0-0.3 0.3-0.4h6v-3-3q0.2-0.3 0.4-0.3 0.2 0 0.4 0.3v6h5.9q0.3 0.2 0.3 0.4 0 0.2-0.3 0.4h-5.9v6q-0.2 0.2-0.4 0.2-0.3 0-0.4-0.2v-6z"/><path class="b" d="m408.5 136.5l-96-72"/><path class="b" d="m560.5 40.5h-240"/><path fill-rule="evenodd" class="c" d="m600.5 80.5c-22.1 0-40-17.9-40-40 0-22.1 17.9-40 40-40 22.1 0 40 17.9 40 40 0 22.1-17.9 40-40 40z"/><path  d="m602.5 42.4h-5.3v-1.4h5.3z"/><path class="b" d="m702.6 247.2l35.7-53.4"/><path fill-rule="evenodd" class="c" d="m680.5 320.5c-22.1 0-40-17.9-40-40 0-22.1 17.9-40 40-40 22.1 0 40 17.9 40 40 0 22.1-17.9 40-40 40z"/><path  d="m677.5 276.7q-0.5 0-0.8-0.3-0.3-0.3-0.3-0.9 0-1.1 0.9-1.9 0.9-0.8 2.1-0.9h0.3q0.7 0 0.8 0 0.7 0.1 1.4 0.4 1.3 0.7 1.6 1.9 0.1 0.2 0.1 0.6 0 1.1-0.7 2.1-0.8 0.9-1.9 1.3-0.1 0 0 0.1 0.1 0 0.2 0 1.3 0.4 2.1 1.3 0.8 0.9 0.8 2.1 0 0.8-0.3 1.6-0.5 1-1.6 1.7-1.1 0.6-2.4 0.6-1.4 0-2.4-0.5-1-0.6-1.4-1.5-0.2-0.4-0.2-1 0-0.6 0.4-0.9 0.4-0.4 0.9-0.4 0.6 0 0.9 0.4 0.4 0.4 0.4 0.9 0 0.5-0.3 0.8-0.2 0.3-0.7 0.4l-0.1 0.1q1.1 0.9 2.5 0.9 1.1 0 1.6-1.1 0.4-0.6 0.4-2v-0.4q0-1.9-1.3-2.5-0.3-0.2-1.2-0.2h-0.9q-0.1-0.1-0.1-0.4 0-0.2 0.1-0.3 0 0 0.1 0 0.5 0 1.1-0.1 0.9-0.1 1.4-1 0.4-0.9 0.4-2.1 0-1.3-0.7-1.7-0.4-0.3-0.9-0.3-1 0-1.8 0.5 0 0.1-0.1 0.2-0.1 0-0.2 0.1l-0.1 0.1q0.1 0 0.2 0 0.4 0.1 0.6 0.4 0.3 0.4 0.3 0.8 0 0.5-0.3 0.8-0.3 0.3-0.9 0.3z"/><path class="b" d="m818.4 247.2l-35.7-53.4"/><path fill-rule="evenodd" class="c" d="m840.5 320.5c-22.1 0-40-17.9-40-40 0-22.1 17.9-40 40-40 22.1 0 40 17.9 40 40 0 22.1-17.9 40-40 40z"/><path  d="m838.5 286h-0.2q-0.3-0.1-3.2-0.1-2.8 0-3.1 0.1h-0.2v-0.9h0.5q1.1 0 1.5-0.1 0.1 0 0.5-0.2v-10.4q-0.1 0-0.2 0.1-0.9 0.4-2.1 0.4h-0.3v-0.9h0.3q1.7-0.1 2.8-0.8 0.4-0.2 0.7-0.5 0 0 0.2 0 0.2 0 0.3 0.1v6l0.1 6q0.3 0.3 1.3 0.3h0.6 0.5zm3.4-11.7q1.1-1.6 3.1-1.6 1.4 0 2.5 1 0.6 0.5 1 1.3 0.7 1.7 0.7 4.6 0 3.1-0.9 4.7-0.5 1.2-1.6 1.7-0.8 0.4-1.7 0.4-2.3 0-3.4-2.1-0.8-1.6-0.8-4.7 0-1.9 0.2-3.1 0.3-1.2 0.9-2.2zm4.5-0.3q-0.6-0.6-1.4-0.6-0.8 0-1.4 0.6-0.5 0.5-0.6 1.2-0.2 0.6-0.2 2.2 0 0.2-0.1 0.8 0 0.7 0 1.1 0 1.9 0.1 2.7 0.1 1.4 0.2 2 0.2 0.6 0.6 1.1 0.6 0.6 1.4 0.6 0.8 0 1.4-0.6 0.4-0.5 0.6-1.1 0.1-0.6 0.2-2 0-0.8 0-2.7 0-0.4 0-1.1 0-0.6 0-0.8 0-1.6-0.2-2.2-0.1-0.7-0.6-1.2z"/><path class="b" d="m728.5 136.5l-96-72"/><path fill-rule="evenodd" class="c" d="m760.5 200.5c-22.1 0-40-17.9-40-40 0-22.1 17.9-40 40-40 22.1 0 40 17.9 40 40 0 22.1-17.9 40-40 40z"/><path  d="m764.6 165.4q0 0.2-0.1 0.3-0.1 0.1-0.3 0.1-0.1 0-0.5-0.3-0.3-0.3-1.8-1.9l-2.1-2-2.1 2.1q-2.1 2-2.2 2.1-0.1 0-0.2 0-0.1 0-0.2-0.1-0.2-0.1-0.2-0.3 0 0 0.1-0.1 0-0.2 2.1-2.2l2.1-2.1-2.1-2.1q-2.1-2-2.1-2.2-0.1-0.1-0.1-0.1 0-0.2 0.2-0.3 0.1-0.1 0.2-0.1 0.1 0 0.2 0 0.1 0.1 2.2 2.1l2.1 2.1 2.1-2q1.5-1.6 1.8-1.9 0.4-0.3 0.5-0.3 0.2 0 0.3 0.1 0.1 0.1 0.1 0.3 0 0.1 0 0.1-0.1 0.1-2.2 2.2l-2 2.1 2 2.1q2.1 2.1 2.2 2.2 0 0 0 0.1z"/></svg>