<svg version="1.2" xmlns="http://www.w3.org/2000/svg" viewBox="0 0 801 561" width="801" height="561"><style>.a{fill:#fff}.b{fill:#fff;stroke:#000;stroke-width:1.5}.c{stroke:#000;stroke-width:1.5}</style><path fill-rule="evenodd" class="a" d="m0 0h801v561h-801z"/><path fill-rule="evenodd" class="b" d="m40.5 320.5c-22.1 0-40-17.9-40-40 0-22.1 17.9-40 40-40 22.1 0 40 17.9 40 40 0 22.1-17.9 40-40 40z"/><path  d="m44.4 286h-0.2q-0.2-0.1-2.5-0.1-2.4 0-2.7 0.1h-0.2v-0.9h0.6q0.9 0 1.1-0.1 0.1-0.1 0.2-0.2 0-0.1 0-1.1v-1h-5.1v-0.9l3-4.6q3-4.7 3.1-4.7 0 0 0.4 0h0.4l0.1 0.1v9.2h1.8v0.9h-1.8v1q0 0.8 0 1 0 0.1 0.1 0.2 0.2 0.2 1.1 0.2h0.6zm-5.7-4.2h2.2v-6.7l-4.4 6.6z"/><path fill-rule="evenodd" class="b" d="m200.5 320.5c-22.1 0-40-17.9-40-40 0-22.1 17.9-40 40-40 22.1 0 40 17.9 40 40 0 22.1-17.9 40-40 40z"/><path  d="m204.2 275.4q0.3 0 0.5 0.1 0.2 0.2 0.2 0.4 0 0.3-1 4.2-0.9 4-1.1 4.4-0.3 0.9-1 1.8-0.7 0.8-1.7 1.3-1 0.5-2 0.5-1.5 0-2-1-0.2-0.2-0.2-0.8 0-0.6 0.3-1 0.5-0.4 0.9-0.4 0.9 0 0.9 0.8 0 0.8-0.7 1.1 0 0-0.1 0.1-0.1 0-0.1 0 0 0-0.1 0v0.1q0 0.1 0.4 0.2 0.3 0.1 0.6 0.1h0.2q0.3 0 0.5 0 0.8-0.2 1.5-1 0.6-0.8 1-1.9 0.2-0.7 0.2-0.8 0 0 0 0-0.1 0-0.1 0.1-0.8 0.5-1.7 0.5-1 0-1.7-0.5-0.6-0.4-0.8-1.3 0-0.2 0-0.7 0-0.4 0-0.7 0.1-0.9 0.9-2.9 0.5-1.2 0.5-1.7 0-0.3-0.1-0.4 0-0.1-0.2-0.1h-0.1q-0.5 0-0.9 0.4-0.6 0.7-1 2 0 0 0 0 0 0.1 0 0.1 0 0-0.1 0 0 0 0 0-0.1 0-0.1 0-0.1 0-0.2 0h-0.3q-0.1-0.1-0.1-0.1 0-0.1 0.1-0.3 0.4-1.4 1.2-2.2 0.7-0.6 1.5-0.6 0.8 0 1.3 0.4 0.5 0.5 0.5 1.3 0 0.4-0.1 0.4 0 0.1-0.3 0.9-0.8 2.2-0.9 3.2-0.1 0.2-0.1 0.5 0 0.8 0.3 1.2 0.2 0.4 0.9 0.4 0.4 0 0.8-0.3 0.4-0.2 0.6-0.4 0.3-0.3 0.6-0.7 0 0 0.1-0.4 0.1-0.4 0.3-1.2 0.2-0.7 0.3-1.4 0.8-3 0.9-3.2 0.2-0.5 0.8-0.5z"/><path class="c" d="m98.4 193.8l-35.7 53.4"/><path class="c" d="m142.6 193.8l35.7 53.4"/><path class="c" d="m154.8 139.9l131.4-78.8"/><path fill-rule="evenodd" class="b" d="m120.5 200.5c-22.1 0-40-17.9-40-40 0-22.1 17.9-40 40-40 22.1 0 40 17.9 40 40 0 22.1-17.9 40-40 40z"/><path  d="m118.1 159h4.6q0.1 0.1 0.1 0.2 0 0.1-0.1 0.5-0.1 0.5-0.2 0.6 0 0.1-0.3 0.1-0.2 0-2.1 0-2.3 0-2.3-0.1-0.1 0-0.1-0.1 0-0.1 0.1-0.6 0.1-0.5 0.3-0.6z"/><path class="c" d="m382.6 487.2l35.7-53.4"/><path fill-rule="evenodd" class="b" d="m360.5 560.5c-22.1 0-40-17.9-40-40 0-22.1 17.9-40 40-40 22.1 0 40 17.9 40 40 0 22.1-17.9 40-40 40z"/><path  d="m364.2 516.4q0.3 0 0.5 0.1 0.2 0.2 0.2 0.4 0 0.3-1 4.2-0.9 4-1.1 4.4-0.3 0.9-1 1.8-0.7 0.8-1.7 1.3-1 0.5-2 0.5-1.5 0-2-1-0.2-0.2-0.2-0.8 0-0.6 0.3-1 0.5-0.4 0.9-0.4 0.9 0 0.9 0.8 0 0.8-0.7 1.1 0 0-0.1 0.1-0.1 0-0.1 0 0 0-0.1 0v0.1q0 0.1 0.4 0.2 0.3 0.1 0.6 0.1h0.2q0.3 0 0.5 0 0.8-0.2 1.5-1 0.6-0.8 1-1.9 0.2-0.7 0.2-0.8 0 0 0 0-0.1 0-0.1 0.1-0.8 0.5-1.7 0.5-1 0-1.7-0.5-0.6-0.4-0.8-1.3 0-0.2 0-0.7 0-0.4 0-0.7 0.1-0.9 0.9-2.9 0.5-1.2 0.5-1.7 0-0.3-0.1-0.4 0-0.1-0.2-0.1h-0.1q-0.5 0-0.9 0.4-0.6 0.7-1 2 0 0 0 0 0 0.1 0 0.1 0 0-0.1 0 0 0 0 0-0.1 0-0.1 0-0.1 0-0.2 0h-0.3q-0.1-0.1-0.1-0.1 0-0.1 0.1-0.3 0.4-1.4 1.2-2.2 0.7-0.6 1.5-0.6 0.8 0 1.3 0.4 0.5 0.5 0.5 1.3 0 0.4-0.1 0.4 0 0.1-0.3 0.9-0.8 2.2-0.9 3.2-0.1 0.2-0.1 0.5 0 0.8 0.3 1.2 0.2 0.4 0.9 0.4 0.4 0 0.8-0.3 0.4-0.2 0.6-0.4 0.3-0.3 0.6-0.7 0 0 0.1-0.4 0.1-0.4 0.3-1.2 0.2-0.7 0.3-1.4 0.8-3 0.9-3.2 0.2-0.5 0.8-0.5z"/><path class="c" d="m462.6 433.8l35.7 53.4"/><path fill-rule="evenodd" class="b" d="m440.5 440.5c-22.1 0-40-17.9-40-40 0-22.1 17.9-40 40-40 22.1 0 40 17.9 40 40 0 22.1-17.9 40-40 40z"/><path  d="m435.5 395.7q-0.2 0-0.2-0.4 0 0 0-0.1 0 0 0-0.1 0.1 0 0.1 0 0-0.1 0-0.1 0 0 0 0 0.1-0.1 0.1-0.1 0 0 0.1 0 0.1 0 0.1 0 0.9-0.2 1.6-0.7 0.8-0.5 1.3-1.2 0.9-1.1 1.2-2.6 0-0.3 0.2-0.3 0.2 0 0.2 0.2 0 0 0 0.1 0 0.1 0.1 0.1 0 0.1 0 0.1 0.3 1.6 1.4 2.8 1.1 1.1 2.6 1.5 0 0 0.1 0 0.1 0 0.1 0 0 0 0 0.1 0.1 0 0.1 0 0 0 0 0.1 0 0 0 0 0.1 0.1 0.1 0.1 0 0.1 0 0.1 0 0.4-0.2 0.4-0.2 0-0.3 0-2.4-0.7-3.7-2.6l-0.1-0.2v14.7q-0.1 0.3-0.4 0.3-0.3 0-0.4-0.3v-14.7l-0.1 0.2q-1 1.4-2.5 2.2-1 0.4-1.5 0.4z"/><path fill-rule="evenodd" class="b" d="m520.5 560.5c-22.1 0-40-17.9-40-40 0-22.1 17.9-40 40-40 22.1 0 40 17.9 40 40 0 22.1-17.9 40-40 40z"/><path  d="m524.4 528h-0.2q-0.2-0.1-2.5-0.1-2.4 0-2.7 0.1h-0.2v-0.9h0.6q0.9 0 1.1-0.1 0.1-0.1 0.2-0.2 0-0.1 0-1.1v-1h-5.1v-0.9l3-4.6q3-4.7 3.1-4.7 0 0 0.4 0h0.4l0.1 0.1v9.2h1.8v0.9h-1.8v1q0 0.8 0 1 0 0.1 0.1 0.2 0.2 0.2 1.1 0.2h0.6zm-5.7-4.2h2.2v-6.7l-4.4 6.6z"/><path fill-rule="evenodd" class="b" d="m280.5 440.5c-22.1 0-40-17.9-40-40 0-22.1 17.9-40 40-40 22.1 0 40 17.9 40 40 0 22.1-17.9 40-40 40z"/><path  d="m277.9 399.5v0.4q0.4-0.8 1-1.2 0.6-0.4 1.4-0.4 1 0 1.8 0.5 1 0.7 1.6 1.9 0.4 0.9 0.4 2.1v0.4q0 0.4-0.1 0.8-0.2 1.2-1.2 2.2-0.9 0.9-1.9 1.2-0.4 0-0.8 0-0.4 0-0.7 0-1.5-0.3-2.4-1.6-1.2-1.9-1.2-5.1 0-2.1 0.8-3.7 0.8-1.7 2.1-2.6 1.1-0.7 2.2-0.7 2.6 0 2.7 2.2 0 0.5-0.2 0.8-0.3 0.3-0.8 0.3-0.5 0-0.8-0.3-0.2-0.3-0.2-0.7 0-0.5 0.2-0.7 0.2-0.2 0.5-0.3h0.1q0-0.1-0.3-0.3-0.4-0.2-1-0.2-0.3 0-0.8 0.1-1.2 0.4-1.8 1.7-0.6 1-0.6 3.2zm2.7-0.4q-0.1 0-0.6 0h-0.2q-0.9 0.1-1.4 1.1-0.5 1-0.5 2.5 0 1.7 0.2 2.4 0.2 0.6 0.7 1.1 0.6 0.4 1.2 0.4 0.9 0 1.4-0.5 0.4-0.5 0.6-1.1 0.1-0.6 0.1-2.1 0-1.3-0.1-2.1-0.2-1.4-1.4-1.7z"/><path class="c" d="m338.4 313.8l-35.7 53.4"/><path class="c" d="m382.6 313.8l35.7 53.4"/><path class="c" d="m392.5 256.5l96-72"/><path fill-rule="evenodd" class="b" d="m360.5 320.5c-22.1 0-40-17.9-40-40 0-22.1 17.9-40 40-40 22.1 0 40 17.9 40 40 0 22.1-17.9 40-40 40z"/><path  d="m364.6 283.4q0 0.2-0.1 0.3-0.1 0.1-0.3 0.1-0.1 0-0.5-0.3-0.3-0.3-1.8-1.9l-2.1-2-2.1 2.1q-2.1 2-2.2 2.1-0.1 0-0.2 0-0.1 0-0.2-0.1-0.2-0.1-0.2-0.3 0 0 0.1-0.1 0-0.2 2.1-2.2l2.1-2.1-2.1-2.1q-2.1-2-2.1-2.2-0.1-0.1-0.1-0.1 0-0.2 0.2-0.3 0.1-0.1 0.2-0.1 0.1 0 0.2 0 0.1 0.1 2.2 2.1l2.1 2.1 2.1-2q1.5-1.6 1.8-1.9 0.4-0.3 0.5-0.3 0.2 0 0.3 0.1 0.1 0.1 0.1 0.3 0 0.1 0 0.1-0.1 0.1-2.2 2.2l-2 2.1 2 2.1q2.1 2.1 2.2 2.2 0 0 0 0.1z"/><path class="c" d="m622.6 367.2l35.7-53.4"/><path fill-rule="evenodd" class="b" d="m600.5 440.5c-22.1 0-40-17.9-40-40 0-22.1 17.9-40 40-40 22.1 0 40 17.9 40 40 0 22.1-17.9 40-40 40z"/><path  d="m595.4 399.4h-0.2q-0.2-0.1-0.2-0.2 0.1-0.5 0.7-1.4 0.9-1.4 2.3-1.6 0.3 0 0.4 0 0.7 0 1.3 0.3 0.6 0.4 0.9 0.9 0.2-0.3 0.3-0.4 0.7-0.8 1.7-0.8 0.8 0 1.3 0.4 0.5 0.5 0.5 1.2 0 0.6-0.3 1-0.4 0.4-0.9 0.4-0.4 0-0.7-0.2-0.2-0.2-0.2-0.6 0-0.9 1-1.2 0 0-0.2-0.2-0.2-0.1-0.6-0.1-0.3 0-0.4 0.1-0.7 0.3-1.1 1.3-0.1 0.1-0.6 2.2-0.5 2.1-0.5 2.3-0.1 0.3-0.1 0.6 0 0.5 0.3 0.8 0.3 0.3 0.7 0.3 0.9 0 1.5-0.7 0.7-0.7 1-1.6 0-0.2 0.1-0.2 0-0.1 0.3-0.1 0.4 0 0.4 0.2 0 0-0.1 0.2-0.3 1.3-1.4 2.2-0.9 0.7-1.9 0.7-1.4 0-2.2-1.2-0.5 0.9-1.4 1.2-0.2 0-0.6 0-1.1 0-1.6-0.8-0.2-0.4-0.2-0.8 0-0.6 0.4-1 0.3-0.5 0.9-0.5 0.8 0 0.8 0.9 0 0.7-0.7 1.1 0 0-0.1 0 0 0-0.1 0.1 0 0 0 0h-0.1q0 0.1 0.3 0.2 0.3 0.1 0.5 0.1 0.8 0 1.3-0.9 0.2-0.4 0.8-2.6 0.1-0.5 0.2-1 0.2-0.6 0.2-0.9 0.1-0.3 0.1-0.4 0.1-0.5 0.1-0.7 0-0.5-0.2-0.8-0.3-0.3-0.8-0.3-0.9 0-1.5 0.7-0.7 0.7-0.9 1.6-0.1 0.2-0.1 0.2-0.1 0-0.4 0z"/><path fill-rule="evenodd" class="b" d="m760.5 440.5c-22.1 0-40-17.9-40-40 0-22.1 17.9-40 40-40 22.1 0 40 17.9 40 40 0 22.1-17.9 40-40 40z"/><path  d="m757.1 404.1q0.5 0 0.8 0.4 0.3 0.3 0.3 0.8 0 0.4-0.2 0.8-0.3 0.3-0.6 0.4h-0.1q0 0.1 0.2 0.3 0.3 0.2 0.5 0.3 0.8 0.4 1.8 0.4 0.6 0 1-0.3 1.1-0.7 1.1-2.7 0-1.2-0.3-1.8-0.5-1-1.5-1.2-0.1 0-0.9 0h-0.8q-0.1-0.1-0.1-0.3 0-0.4 0.1-0.4 0.1 0 0.8-0.1 0.6-0.1 0.7-0.1 0.1 0 0.3-0.1 0.6-0.3 1-1 0.3-0.8 0.3-1.8 0-2-1.7-2-1.2 0-2.2 0.9 0.5 0.2 0.7 0.4 0.3 0.3 0.3 0.8 0 0.4-0.3 0.7-0.3 0.4-0.8 0.4-0.5 0-0.8-0.3-0.3-0.3-0.3-0.8 0-0.3 0-0.6 0.2-0.8 0.9-1.4 0.7-0.6 1.7-0.8 0.4 0 0.7 0 1.6 0 2.7 0.7 1.2 0.8 1.2 2 0 0.8-0.3 1.5-0.7 1.2-2.1 1.8l-0.2 0.1h0.1q0 0.1 0.1 0.1 0 0 0.1 0 2.3 0.8 2.8 2.7 0 0.2 0 0.6 0 0.4 0 0.6-0.3 1.2-1.2 2.1-1 0.8-2.4 1.1-0.3 0-0.7 0-2.3 0-3.5-1.5-0.5-0.7-0.5-1.4 0-0.6 0.4-0.9 0.3-0.4 0.9-0.4z"/><path class="c" d="m702.6 313.8l35.7 53.4"/><path class="c" d="m648.5 256.5l-96-72"/><path fill-rule="evenodd" class="b" d="m680.5 320.5c-22.1 0-40-17.9-40-40 0-22.1 17.9-40 40-40 22.1 0 40 17.9 40 40 0 22.1-17.9 40-40 40z"/><path  d="m675.5 275.7q-0.2 0-0.2-0.4 0 0 0-0.1 0 0 0-0.1 0.1 0 0.1 0 0-0.1 0-0.1 0 0 0 0 0.1-0.1 0.1-0.1 0 0 0.1 0 0.1 0 0.1 0 0.9-0.2 1.6-0.7 0.8-0.5 1.3-1.2 0.9-1.1 1.2-2.6 0-0.3 0.2-0.3 0.2 0 0.2 0.2 0 0 0 0.1 0 0.1 0.1 0.1 0 0.1 0 0.1 0.3 1.6 1.4 2.8 1.1 1.1 2.6 1.5 0 0 0.1 0 0.1 0 0.1 0 0 0 0 0.1 0.1 0 0.1 0 0 0 0 0.1 0 0 0 0 0.1 0.1 0.1 0.1 0 0.1 0 0.1 0 0.4-0.2 0.4-0.2 0-0.3 0-2.4-0.7-3.7-2.6l-0.1-0.2v14.7q-0.1 0.3-0.4 0.3-0.3 0-0.4-0.3v-14.7l-0.1 0.2q-1 1.4-2.5 2.2-1 0.4-1.5 0.4z"/><path fill-rule="evenodd" class="b" d="m520.5 200.5c-22.1 0-40-17.9-40-40 0-22.1 17.9-40 40-40 22.1 0 40 17.9 40 40 0 22.1-17.9 40-40 40z"/><path  d="m513.4 159.4q-0.3-0.1-0.3-0.4 0-0.3 0.3-0.4h6v-3-3q0.2-0.3 0.4-0.3 0.2 0 0.4 0.3v6h5.9q0.3 0.2 0.3 0.4 0 0.2-0.3 0.4h-5.9v6q-0.2 0.2-0.4 0.2-0.3 0-0.4-0.2v-6z"/><path class="c" d="m354.8 61.1l131.4 78.8"/><path fill-rule="evenodd" class="b" d="m320.5 80.5c-22.1 0-40-17.9-40-40 0-22.1 17.9-40 40-40 22.1 0 40 17.9 40 40 0 22.1-17.9 40-40 40z"/><path  d="m326.9 29q0.2 0 0.3 0.1 0.1 0.1 0.1 0.3 0 0.1 0 0.1 0 0-5.6 9.6-5.5 9.6-5.6 9.7-0.1 0.2-0.3 0.2-0.2 0-0.3-0.1-0.1-0.1-0.1-0.4 0 0 5.6-9.6 5.5-9.6 5.6-9.7 0.1-0.2 0.3-0.2z"/></svg>