<svg version="1.2" xmlns="http://www.w3.org/2000/svg" viewBox="0 0 481 321" width="481" height="321"><style>.a{fill:#fff}.b{fill:none;stroke:#000;stroke-miterlimit:10}.c{stroke:#000;stroke-miterlimit:10}.d{fill:#fff;stroke:#000}</style><path fill-rule="evenodd" class="a" d="m0 0h481v321h-481z"/><path class="b" d="m132.2 68.8l-58.9 58.9"/><path class="c" d="m69.6 131.4l2.5-7.4 1.2 3.7 3.7 1.2z"/><path class="a" d="m96.6 105.5h9.2v-24.1h-9.2zm8.9 1.2h6v-14.1h-6z"/><path  d="m102.2 102.8q-0.4 0-1.1 0.1-0.6 0-1 0-0.3 0-0.3-0.2 0 0 0.1-0.1 0-0.1 0-0.2 0.1-0.3 0.1-0.4 0.1 0 0.4 0 1 0 1.2-0.2 0.1-0.1 0.6-1.8 0.4-1.6 0.4-1.6 0-0.1-0.2 0-0.7 0.6-1.5 0.8-0.1 0-0.5 0-1.3 0-2.1-1.1-0.6-0.9-0.6-2.2 0-0.4 0-0.5 0.1-1.3 0.8-2.4 0.7-1.2 1.7-1.9 1.1-0.9 2.4-0.9 1.1 0 1.8 1 0.5-0.5 0.7-0.6 0.7-0.4 0.9-0.4 0.2 0 0.2 0.1 0 0.2-1.4 5.7-1.4 5.7-1.4 5.8 0 0.1 0.7 0.2 0.1 0 0.2 0h0.5q0.1 0.1 0.1 0.1 0 0.1 0 0.4-0.1 0.3-0.2 0.4h-0.3q-0.6-0.1-2.2-0.1zm1.8-10.3q-0.4-1.6-1.5-1.6-0.8 0-1.4 0.7-0.6 0.7-0.9 1.5-0.6 1.6-0.8 3.3 0 0.1 0 0.2 0 0.2 0 0.3 0 0.7 0.3 1.1 0.3 0.5 0.9 0.5 1 0 2.2-1.5l0.2-0.2q0.1-0.7 0.5-2.1 0.4-1.5 0.5-2.2zm3.3 5.4q-0.3 0-0.5-0.2-0.2-0.2-0.2-0.5 0-0.9 0.6-1.5 0.7-0.6 1.5-0.6 1 0 1.7 0.6 0.7 0.5 0.8 1.4 0 0.2 0 0.4 0 0.6-0.4 1.2-0.3 0.5-1.3 1.4-0.4 0.3-1.2 1l-0.6 0.7h0.8q1.9 0 2 0 0-0.1 0.1-0.3 0.1-0.1 0.2-0.8h0.4l-0.3 2.1v0.1h-4.3v-0.2q0-0.3 0-0.3 0 0 1-1.1 1.3-1.4 1.6-1.9 0.8-1 0.8-1.9 0-0.8-0.4-1.3-0.4-0.5-1.1-0.5-0.7 0-1.1 0.6 0 0-0.1 0.1 0 0.1 0 0.1 0 0 0 0 0.3 0 0.5 0.2 0.2 0.2 0.2 0.5 0 0.3-0.2 0.5-0.2 0.2-0.5 0.2z"/><path class="b" d="m200.5 40.5h73.6"/><path class="c" d="m279.4 40.5l-7 3.5 1.7-3.5-1.7-3.5z"/><path class="a" d="m232.6 47.5h9.2v-24.1h-9.2zm8.9 1.2h6v-14.1h-6z"/><path  d="m238.2 44.8q-0.4 0-1.1 0.1-0.6 0-1 0-0.3 0-0.3-0.2 0 0 0.1-0.1 0-0.1 0-0.2 0.1-0.3 0.1-0.4 0.1 0 0.4 0 1 0 1.2-0.2 0.1-0.1 0.6-1.8 0.4-1.6 0.4-1.6 0-0.1-0.2 0-0.7 0.6-1.5 0.8-0.1 0-0.5 0-1.3 0-2.1-1.1-0.6-0.9-0.6-2.2 0-0.4 0-0.5 0.1-1.3 0.8-2.4 0.7-1.2 1.7-1.9 1.1-0.9 2.4-0.9 1.1 0 1.8 1 0.5-0.5 0.7-0.6 0.7-0.4 0.9-0.4 0.2 0 0.2 0.1 0 0.2-1.4 5.7-1.4 5.7-1.4 5.8 0 0.1 0.7 0.2 0.1 0 0.2 0h0.5q0.1 0.1 0.1 0.1 0 0.1 0 0.4-0.1 0.3-0.2 0.4h-0.3q-0.6-0.1-2.2-0.1zm1.8-10.3q-0.4-1.6-1.5-1.6-0.8 0-1.4 0.7-0.6 0.7-0.9 1.5-0.6 1.6-0.8 3.3 0 0.1 0 0.2 0 0.2 0 0.3 0 0.7 0.3 1.1 0.3 0.5 0.9 0.5 1 0 2.2-1.5l0.2-0.2q0.1-0.7 0.5-2.1 0.4-1.5 0.5-2.2zm7 10.4h-0.1q-0.2-0.1-1.9-0.1-1.6 0-1.8 0.1h-0.2v-0.6h0.3q0.7 0 0.9 0 0.1 0 0.3-0.1v-6.1q0 0-0.1 0.1-0.5 0.2-1.2 0.2h-0.2v-0.5h0.2q1-0.1 1.6-0.5 0.2-0.1 0.4-0.2 0-0.1 0.1-0.1 0.1 0 0.2 0.1v3.5 3.5q0.2 0.1 0.8 0.1h0.4 0.3z"/><path class="b" d="m160.5 80.5v153.6"/><path class="c" d="m160.5 239.4l-3.5-7 3.5 1.7 3.5-1.7z"/><path class="a" d="m153.6 168.5h9.2v-24.1h-9.2zm8.9 1.2h6v-14.1h-6z"/><path  d="m159.2 165.8q-0.4 0-1.1 0.1-0.6 0-1 0-0.3 0-0.3-0.2 0 0 0.1-0.1 0-0.1 0-0.2 0.1-0.3 0.1-0.4 0.1 0 0.4 0 1 0 1.2-0.2 0.1-0.1 0.6-1.8 0.4-1.6 0.4-1.6 0-0.1-0.2 0-0.7 0.6-1.5 0.8-0.1 0-0.5 0-1.3 0-2.1-1.1-0.6-0.9-0.6-2.2 0-0.4 0-0.5 0.1-1.3 0.8-2.4 0.7-1.2 1.7-1.9 1.1-0.9 2.4-0.9 1.1 0 1.8 1 0.5-0.5 0.7-0.6 0.7-0.4 0.9-0.4 0.2 0 0.2 0.1 0 0.2-1.4 5.7-1.4 5.7-1.4 5.8 0 0.1 0.7 0.2 0.1 0 0.2 0h0.5q0.1 0.1 0.1 0.1 0 0.1 0 0.4-0.1 0.3-0.2 0.4h-0.3q-0.6-0.1-2.2-0.1zm1.8-10.3q-0.4-1.6-1.5-1.6-0.8 0-1.4 0.7-0.6 0.7-0.9 1.5-0.6 1.6-0.8 3.3 0 0.1 0 0.2 0 0.2 0 0.3 0 0.7 0.3 1.1 0.3 0.5 0.9 0.5 1 0 2.2-1.5l0.2-0.2q0.1-0.7 0.5-2.1 0.4-1.5 0.5-2.2zm3.5 5q-0.3 0-0.5-0.2-0.2-0.2-0.2-0.5 0-0.7 0.5-1.1 0.6-0.5 1.2-0.6h0.2q0.4 0 0.5 0 0.4 0.1 0.8 0.3 0.8 0.4 1 1.1 0 0.1 0 0.3 0 0.7-0.4 1.2-0.4 0.6-1.1 0.8 0 0 0 0 0 0 0.1 0.1 0.7 0.2 1.2 0.7 0.5 0.6 0.5 1.2 0 0.5-0.2 1-0.3 0.6-0.9 1-0.6 0.3-1.4 0.3-0.8 0-1.4-0.3-0.6-0.3-0.8-0.9-0.1-0.2-0.1-0.5 0-0.4 0.2-0.6 0.2-0.2 0.5-0.2 0.4 0 0.6 0.2 0.2 0.3 0.2 0.6 0 0.2-0.2 0.4-0.1 0.2-0.4 0.3h-0.1q0.7 0.5 1.5 0.5 0.6 0 0.9-0.6 0.2-0.4 0.2-1.2v-0.2q0-1.1-0.7-1.5-0.2 0-0.7-0.1h-0.5q-0.1 0-0.1-0.2 0-0.1 0.1-0.1 0-0.1 0-0.1 0.4 0 0.7 0 0.5-0.1 0.8-0.6 0.3-0.5 0.3-1.2 0-0.8-0.5-1.1-0.2-0.1-0.5-0.1-0.6 0-1 0.3-0.1 0-0.1 0.1-0.1 0-0.1 0.1h-0.1q0.1 0 0.1 0 0.3 0.1 0.4 0.3 0.2 0.2 0.2 0.4 0 0.3-0.2 0.5-0.2 0.2-0.5 0.2z"/><path fill-rule="evenodd" class="d" d="m160.5 80.5c-22.1 0-40-17.9-40-40 0-22.1 17.9-40 40-40 22.1 0 40 17.9 40 40 0 22.1-17.9 40-40 40z"/><path  d="m164.7 42.9q0.2 0 0.3 0.1 0 0 0.1 0 0 0 0 0.1 0 0.1 0 0.3-0.5 1.7-1.1 2.3-0.3 0.3-0.7 0.5-0.1 0-0.4 0-1.3 0-1.8-1-0.1-0.2-0.1-0.2 0 0-0.1 0 0 0-0.1 0.1-0.9 0.9-1.9 1.1-0.1 0-0.5 0-1.3 0-2.1-1.1-0.6-0.9-0.6-2.2 0-0.4 0-0.5 0.1-1.3 0.8-2.4 0.7-1.2 1.7-1.9 1.1-0.9 2.4-0.9 1 0 1.8 1 0.3-0.6 0.9-0.6 0.3 0 0.5 0.1 0.2 0.2 0.2 0.4 0 0.3-0.8 3.2-0.7 3-0.7 3.3 0 0.9 0.5 0.9 0.2 0 0.4-0.2 0.5-0.4 0.9-1.9 0.1-0.4 0.2-0.4 0-0.1 0.2-0.1zm-7.3 1q0 0.7 0.3 1.1 0.3 0.5 0.9 0.5 0.6 0 1.2-0.5 0.3-0.2 0.7-0.6 0.4-0.4 0.5-0.6 0-0.1 0.5-2.1 0.5-2.1 0.5-2.3 0-0.2-0.2-0.6-0.4-0.9-1.3-0.9-0.8 0-1.4 0.7-0.6 0.7-0.9 1.5-0.6 1.6-0.8 3.3 0 0.1 0 0.2 0 0.2 0 0.3z"/><path class="b" d="m348.8 68.8l58.9 58.9"/><path class="c" d="m411.4 131.4l-7.4-2.5 3.7-1.2 1.3-3.7z"/><path class="a" d="m368.6 103.5h9.2v-24.1h-9.2zm8.9 1.2h6v-14.1h-6z"/><path  d="m374.2 100.8q-0.4 0-1.1 0.1-0.6 0-1 0-0.3 0-0.3-0.2 0 0 0.1-0.1 0-0.1 0-0.2 0.1-0.3 0.1-0.4 0.1 0 0.4 0 1 0 1.2-0.2 0.1-0.1 0.6-1.8 0.4-1.6 0.4-1.6 0-0.1-0.2 0-0.7 0.6-1.5 0.8-0.1 0-0.5 0-1.3 0-2.1-1.1-0.6-0.9-0.6-2.2 0-0.4 0-0.5 0.1-1.3 0.8-2.4 0.7-1.2 1.7-1.9 1.1-0.9 2.4-0.9 1.1 0 1.8 1 0.5-0.5 0.7-0.6 0.7-0.4 0.9-0.4 0.2 0 0.2 0.1 0 0.2-1.4 5.7-1.4 5.7-1.4 5.8 0 0.1 0.7 0.2 0.1 0 0.2 0h0.5q0.1 0.1 0.1 0.1 0 0.1 0 0.4-0.1 0.3-0.2 0.4h-0.3q-0.6-0.1-2.2-0.1zm1.8-10.3q-0.4-1.6-1.5-1.6-0.8 0-1.4 0.7-0.6 0.7-0.9 1.5-0.6 1.6-0.8 3.3 0 0.1 0 0.2 0 0.2 0 0.3 0 0.7 0.3 1.1 0.3 0.5 0.9 0.5 1 0 2.2-1.5l0.2-0.2q0.1-0.7 0.5-2.1 0.4-1.5 0.5-2.2zm7.5 10.4h-0.1q-0.2-0.1-1.5-0.1-1.4 0-1.6 0.1h-0.1v-0.6h0.4q0.5 0 0.6 0 0.1 0 0.1-0.1 0-0.1 0-0.7v-0.5h-3v-0.6l1.8-2.7q1.8-2.7 1.8-2.7 0 0 0.2 0h0.2l0.1 0.1v5.3h1.1v0.6h-1.1v0.6q0 0.4 0 0.5 0 0.1 0.1 0.2 0.1 0 0.7 0h0.3zm-3.4-2.4h1.3v-3.9l-2.5 3.9z"/><path fill-rule="evenodd" class="d" d="m320.5 80.5c-22.1 0-40-17.9-40-40 0-22.1 17.9-40 40-40 22.1 0 40 17.9 40 40 0 22.1-17.9 40-40 40z"/><path  d="m317.8 32.3q0 0 1.4-0.1 1.5-0.1 1.5-0.1 0.2 0 0.2 0.2 0 0.2-0.7 2.9-0.1 0.6-0.3 1.4-0.2 0.7-0.3 1l-0.1 0.4q0 0.1 0.1 0 0.7-0.6 1.6-0.8 0.2 0 0.5 0 0.2 0 0.5 0 1 0.2 1.6 1.1 0.6 0.8 0.6 2.1 0 2.2-1.5 4-1.6 1.8-3.4 1.8-0.6 0-1.1-0.2-1.6-0.7-1.6-3 0-0.6 0.1-1.1 0-0.1 1-4.1l1-4.1q0.1-0.3-0.1-0.4-0.2 0-0.6 0-0.1 0-0.2 0-0.4 0-0.5-0.1-0.1-0.1 0-0.5 0.1-0.3 0.2-0.3 0-0.1 0.1-0.1zm4.9 7.2q0-1.6-1.2-1.6 0 0-0.1 0-0.1 0-0.1 0-1.1 0.2-2 1.5 0 0-0.1 0.1l-0.1 0.1q0 0-0.3 1.4-0.4 1.4-0.4 1.6-0.1 0.6-0.1 1.1 0 1 0.5 1.5 0.3 0.3 0.8 0.3 0.6 0 1.3-0.7 0.5-0.4 0.8-1.1 0.3-0.7 0.7-2.1 0.3-1.4 0.3-2.1z"/><path fill-rule="evenodd" class="d" d="m40.5 200.5c-22.1 0-40-17.9-40-40 0-22.1 17.9-40 40-40 22.1 0 40 17.9 40 40 0 22.1-17.9 40-40 40z"/><path  d="m43.8 152.2q0.3 0 0.6 0 0.4 0 0.6-0.1 0.2 0 0.2 0 0.3 0 0.3 0.2 0 0.1-1.5 6-1.5 5.9-1.5 6 0 0.1 0 0.3 0 0.9 0.5 0.9 0.2 0 0.4-0.2 0.5-0.4 0.9-1.9 0.1-0.4 0.2-0.4 0-0.1 0.2-0.1 0.4 0 0.4 0.2 0 0.1 0 0.3-0.5 1.7-1.1 2.3-0.3 0.3-0.7 0.5-0.1 0-0.4 0-1.3 0-1.8-1-0.1-0.2-0.1-0.2 0 0-0.1 0 0 0-0.1 0.1-0.9 0.9-1.9 1.1-0.1 0-0.5 0-1.3 0-2.1-1.1-0.6-0.9-0.6-2.2 0-1.9 1.3-3.7 1.3-1.5 2.8-1.9 0.4-0.1 0.8-0.1 1.1 0 1.7 0.8 0.1 0.1 0.1 0.1 0-0.1 0.5-2.2 0.6-2.1 0.6-2.2 0-0.3-0.1-0.3-0.3-0.1-0.8-0.1h-0.5q-0.1-0.2-0.1-0.2 0 0 0.1-0.4 0.1-0.4 0.2-0.4 0 0 0.2 0 0.2 0 0.6 0 0.3 0 0.7-0.1zm-1.8 7.3q-0.4-1.6-1.5-1.6-0.8 0-1.4 0.7-0.6 0.7-0.9 1.5-0.6 1.6-0.8 3.3 0 0.1 0 0.2 0 0.2 0 0.3 0 0.7 0.3 1.1 0.3 0.5 0.9 0.5 1 0 2.2-1.5l0.2-0.2q0.1-0.7 0.5-2.1 0.4-1.5 0.5-2.2z"/><path class="b" d="m132.2 252.2l-58.9-58.9"/><path class="c" d="m69.6 189.6l7.4 2.5-3.7 1.2-1.2 3.7z"/><path class="a" d="m92.6 227.5h9.2v-24.1h-9.2zm8.9 1.2h6v-14.1h-6z"/><path  d="m98.2 224.8q-0.4 0-1.1 0.1-0.6 0-1 0-0.3 0-0.3-0.2 0 0 0.1-0.1 0-0.1 0-0.2 0.1-0.3 0.1-0.4 0.1 0 0.4 0 1 0 1.2-0.2 0.1-0.1 0.6-1.8 0.4-1.6 0.4-1.6 0-0.1-0.2 0-0.7 0.6-1.5 0.8-0.1 0-0.5 0-1.3 0-2.1-1.1-0.6-0.9-0.6-2.2 0-0.4 0-0.5 0.1-1.3 0.8-2.4 0.7-1.2 1.7-1.9 1.1-0.9 2.4-0.9 1.1 0 1.8 1 0.5-0.5 0.7-0.6 0.7-0.4 0.9-0.4 0.2 0 0.2 0.1 0 0.2-1.4 5.7-1.4 5.7-1.4 5.8 0 0.1 0.7 0.2 0.1 0 0.2 0h0.5q0.1 0.1 0.1 0.1 0 0.1 0 0.4-0.1 0.3-0.2 0.4h-0.3q-0.6-0.1-2.2-0.1zm1.8-10.3q-0.4-1.6-1.5-1.6-0.8 0-1.4 0.7-0.6 0.7-0.9 1.5-0.6 1.6-0.8 3.3 0 0.1 0 0.2 0 0.2 0 0.3 0 0.7 0.3 1.1 0.3 0.5 0.9 0.5 1 0 2.2-1.5l0.2-0.2q0.1-0.7 0.5-2.1 0.4-1.5 0.5-2.2zm6.3 3.4q-0.2-0.3-0.7-0.3-0.8 0-1.3 0.7-0.6 0.7-0.6 2.3v0.1l0.1-0.2q0.5-0.7 1.3-0.7 0.5 0 1 0.3 0.2 0.1 0.5 0.4 0.3 0.3 0.5 0.7 0.2 0.6 0.2 1.2v0.2q0 0.3 0 0.5-0.2 0.7-0.8 1.3-0.5 0.6-1.1 0.7-0.2 0-0.5 0-0.2 0-0.3 0-0.9-0.2-1.4-0.9-0.7-1.1-0.7-3 0-1.2 0.4-2.2 0.5-0.9 1.3-1.4 0.6-0.5 1.3-0.5 0.7 0 1.1 0.4 0.4 0.3 0.4 1 0 0.3-0.1 0.4-0.2 0.2-0.5 0.2-0.3 0-0.4-0.2-0.2-0.1-0.2-0.4 0-0.5 0.5-0.6zm-0.5 2.8q-0.3-0.4-0.8-0.4-0.4 0-0.7 0.2-0.6 0.6-0.6 1.9 0 1 0.2 1.4 0.1 0.3 0.4 0.6 0.2 0.2 0.6 0.2 0.6 0 0.9-0.4 0.2-0.3 0.3-0.6 0-0.3 0-1v-0.2-0.1q0-0.7 0-1-0.1-0.4-0.3-0.6z"/><path fill-rule="evenodd" class="d" d="m160.5 320.5c-22.1 0-40-17.9-40-40 0-22.1 17.9-40 40-40 22.1 0 40 17.9 40 40 0 22.1-17.9 40-40 40z"/><path  d="m163.1 283.6q0.1 0 0.3 0.2 0.2 0.2 0.2 0.2 0 0.2-0.6 0.8-1.7 1.4-3.9 1.4-1.1 0-1.9-0.5-0.4-0.3-0.8-0.8-0.6-1-0.6-2.3 0-0.7 0.1-1.5 0.5-1.5 1.8-2.6 1.3-1.1 3.1-1.3 0 0 0.3 0h0.1q0.8 0 1.4 0.3 0.6 0.4 0.8 1 0 0.1 0 0.4 0 0.4 0 0.5-0.4 1.4-2.2 1.9-1 0.2-2.7 0.2-0.7 0-0.7 0.1 0 0-0.1 0.2-0.2 1-0.2 1.6 0 1 0.4 1.5 0.4 0.6 1.3 0.6 2.2 0 3.7-1.7 0.2-0.2 0.2-0.2zm-0.6-4.7q-0.2-1-1.4-1-0.7 0-1.4 0.4-1 0.6-1.5 1.8-0.2 0.6-0.2 0.7 0 0 0.4 0 0.6 0 1.2 0 1.2-0.1 1.8-0.4 0.5-0.2 0.9-0.8 0.2-0.3 0.2-0.7z"/><path class="b" d="m320.5 240.5v-153.6"/><path class="c" d="m320.5 81.6l3.5 7-3.5-1.7-3.5 1.7z"/><path class="a" d="m313.6 168.5h9.2v-24.1h-9.2zm8.9 1.2h6v-14.1h-6z"/><path  d="m319.2 165.8q-0.4 0-1.1 0.1-0.6 0-1 0-0.3 0-0.3-0.2 0 0 0.1-0.1 0-0.1 0-0.2 0.1-0.3 0.1-0.4 0.1 0 0.4 0 1 0 1.2-0.2 0.1-0.1 0.6-1.8 0.4-1.6 0.4-1.6 0-0.1-0.2 0-0.7 0.6-1.5 0.8-0.1 0-0.5 0-1.3 0-2.1-1.1-0.6-0.9-0.6-2.2 0-0.4 0-0.5 0.1-1.3 0.8-2.4 0.7-1.2 1.7-1.9 1.1-0.9 2.4-0.9 1.1 0 1.8 1 0.5-0.5 0.7-0.6 0.7-0.4 0.9-0.4 0.2 0 0.2 0.1 0 0.2-1.4 5.7-1.4 5.7-1.4 5.8 0 0.1 0.7 0.2 0.1 0 0.2 0h0.5q0.1 0.1 0.1 0.1 0 0.1 0 0.4-0.1 0.3-0.2 0.4h-0.3q-0.6-0.1-2.2-0.1zm1.8-10.3q-0.4-1.6-1.5-1.6-0.8 0-1.4 0.7-0.6 0.7-0.9 1.5-0.6 1.6-0.8 3.3 0 0.1 0 0.2 0 0.2 0 0.3 0 0.7 0.3 1.1 0.3 0.5 0.9 0.5 1 0 2.2-1.5l0.2-0.2q0.1-0.7 0.5-2.1 0.4-1.5 0.5-2.2zm2.6 5.1v-0.1q0.1 0 0.2-1.2l0.2-1.3q0 0 0.3 0h0.2q0 0.2 0.2 0.2 0.1 0.1 0.6 0.2 0.4 0 1.9 0h1.5v0.4l-0.8 1.1q-0.2 0.3-0.4 0.6-0.3 0.3-0.4 0.4-0.1 0.2-0.1 0.2-0.6 1-0.7 2.5-0.1 0.5-0.1 1.3 0 0.2 0 0.4 0 0.2 0 0.3v0.1q-0.1 0.2-0.2 0.3-0.2 0.1-0.4 0.1-0.3 0-0.5-0.1-0.1-0.2-0.1-0.6 0-0.2 0-0.6 0.2-1.6 1.1-3.2 0.2-0.4 1-1.4l0.5-0.8h-1.1q-2 0-2.1 0.1-0.1 0-0.1 0.3-0.1 0.2-0.2 0.5 0 0.2 0 0.2v0.1z"/><path class="b" d="m280.5 280.5h-73.6"/><path class="c" d="m201.6 280.5l7-3.5-1.7 3.5 1.7 3.5z"/><path class="a" d="m233.6 288.5h9.2v-24.1h-9.2zm8.9 1.2h6v-14.1h-6z"/><path  d="m239.2 285.8q-0.4 0-1.1 0.1-0.6 0-1 0-0.3 0-0.3-0.2 0 0 0.1-0.1 0-0.1 0-0.2 0.1-0.3 0.1-0.4 0.1 0 0.4 0 1 0 1.2-0.2 0.1-0.1 0.6-1.8 0.4-1.6 0.4-1.6 0-0.1-0.2 0-0.7 0.6-1.5 0.8-0.1 0-0.5 0-1.3 0-2.1-1.1-0.6-0.9-0.6-2.2 0-0.4 0-0.5 0.1-1.3 0.8-2.4 0.7-1.2 1.7-1.9 1.1-0.9 2.4-0.9 1.1 0 1.8 1 0.5-0.5 0.7-0.6 0.7-0.4 0.9-0.4 0.2 0 0.2 0.1 0 0.2-1.4 5.7-1.4 5.7-1.4 5.8 0 0.1 0.7 0.2 0.1 0 0.2 0h0.5q0.1 0.1 0.1 0.1 0 0.1 0 0.4-0.1 0.3-0.2 0.4h-0.3q-0.6-0.1-2.2-0.1zm1.8-10.3q-0.4-1.6-1.5-1.6-0.8 0-1.4 0.7-0.6 0.7-0.9 1.5-0.6 1.6-0.8 3.3 0 0.1 0 0.2 0 0.2 0 0.3 0 0.7 0.3 1.1 0.3 0.5 0.9 0.5 1 0 2.2-1.5l0.2-0.2q0.1-0.7 0.5-2.1 0.4-1.5 0.5-2.2zm3.4 3.2q0.6-0.6 1.5-0.6 0.8 0 1.4 0.4 0.5 0.4 0.7 1.1 0 0.1 0 0.3 0 0.5-0.3 0.9-0.3 0.4-1 0.9 0.2 0.1 0.3 0.2 0.5 0.3 0.7 0.5 0.2 0.2 0.4 0.6 0.2 0.4 0.2 0.9v0.1q0 0.2 0 0.4-0.2 0.7-0.9 1.2-0.6 0.5-1.5 0.5-0.9 0-1.6-0.5-0.6-0.4-0.8-1.2 0-0.1 0-0.3 0-0.8 0.5-1.3 0.4-0.5 0.9-0.8h0.2l-0.2-0.2q-0.3-0.2-0.5-0.3-0.3-0.3-0.4-0.5-0.2-0.5-0.2-0.9 0-0.8 0.6-1.4zm1.5-0.1q-0.5 0-1 0.3-0.4 0.3-0.4 0.8 0 0.4 0.3 0.7 0.1 0.1 0.9 0.6l0.6 0.4 0.1-0.1q0.6-0.4 0.8-0.9 0.1-0.2 0.1-0.5 0-0.2 0-0.3-0.1-0.4-0.5-0.7-0.4-0.3-0.9-0.3zm0 7q0.7 0 1.2-0.4 0.5-0.4 0.5-0.9 0-0.5-0.4-0.9-0.1-0.1-1-0.7-0.1-0.1-0.3-0.2-0.2-0.2-0.3-0.2l-0.1-0.1q-0.1 0-0.4 0.2-0.6 0.5-0.8 1.2-0.1 0.3-0.1 0.5 0 0.6 0.5 1.1 0.5 0.4 1.2 0.4z"/><path fill-rule="evenodd" class="d" d="m320.5 320.5c-22.1 0-40-17.9-40-40 0-22.1 17.9-40 40-40 22.1 0 40 17.9 40 40 0 22.1-17.9 40-40 40z"/><path  d="m317.5 289.1l-0.1 0.1q0.5 0.2 0.5 0.2 0.5 0 0.8-0.9 0.3-0.6 1.5-7.1 0.6-3 0.6-3v-0.1h-1q-0.9 0-1 0-0.1-0.1 0-0.5 0.1-0.3 0.1-0.3 0-0.1 0.2-0.1 0.1 0 0.9 0 1 0 1 0 0-0.1 0.1-1 0.2-1 0.3-1.2 0.4-1.9 1.2-2.6 0.8-0.7 1.7-0.7 0.7 0 1.2 0.4 0.5 0.4 0.5 1.1 0 0.6-0.4 1-0.3 0.4-0.9 0.4-0.8 0-0.8-0.9 0-0.7 0.7-1l0.1-0.1q-0.3-0.2-0.6-0.2-0.5 0-0.7 0.8-0.2 0.6-0.5 2.6l-0.3 1.3q0 0.1 1.1 0.1 0.9 0 1.1 0 0.2 0 0.2 0.1 0 0.3-0.2 0.7 0 0.1-0.2 0.1-0.1 0-1 0h-1.2l-0.4 2.4q-0.8 3.9-0.9 4.7-0.7 3-1.9 4.1-0.7 0.6-1.4 0.6-0.7 0-1.2-0.4-0.5-0.4-0.5-1.1 0-0.6 0.4-1 0.3-0.4 0.9-0.4 0.8 0 0.8 0.9 0 0.7-0.7 1z"/><path class="b" d="m412.2 188.8l-58.9 58.9"/><path class="c" d="m349.6 251.4l2.4-7.4 1.3 3.7 3.7 1.2z"/><path class="a" d="m373.6 228.5h9.2v-24.1h-9.2zm8.9 1.2h6v-14.1h-6z"/><path  d="m379.2 225.8q-0.4 0-1.1 0.1-0.6 0-1 0-0.3 0-0.3-0.2 0 0 0.1-0.1 0-0.1 0-0.2 0.1-0.3 0.1-0.4 0.1 0 0.4 0 1 0 1.2-0.2 0.1-0.1 0.6-1.8 0.4-1.6 0.4-1.6 0-0.1-0.2 0-0.7 0.6-1.5 0.8-0.1 0-0.5 0-1.3 0-2.1-1.1-0.6-0.9-0.6-2.2 0-0.4 0-0.5 0.1-1.3 0.8-2.4 0.7-1.2 1.7-1.9 1.1-0.9 2.4-0.9 1.1 0 1.8 1 0.5-0.5 0.7-0.6 0.7-0.4 0.9-0.4 0.2 0 0.2 0.1 0 0.2-1.4 5.7-1.4 5.7-1.4 5.8 0 0.1 0.7 0.2 0.1 0 0.2 0h0.5q0.1 0.1 0.1 0.1 0 0.1 0 0.4-0.1 0.3-0.2 0.4h-0.3q-0.6-0.1-2.2-0.1zm1.8-10.3q-0.4-1.6-1.5-1.6-0.8 0-1.4 0.7-0.6 0.7-0.9 1.5-0.6 1.6-0.8 3.3 0 0.1 0 0.2 0 0.2 0 0.3 0 0.7 0.3 1.1 0.3 0.5 0.9 0.5 1 0 2.2-1.5l0.2-0.2q0.1-0.7 0.5-2.1 0.4-1.5 0.5-2.2zm3.2 7.9q0.3 0 0.5 0.2 0.2 0.2 0.2 0.5 0 0.2-0.2 0.4-0.2 0.2-0.4 0.2h-0.1v0.1q0.2 0.3 0.6 0.6 0.3 0.2 0.8 0.2 0.8 0 1.2-0.7 0.2-0.4 0.2-1.5 0-1.2-0.3-1.6-0.3-0.4-0.7-0.4-0.9 0-1.4 0.8-0.1 0.1-0.1 0.1 0 0-0.2 0-0.2 0-0.2 0 0-0.1 0-2.1 0-0.3 0-0.8 0-0.5 0-0.6 0-0.7 0-0.7 0.1 0 0.1 0l0.2 0.1q0.8 0.3 1.5 0.3 0.9 0 1.6-0.3 0.1-0.1 0.2-0.1 0.1 0 0.1 0.2v0.2q-1 1.1-2.4 1.1-0.4 0-0.7-0.1h-0.1v2q0.7-0.5 1.4-0.5 0.2 0 0.5 0 0.7 0.2 1.2 0.9 0.5 0.7 0.5 1.6 0 1.1-0.7 1.9-0.7 0.7-1.8 0.7-0.8 0-1.3-0.4-0.2-0.1-0.4-0.4-0.3-0.4-0.4-1 0 0 0-0.1 0-0.1 0-0.1 0-0.3 0.2-0.5 0.2-0.2 0.4-0.2z"/><path fill-rule="evenodd" class="d" d="m440.5 200.5c-22.1 0-40-17.9-40-40 0-22.1 17.9-40 40-40 22.1 0 40 17.9 40 40 0 22.1-17.9 40-40 40z"/><path  d="m444.1 163.6q0.1 0 0.3 0.2 0.2 0.2 0.2 0.2 0 0.2-0.6 0.8-1.3 1.1-3.2 1.4-0.4 0-0.8 0-2.1 0-2.9-1.7-0.4-0.8-0.4-1.7 0-0.9 0.4-1.9 0.5-1.5 1.8-2.5 1.4-1.1 2.8-1.2 0.2 0 0.4 0 0.7 0 1.3 0.2 1.1 0.5 1.1 1.5 0 0.6-0.3 1-0.4 0.4-1 0.4-0.4 0-0.6-0.2-0.2-0.2-0.2-0.6 0-0.3 0.2-0.7 0.2-0.3 0.5-0.4 0.2-0.1 0.2-0.1 0.1 0-0.1-0.2-0.4-0.2-1.1-0.2-0.6 0-1.1 0.3-0.4 0.2-0.9 0.6-0.5 0.5-0.8 1.3-0.3 0.7-0.7 2-0.2 1-0.2 1.5 0 0.9 0.5 1.4 0.5 0.5 1.3 0.5 0.3 0 0.6-0.1 1.9-0.2 3.1-1.6 0.2-0.2 0.2-0.2z"/></svg>