<svg version="1.2" xmlns="http://www.w3.org/2000/svg" viewBox="0 0 481 321" width="481" height="321"><style>.a{fill:#fff}.b{fill:none;stroke:#000;stroke-miterlimit:10}.c{fill:#fff;stroke:#000}path:not([class]),path.a{scale:1.5;transform-origin:center;transform-box:border-box;}</style><path fill-rule="evenodd" class="a" d="m0 0h481v321h-481z"/><path fill-rule="evenodd" class="b" d="m68.8 132.2l63.4-63.4"/><path class="a" d="m98.3 106.6h5.6v-13.3h-5.6z"/><path  d="m99.4 97.9q-0.3 0-0.5-0.2-0.1-0.2-0.1-0.5 0-0.6 0.5-1 0.4-0.4 1.1-0.5h0.2q0.3 0 0.4 0 0.4 0.1 0.8 0.2 0.7 0.4 0.9 1.1 0 0.1 0 0.3 0 0.6-0.4 1.1-0.4 0.5-1 0.7 0 0.1 0 0.1 0 0 0.1 0 0.7 0.2 1.2 0.7 0.4 0.5 0.4 1.2 0 0.4-0.2 0.8-0.2 0.6-0.9 1-0.5 0.3-1.3 0.3-0.7 0-1.3-0.3-0.5-0.3-0.7-0.8-0.1-0.2-0.1-0.5 0-0.3 0.2-0.5 0.2-0.2 0.5-0.2 0.3 0 0.5 0.2 0.2 0.2 0.2 0.5 0 0.2-0.2 0.4-0.1 0.2-0.4 0.3 0.5 0.5 1.3 0.5 0.6 0 0.9-0.6 0.2-0.4 0.2-1.1v-0.2q0-1.1-0.7-1.4-0.2-0.1-0.7-0.1h-0.4l-0.1-0.1q0 0 0-0.1 0-0.2 0.1-0.2 0 0 0 0 0.3 0 0.7-0.1 0.4 0 0.7-0.5 0.2-0.5 0.2-1.2 0-0.7-0.3-0.9-0.3-0.2-0.6-0.2-0.5 0-0.9 0.3-0.1 0-0.1 0.1-0.1 0-0.1 0.1 0 0 0 0 0.2 0.1 0.4 0.3 0.1 0.1 0.1 0.4 0 0.2-0.1 0.4-0.2 0.2-0.5 0.2z"/><path fill-rule="evenodd" class="b" d="m80.5 160.5h40"/><path class="a" d="m98.3 166.6h5.6v-13.3h-5.6z"/><path  d="m99.2 158.3q-0.3 0-0.5-0.2-0.2-0.2-0.2-0.5 0-0.8 0.6-1.4 0.6-0.5 1.5-0.5 0.9 0 1.5 0.5 0.7 0.5 0.8 1.3 0 0.2 0 0.4 0 0.6-0.3 1.2-0.4 0.4-1.3 1.2-0.4 0.4-1.1 1.1l-0.6 0.6h0.8q1.7 0 1.8-0.1 0.1 0 0.1-0.2 0.1-0.1 0.2-0.7v-0.1h0.4v0.1l-0.3 2h-4.1v-0.2q0-0.2 0.1-0.3 0 0 0.9-1 1.2-1.3 1.5-1.8 0.8-1 0.8-1.8 0-0.7-0.4-1.2-0.4-0.5-1.1-0.5-0.6 0-1 0.6 0 0-0.1 0.1 0 0 0 0 0 0.1 0.1 0.1 0.2 0 0.4 0.2 0.2 0.2 0.2 0.4 0 0.3-0.2 0.5-0.2 0.2-0.5 0.2z"/><path fill-rule="evenodd" class="c" d="m40.5 200.5c-22.1 0-40-17.9-40-40 0-22.1 17.9-40 40-40 22.1 0 40 17.9 40 40 0 22.1-17.9 40-40 40z"/><path  d="m35.9 160.7h-0.2q-0.1-0.1-0.1-0.2 0.1-0.3 0.4-0.8 0.6-0.8 1.4-1 0.2 0 0.3 0 0.4 0 0.7 0.2 0.4 0.2 0.5 0.6 0.2-0.3 0.2-0.3 0.5-0.5 1.1-0.5 0.5 0 0.8 0.3 0.3 0.3 0.3 0.7 0 0.3-0.3 0.6-0.2 0.2-0.5 0.2-0.2 0-0.4-0.1-0.1-0.1-0.1-0.3 0-0.6 0.6-0.8 0 0-0.2-0.1-0.1 0-0.3 0-0.2 0-0.2 0-0.5 0.2-0.7 0.8 0 0.1-0.3 1.3-0.4 1.2-0.4 1.4 0 0.2 0 0.4 0 0.3 0.1 0.4 0.2 0.2 0.5 0.2 0.5 0 0.9-0.4 0.4-0.5 0.6-1 0-0.1 0-0.1 0.1 0 0.2 0 0.2 0 0.2 0.1 0 0 0 0.1-0.2 0.7-0.8 1.3-0.6 0.4-1.2 0.4-0.8 0-1.3-0.7-0.3 0.5-0.9 0.7-0.1 0-0.3 0-0.7 0-1-0.5-0.1-0.2-0.1-0.5 0-0.3 0.2-0.6 0.3-0.2 0.6-0.2 0.5 0 0.5 0.5 0 0.4-0.4 0.6 0 0-0.1 0.1 0 0 0 0-0.1 0-0.1 0 0 0.1 0.2 0.1 0.1 0.1 0.3 0.1 0.4 0 0.7-0.6 0.2-0.2 0.5-1.5 0.1-0.3 0.2-0.6 0-0.4 0.1-0.5 0-0.2 0-0.3 0.1-0.3 0.1-0.4 0-0.3-0.2-0.5-0.1-0.1-0.4-0.1-0.5 0-0.9 0.4-0.4 0.4-0.6 0.9 0 0.1 0 0.2-0.1 0-0.2 0zm9.1 5.6h-0.1q-0.1 0-1.1 0-1 0-1.1 0h-0.1v-0.3h0.2q0.4 0 0.5 0 0.1 0 0.2-0.1v-3.6q0 0-0.1 0-0.3 0.1-0.7 0.1h-0.1v-0.3h0.1q0.6 0 1-0.2 0.1-0.1 0.2-0.2 0 0 0.1 0 0.1 0 0.1 0v2.1 2.1q0.1 0.1 0.5 0.1h0.2 0.2z"/><path fill-rule="evenodd" class="b" d="m200.5 40.5h80"/><path class="a" d="m237.3 47.6h5.6v-13.3h-5.7z"/><path  d="m242.2 44h-0.1q-0.2 0-1.4 0-1.4 0-1.5 0h-0.1v-0.5h0.3q0.5 0 0.6-0.1 0.1 0 0.1-0.1 0.1 0 0.1-0.6v-0.5h-2.9v-0.5l1.7-2.6q1.7-2.5 1.7-2.5 0 0 0.2 0h0.2 0.1v5.1h1v0.5h-1v0.5q0 0.5 0 0.6 0 0.1 0 0.1 0.1 0.1 0.7 0.1h0.3zm-3.2-2.3h1.2v-3.7l-2.4 3.7z"/><path fill-rule="evenodd" class="c" d="m160.5 80.5c-22.1 0-40-17.9-40-40 0-22.1 17.9-40 40-40 22.1 0 40 17.9 40 40 0 22.1-17.9 40-40 40z"/><path  d="m155.9 40.7h-0.2q-0.1-0.1-0.1-0.2 0.1-0.3 0.4-0.8 0.6-0.8 1.4-1 0.2 0 0.3 0 0.4 0 0.7 0.2 0.4 0.2 0.5 0.6 0.2-0.3 0.2-0.3 0.5-0.5 1.1-0.5 0.5 0 0.8 0.3 0.3 0.3 0.3 0.7 0 0.3-0.3 0.6-0.2 0.2-0.5 0.2-0.2 0-0.4-0.1-0.1-0.1-0.1-0.3 0-0.6 0.6-0.8 0 0-0.2-0.1-0.1 0-0.3 0-0.2 0-0.2 0-0.5 0.2-0.7 0.8 0 0.1-0.3 1.3-0.4 1.2-0.4 1.4 0 0.2 0 0.4 0 0.3 0.1 0.4 0.2 0.2 0.5 0.2 0.5 0 0.9-0.4 0.4-0.5 0.6-1 0-0.1 0-0.1 0.1 0 0.2 0 0.2 0 0.2 0.1 0 0 0 0.1-0.2 0.7-0.8 1.3-0.6 0.4-1.2 0.4-0.8 0-1.3-0.7-0.3 0.5-0.9 0.7-0.1 0-0.3 0-0.7 0-1-0.5-0.1-0.2-0.1-0.5 0-0.3 0.2-0.6 0.3-0.2 0.6-0.2 0.5 0 0.5 0.5 0 0.4-0.4 0.6 0 0-0.1 0.1 0 0 0 0-0.1 0-0.1 0 0 0.1 0.2 0.1 0.1 0.1 0.3 0.1 0.4 0 0.7-0.6 0.2-0.2 0.5-1.5 0.1-0.3 0.2-0.6 0-0.4 0.1-0.5 0-0.2 0-0.3 0.1-0.3 0.1-0.4 0-0.3-0.2-0.5-0.1-0.1-0.4-0.1-0.5 0-0.9 0.4-0.4 0.4-0.6 0.9 0 0.1 0 0.2-0.1 0-0.2 0zm6.9 2.6q-0.2 0-0.3-0.1-0.2-0.1-0.2-0.3 0-0.5 0.4-0.9 0.4-0.3 0.9-0.3 0.6 0 1 0.3 0.4 0.3 0.5 0.8 0 0.2 0 0.3 0 0.4-0.2 0.7-0.2 0.3-0.8 0.8-0.2 0.3-0.7 0.7l-0.4 0.4h0.5q1.1 0 1.2 0 0-0.1 0.1-0.2 0-0.1 0.1-0.5h0.2l-0.2 1.3h-2.6v-0.1q0-0.1 0.1-0.2 0 0 0.6-0.6 0.7-0.9 0.9-1.1 0.5-0.7 0.5-1.2 0-0.5-0.2-0.8-0.3-0.3-0.7-0.3-0.4 0-0.7 0.4 0 0 0 0 0 0.1 0 0.1 0 0 0 0 0.2 0 0.3 0.1 0.1 0.1 0.1 0.3 0 0.2-0.1 0.3-0.1 0.1-0.3 0.1z"/><path fill-rule="evenodd" class="b" d="m348.8 68.8l63.4 63.4"/><path class="a" d="m375.3 104.6h5.6v-13.3h-5.7z"/><path  d="m376.2 96.3q-0.3 0-0.5-0.2-0.1-0.2-0.1-0.5 0-0.8 0.5-1.4 0.6-0.5 1.5-0.5 0.9 0 1.5 0.5 0.7 0.5 0.8 1.3 0 0.2 0 0.4 0 0.6-0.3 1.2-0.4 0.4-1.3 1.2-0.4 0.4-1.1 1.1l-0.6 0.6h0.8q1.7 0 1.8-0.1 0.1 0 0.1-0.2 0.1-0.1 0.2-0.7v-0.1h0.4v0.1l-0.3 2h-4v-0.2q0-0.2 0-0.3 0 0 0.9-1 1.2-1.3 1.5-1.8 0.8-1 0.8-1.8 0-0.7-0.4-1.2-0.4-0.5-1.1-0.5-0.6 0-1 0.6 0 0-0.1 0.1 0 0 0 0.1 0 0 0.1 0 0.2 0 0.4 0.2 0.2 0.2 0.2 0.4 0 0.3-0.2 0.5-0.2 0.2-0.5 0.2z"/><path fill-rule="evenodd" class="c" d="m320.5 80.5c-22.1 0-40-17.9-40-40 0-22.1 17.9-40 40-40 22.1 0 40 17.9 40 40 0 22.1-17.9 40-40 40z"/><path  d="m315.9 40.7h-0.2q-0.1-0.1-0.1-0.2 0.1-0.3 0.4-0.8 0.6-0.8 1.4-1 0.2 0 0.3 0 0.4 0 0.7 0.2 0.4 0.2 0.5 0.6 0.2-0.3 0.2-0.3 0.5-0.5 1.1-0.5 0.5 0 0.8 0.3 0.3 0.3 0.3 0.7 0 0.3-0.3 0.6-0.2 0.2-0.5 0.2-0.2 0-0.4-0.1-0.1-0.1-0.1-0.3 0-0.6 0.6-0.8 0 0-0.2-0.1-0.1 0-0.3 0-0.2 0-0.2 0-0.5 0.2-0.7 0.8 0 0.1-0.3 1.3-0.4 1.2-0.4 1.4 0 0.2 0 0.4 0 0.3 0.1 0.4 0.2 0.2 0.5 0.2 0.5 0 0.9-0.4 0.4-0.5 0.6-1 0-0.1 0-0.1 0.1 0 0.2 0 0.2 0 0.2 0.1 0 0 0 0.1-0.2 0.7-0.8 1.3-0.6 0.4-1.2 0.4-0.8 0-1.3-0.7-0.3 0.5-0.9 0.7-0.1 0-0.3 0-0.7 0-1-0.5-0.1-0.2-0.1-0.5 0-0.3 0.2-0.6 0.3-0.2 0.6-0.2 0.5 0 0.5 0.5 0 0.4-0.4 0.6 0 0-0.1 0.1 0 0 0 0-0.1 0-0.1 0 0 0.1 0.2 0.1 0.1 0.1 0.3 0.1 0.4 0 0.7-0.6 0.2-0.2 0.5-1.5 0.1-0.3 0.2-0.6 0-0.4 0.1-0.5 0-0.2 0-0.3 0.1-0.3 0.1-0.4 0-0.3-0.2-0.5-0.1-0.1-0.4-0.1-0.5 0-0.9 0.4-0.4 0.4-0.6 0.9 0 0.1 0 0.2-0.1 0-0.2 0zm7 2.4q-0.2 0-0.3-0.1-0.1-0.1-0.1-0.3 0-0.4 0.3-0.7 0.3-0.3 0.7-0.3h0.1q0.3 0 0.3 0 0.3 0 0.5 0.1 0.5 0.3 0.6 0.7 0 0.1 0 0.2 0 0.4-0.3 0.7-0.2 0.3-0.6 0.5 0 0 0 0 0 0 0.1 0 0.4 0.1 0.7 0.5 0.3 0.3 0.3 0.7 0 0.3-0.1 0.6-0.2 0.3-0.6 0.6-0.4 0.2-0.8 0.2-0.5 0-0.9-0.2-0.3-0.2-0.4-0.5-0.1-0.2-0.1-0.4 0-0.2 0.1-0.3 0.2-0.1 0.3-0.1 0.2 0 0.4 0.1 0.1 0.1 0.1 0.3 0 0.2-0.1 0.3-0.1 0.1-0.3 0.2 0.4 0.3 0.9 0.3 0.3 0 0.5-0.4 0.2-0.2 0.2-0.7v-0.1q0-0.7-0.5-0.9-0.1-0.1-0.4-0.1h-0.3q0 0 0-0.1 0-0.1 0-0.1 0 0 0 0 0.2 0 0.4-0.1 0.3 0 0.5-0.3 0.2-0.3 0.2-0.7 0-0.5-0.3-0.7-0.1 0-0.3 0-0.4 0-0.6 0.1-0.1 0.1-0.1 0.1 0 0-0.1 0v0.1q0 0 0.1 0 0.1 0 0.2 0.1 0.1 0.1 0.1 0.3 0 0.2-0.1 0.3-0.1 0.1-0.3 0.1z"/><path fill-rule="evenodd" class="b" d="m160.5 120.5v-40"/><path class="a" d="m160.3 105.6h5.6v-13.3h-5.7z"/><path  d="m164.7 102h-0.1q-0.2 0-1.8 0-1.5 0-1.7 0h-0.1v-0.5h0.3q0.6 0 0.8 0 0.1 0 0.2-0.2v-5.7q0 0 0 0.1-0.6 0.2-1.2 0.2h-0.2v-0.5h0.2q0.9-0.1 1.6-0.4 0.2-0.2 0.3-0.3 0 0 0.1 0 0.1 0 0.2 0v3.3 3.3q0.2 0.2 0.7 0.2h0.4 0.3z"/><path fill-rule="evenodd" class="c" d="m160.5 200.5c-22.1 0-40-17.9-40-40 0-22.1 17.9-40 40-40 22.1 0 40 17.9 40 40 0 22.1-17.9 40-40 40z"/><path  d="m155.9 160.7h-0.2q-0.1-0.1-0.1-0.2 0.1-0.3 0.4-0.8 0.6-0.8 1.4-1 0.2 0 0.3 0 0.4 0 0.7 0.2 0.4 0.2 0.5 0.6 0.2-0.3 0.2-0.3 0.5-0.5 1.1-0.5 0.5 0 0.8 0.3 0.3 0.3 0.3 0.7 0 0.3-0.3 0.6-0.2 0.2-0.5 0.2-0.2 0-0.4-0.1-0.1-0.1-0.1-0.3 0-0.6 0.6-0.8 0 0-0.2-0.1-0.1 0-0.3 0-0.2 0-0.2 0-0.5 0.2-0.7 0.8 0 0.1-0.3 1.3-0.4 1.2-0.4 1.4 0 0.2 0 0.4 0 0.3 0.1 0.4 0.2 0.2 0.5 0.2 0.5 0 0.9-0.4 0.4-0.5 0.6-1 0-0.1 0-0.1 0.1 0 0.2 0 0.2 0 0.2 0.1 0 0 0 0.1-0.2 0.7-0.8 1.3-0.6 0.4-1.2 0.4-0.8 0-1.3-0.7-0.3 0.5-0.9 0.7-0.1 0-0.3 0-0.7 0-1-0.5-0.1-0.2-0.1-0.5 0-0.3 0.2-0.6 0.3-0.2 0.6-0.2 0.5 0 0.5 0.5 0 0.4-0.4 0.6 0 0-0.1 0.1 0 0 0 0-0.1 0-0.1 0 0 0.1 0.2 0.1 0.1 0.1 0.3 0.1 0.4 0 0.7-0.6 0.2-0.2 0.5-1.5 0.1-0.3 0.2-0.6 0-0.4 0.1-0.5 0-0.2 0-0.3 0.1-0.3 0.1-0.4 0-0.3-0.2-0.5-0.1-0.1-0.4-0.1-0.5 0-0.9 0.4-0.4 0.4-0.6 0.9 0 0.1 0 0.2-0.1 0-0.2 0zm9.4 5.6h-0.1q-0.1 0-0.9 0-0.8 0-0.9 0h-0.1v-0.3h0.2q0.3 0 0.4 0 0.1 0 0.1-0.1 0 0 0-0.4v-0.3h-1.8v-0.3l1.1-1.7q1-1.6 1-1.6 0.1 0 0.2 0h0.1 0.1v3.3h0.6v0.3h-0.6v0.3q0 0.3 0 0.4 0 0 0 0.1 0 0 0.4 0h0.2zm-2-1.5h0.7v-2.3l-1.5 2.3z"/><path fill-rule="evenodd" class="b" d="m132.2 252.2l-63.4-63.4"/><path class="a" d="m97.3 227.6h5.6v-13.3h-5.6z"/><path  d="m102.2 224h-0.1q-0.2 0-1.4 0-1.4 0-1.5 0h-0.1v-0.5h0.3q0.5 0 0.6-0.1 0.1 0 0.1-0.1 0.1 0 0.1-0.6v-0.5h-2.9v-0.5l1.7-2.6q1.7-2.5 1.7-2.5 0 0 0.2 0h0.2 0.1v5.1h1v0.5h-1v0.5q0 0.5 0 0.6 0 0.1 0 0.1 0.1 0.1 0.7 0.1h0.3zm-3.2-2.3h1.2v-3.7l-2.4 3.7z"/><path fill-rule="evenodd" class="b" d="m192.5 256.5l96-72"/><path class="a" d="m240.3 225.6h5.6v-13.3h-5.7z"/><path  d="m244.7 222h-0.1q-0.2 0-1.8 0-1.5 0-1.7 0h-0.1v-0.5h0.3q0.6 0 0.8 0 0.1-0.1 0.2-0.2v-5.7q0 0 0 0.1-0.6 0.2-1.2 0.2h-0.2v-0.5h0.2q0.9-0.1 1.6-0.4 0.2-0.2 0.3-0.3 0 0 0.1 0 0.1 0 0.2 0v3.3 3.3q0.2 0.2 0.7 0.2h0.4 0.3z"/><path fill-rule="evenodd" class="c" d="m160.5 320.5c-22.1 0-40-17.9-40-40 0-22.1 17.9-40 40-40 22.1 0 40 17.9 40 40 0 22.1-17.9 40-40 40z"/><path  d="m155.9 280.7h-0.2q-0.1-0.1-0.1-0.2 0.1-0.3 0.4-0.8 0.6-0.8 1.4-1 0.2 0 0.3 0 0.4 0 0.7 0.2 0.4 0.2 0.5 0.6 0.2-0.3 0.2-0.3 0.5-0.5 1.1-0.5 0.5 0 0.8 0.3 0.3 0.3 0.3 0.7 0 0.3-0.3 0.6-0.2 0.2-0.5 0.2-0.2 0-0.4-0.1-0.1-0.1-0.1-0.3 0-0.6 0.6-0.8 0 0-0.2-0.1-0.1 0-0.3 0-0.2 0-0.2 0-0.5 0.2-0.7 0.8 0 0.1-0.3 1.3-0.4 1.2-0.4 1.4 0 0.2 0 0.4 0 0.3 0.1 0.4 0.2 0.2 0.5 0.2 0.5 0 0.9-0.4 0.4-0.5 0.6-1 0-0.1 0-0.1 0.1 0 0.2 0 0.2 0 0.2 0.1 0 0 0 0.1-0.2 0.7-0.8 1.3-0.6 0.4-1.2 0.4-0.8 0-1.3-0.7-0.3 0.5-0.9 0.7-0.1 0-0.3 0-0.7 0-1-0.5-0.1-0.2-0.1-0.5 0-0.3 0.2-0.6 0.3-0.2 0.6-0.2 0.5 0 0.5 0.5 0 0.4-0.4 0.6 0 0-0.1 0.1 0 0 0 0-0.1 0-0.1 0 0 0.1 0.2 0.1 0.1 0.1 0.3 0.1 0.4 0 0.7-0.6 0.2-0.2 0.5-1.5 0.1-0.3 0.2-0.6 0-0.4 0.1-0.5 0-0.2 0-0.3 0.1-0.3 0.1-0.4 0-0.3-0.2-0.5-0.1-0.1-0.4-0.1-0.5 0-0.9 0.4-0.4 0.4-0.6 0.9 0 0.1 0 0.2-0.1 0-0.2 0zm6.8 4.1q0.2 0 0.3 0.2 0.1 0.1 0.1 0.2 0 0.2-0.1 0.3-0.1 0.1-0.2 0.1h-0.1v0.1q0.1 0.2 0.4 0.3 0.2 0.2 0.5 0.2 0.5 0 0.7-0.4 0.1-0.3 0.1-0.9 0-0.8-0.2-1-0.2-0.2-0.4-0.2-0.6 0-0.8 0.4-0.1 0.1-0.1 0.1 0 0-0.1 0-0.1 0-0.1 0 0-0.1 0-1.3 0-0.2-0.1-0.5 0-0.2 0-0.3 0-0.4 0.1-0.4 0 0 0 0h0.1q0.5 0.2 1 0.2 0.5 0 0.9-0.2 0.1 0 0.1 0 0.1 0 0.1 0.1v0.1q-0.6 0.7-1.5 0.7-0.2 0-0.4-0.1v1.2q0.4-0.3 0.8-0.3 0.1 0 0.3 0 0.4 0.1 0.7 0.6 0.3 0.4 0.3 0.9 0 0.7-0.4 1.1-0.4 0.5-1.1 0.5-0.4 0-0.7-0.3-0.2 0-0.3-0.2-0.2-0.2-0.2-0.6 0 0-0.1-0.1 0 0 0 0 0-0.2 0.2-0.4 0.1-0.1 0.2-0.1z"/><path fill-rule="evenodd" class="b" d="m280.5 160.5h-80"/><path class="a" d="m241.3 167.6h5.6v-13.3h-5.7z"/><path  d="m241.6 159q0-0.1 0.2-1.2l0.2-1.2q0 0 0.2 0h0.2q0 0.1 0.2 0.2 0.1 0.1 0.5 0.1 0.5 0 1.9 0h1.3v0.4l-0.7 1.1q-0.2 0.2-0.4 0.5-0.2 0.3-0.3 0.4-0.1 0.2-0.1 0.2-0.6 0.9-0.7 2.4-0.1 0.4-0.1 1.2 0 0.2 0 0.3 0 0.2 0 0.3v0.1q0 0.2-0.2 0.3-0.2 0.1-0.4 0.1-0.2 0-0.4-0.1-0.2-0.2-0.2-0.5 0-0.2 0.1-0.7 0.2-1.5 1-2.9 0.2-0.4 0.9-1.4l0.5-0.7h-1q-1.9 0-2 0.1 0 0-0.1 0.2-0.1 0.3-0.1 0.6 0 0.1-0.1 0.2z"/><path fill-rule="evenodd" class="c" d="m320.5 200.5c-22.1 0-40-17.9-40-40 0-22.1 17.9-40 40-40 22.1 0 40 17.9 40 40 0 22.1-17.9 40-40 40z"/><path  d="m315.9 160.7h-0.2q-0.1-0.1-0.1-0.2 0.1-0.3 0.4-0.8 0.6-0.8 1.4-1 0.2 0 0.3 0 0.4 0 0.7 0.2 0.4 0.2 0.5 0.6 0.2-0.3 0.2-0.3 0.5-0.5 1.1-0.5 0.5 0 0.8 0.3 0.3 0.3 0.3 0.7 0 0.3-0.3 0.6-0.2 0.2-0.5 0.2-0.2 0-0.4-0.1-0.1-0.1-0.1-0.3 0-0.6 0.6-0.8 0 0-0.2-0.1-0.1 0-0.3 0-0.2 0-0.2 0-0.5 0.2-0.7 0.8 0 0.1-0.3 1.3-0.4 1.2-0.4 1.4 0 0.2 0 0.4 0 0.3 0.1 0.4 0.2 0.2 0.5 0.2 0.5 0 0.9-0.4 0.4-0.5 0.6-1 0-0.1 0-0.1 0.1 0 0.2 0 0.2 0 0.2 0.1 0 0 0 0.1-0.2 0.7-0.8 1.3-0.6 0.4-1.2 0.4-0.8 0-1.3-0.7-0.3 0.5-0.9 0.7-0.1 0-0.3 0-0.7 0-1-0.5-0.1-0.2-0.1-0.5 0-0.3 0.2-0.6 0.3-0.2 0.6-0.2 0.5 0 0.5 0.5 0 0.4-0.4 0.6 0 0-0.1 0.1 0 0 0 0-0.1 0-0.1 0 0 0.1 0.2 0.1 0.1 0.1 0.3 0.1 0.4 0 0.7-0.6 0.2-0.2 0.5-1.5 0.1-0.3 0.2-0.6 0-0.4 0.1-0.5 0-0.2 0-0.3 0.1-0.3 0.1-0.4 0-0.3-0.2-0.5-0.1-0.1-0.4-0.1-0.5 0-0.9 0.4-0.4 0.4-0.6 0.9 0 0.1 0 0.2-0.1 0-0.2 0zm8.7 1.4q-0.1-0.1-0.4-0.1-0.5 0-0.8 0.4-0.4 0.4-0.4 1.4l0.1-0.1q0.3-0.4 0.8-0.4 0.3 0 0.5 0.1 0.2 0.1 0.4 0.3 0.1 0.2 0.2 0.4 0.2 0.4 0.2 0.8v0.1q0 0.1 0 0.3-0.1 0.4-0.5 0.8-0.3 0.3-0.7 0.4-0.1 0-0.2 0-0.2 0-0.3 0-0.5-0.1-0.8-0.6-0.4-0.6-0.4-1.8 0-0.7 0.3-1.3 0.2-0.5 0.7-0.9 0.4-0.2 0.8-0.2 0.4 0 0.7 0.2 0.2 0.2 0.2 0.6 0 0.2-0.1 0.3-0.1 0.1-0.2 0.1-0.2 0-0.3-0.1-0.1-0.1-0.1-0.3 0-0.3 0.3-0.4zm-0.3 1.7q-0.2-0.2-0.5-0.2-0.3 0-0.4 0.1-0.4 0.4-0.4 1.1 0 0.6 0.1 0.9 0.1 0.2 0.3 0.3 0.1 0.2 0.4 0.2 0.3 0 0.5-0.3 0.1-0.1 0.1-0.3 0.1-0.2 0.1-0.6v-0.1-0.1q0-0.4-0.1-0.6 0-0.2-0.1-0.4z"/><path fill-rule="evenodd" class="b" d="m280.5 280.5h-80"/><path class="a" d="m236.3 287.6h5.6v-13.3h-5.7z"/><path  d="m241.2 284h-0.1q-0.2 0-1.4 0-1.4 0-1.5 0h-0.1v-0.5h0.3q0.5 0 0.6-0.1 0.1 0 0.1-0.1 0.1 0 0.1-0.6v-0.5h-2.9v-0.5l1.7-2.6q1.7-2.5 1.7-2.5 0 0 0.2 0h0.2 0.1v5.1h1v0.5h-1v0.5q0 0.5 0 0.6 0 0.1 0 0.1 0.1 0.1 0.7 0.1h0.3zm-3.2-2.3h1.2v-3.7l-2.4 3.7z"/><path fill-rule="evenodd" class="b" d="m320.5 241v-41"/><path class="a" d="m317.3 227.6h5.6v-13.3h-5.7z"/><path  d="m322.2 224h-0.1q-0.2 0-1.4 0-1.4 0-1.5 0h-0.1v-0.5h0.3q0.5 0 0.6-0.1 0.1 0 0.1-0.1 0.1 0 0.1-0.6v-0.5h-2.9v-0.5l1.7-2.6q1.7-2.5 1.7-2.5 0 0 0.2 0h0.2 0.1v5.1h1v0.5h-1v0.5q0 0.5 0 0.6 0 0.1 0 0.1 0.1 0.1 0.7 0.1h0.3zm-3.2-2.3h1.2v-3.7l-2.4 3.7z"/><path fill-rule="evenodd" class="c" d="m320.5 320.5c-22.1 0-40-17.9-40-40 0-22.1 17.9-40 40-40 22.1 0 40 17.9 40 40 0 22.1-17.9 40-40 40z"/><path  d="m315.9 280.7h-0.2q-0.1-0.1-0.1-0.2 0.1-0.3 0.4-0.8 0.6-0.8 1.4-1 0.2 0 0.3 0 0.4 0 0.7 0.2 0.4 0.2 0.5 0.6 0.2-0.3 0.2-0.3 0.5-0.5 1.1-0.5 0.5 0 0.8 0.3 0.3 0.3 0.3 0.7 0 0.3-0.3 0.6-0.2 0.2-0.5 0.2-0.2 0-0.4-0.1-0.1-0.1-0.1-0.3 0-0.6 0.6-0.8 0 0-0.2-0.1-0.1 0-0.3 0-0.2 0-0.2 0-0.5 0.2-0.7 0.8 0 0.1-0.3 1.3-0.4 1.2-0.4 1.4 0 0.2 0 0.4 0 0.3 0.1 0.4 0.2 0.2 0.5 0.2 0.5 0 0.9-0.4 0.4-0.5 0.6-1 0-0.1 0-0.1 0.1 0 0.2 0 0.2 0 0.2 0.1 0 0 0 0.1-0.2 0.7-0.8 1.3-0.6 0.4-1.2 0.4-0.8 0-1.3-0.7-0.3 0.5-0.9 0.7-0.1 0-0.3 0-0.7 0-1-0.5-0.1-0.2-0.1-0.5 0-0.3 0.2-0.6 0.3-0.2 0.6-0.2 0.5 0 0.5 0.5 0 0.4-0.4 0.6 0 0-0.1 0.1 0 0 0 0-0.1 0-0.1 0 0 0.1 0.2 0.1 0.1 0.1 0.3 0.1 0.4 0 0.7-0.6 0.2-0.2 0.5-1.5 0.1-0.3 0.2-0.6 0-0.4 0.1-0.5 0-0.2 0-0.3 0.1-0.3 0.1-0.4 0-0.3-0.2-0.5-0.1-0.1-0.4-0.1-0.5 0-0.9 0.4-0.4 0.4-0.6 0.9 0 0.1 0 0.2-0.1 0-0.2 0zm6.5 2.4q0 0 0.1-0.7l0.1-0.8q0 0 0.2 0h0.1q0 0.1 0.1 0.1 0.1 0.1 0.4 0.1 0.2 0 1.1 0h0.9v0.3l-0.5 0.6q-0.1 0.2-0.2 0.4-0.2 0.2-0.2 0.2-0.1 0.1-0.1 0.2-0.4 0.5-0.4 1.5-0.1 0.3-0.1 0.8 0 0.1 0 0.2 0 0.1 0 0.1v0.1q0 0.1-0.1 0.2-0.1 0.1-0.3 0.1-0.1 0-0.2-0.1-0.1-0.1-0.1-0.4 0-0.1 0-0.3 0.1-1 0.7-1.9 0.1-0.3 0.5-0.9l0.4-0.4h-0.7q-1.2 0-1.3 0 0 0 0 0.2-0.1 0.1-0.1 0.3 0 0.1 0 0.1z"/><path fill-rule="evenodd" class="b" d="m412.2 188.8l-63.4 63.4"/><path class="a" d="m378.3 227.6h5.6v-13.3h-5.7z"/><path  d="m379.4 218.9q-0.3 0-0.5-0.2-0.1-0.2-0.1-0.5 0-0.6 0.5-1 0.4-0.4 1.1-0.5h0.2q0.3 0 0.4 0 0.4 0.1 0.8 0.2 0.7 0.4 0.9 1.1 0 0.1 0 0.3 0 0.6-0.4 1.1-0.4 0.5-1 0.7 0 0.1 0 0.1 0 0 0.1 0 0.7 0.2 1.2 0.7 0.4 0.5 0.4 1.2 0 0.4-0.2 0.8-0.2 0.6-0.9 1-0.5 0.3-1.3 0.3-0.7 0-1.3-0.3-0.5-0.3-0.7-0.8-0.1-0.2-0.1-0.5 0-0.3 0.2-0.5 0.2-0.2 0.5-0.2 0.3 0 0.5 0.2 0.2 0.2 0.2 0.5 0 0.2-0.2 0.4-0.1 0.2-0.4 0.3 0.5 0.5 1.3 0.5 0.6 0 0.9-0.6 0.2-0.4 0.2-1.1v-0.2q0-1.1-0.7-1.4-0.2-0.1-0.7-0.1h-0.4l-0.1-0.1q0 0 0-0.1 0-0.2 0.1-0.2 0 0 0 0 0.3 0 0.7-0.1 0.4 0 0.7-0.5 0.2-0.5 0.2-1.2 0-0.7-0.3-0.9-0.3-0.2-0.6-0.2-0.5 0-0.9 0.3-0.1 0-0.1 0.1-0.1 0-0.1 0.1 0 0 0 0 0.2 0.1 0.4 0.3 0.1 0.1 0.1 0.4 0 0.2-0.1 0.4-0.2 0.2-0.5 0.2z"/><path fill-rule="evenodd" class="c" d="m440.5 200.5c-22.1 0-40-17.9-40-40 0-22.1 17.9-40 40-40 22.1 0 40 17.9 40 40 0 22.1-17.9 40-40 40z"/><path  d="m435.9 160.7h-0.2q-0.1-0.1-0.1-0.2 0.1-0.3 0.4-0.8 0.6-0.8 1.4-1 0.2 0 0.3 0 0.4 0 0.7 0.2 0.4 0.2 0.5 0.6 0.2-0.3 0.2-0.3 0.5-0.5 1.1-0.5 0.5 0 0.8 0.3 0.3 0.3 0.3 0.7 0 0.3-0.3 0.6-0.2 0.2-0.5 0.2-0.2 0-0.4-0.1-0.1-0.1-0.1-0.3 0-0.6 0.6-0.8 0 0-0.2-0.1-0.1 0-0.3 0-0.2 0-0.2 0-0.5 0.2-0.7 0.8 0 0.1-0.3 1.3-0.4 1.2-0.4 1.4 0 0.2 0 0.4 0 0.3 0.1 0.4 0.2 0.2 0.5 0.2 0.5 0 0.9-0.4 0.4-0.5 0.6-1 0-0.1 0-0.1 0.1 0 0.2 0 0.2 0 0.2 0.1 0 0 0 0.1-0.2 0.7-0.8 1.3-0.6 0.4-1.2 0.4-0.8 0-1.3-0.7-0.3 0.5-0.9 0.7-0.1 0-0.3 0-0.7 0-1-0.5-0.1-0.2-0.1-0.5 0-0.3 0.2-0.6 0.3-0.2 0.6-0.2 0.5 0 0.5 0.5 0 0.4-0.4 0.6 0 0-0.1 0.1 0 0 0 0-0.1 0-0.1 0 0 0.1 0.2 0.1 0.1 0.1 0.3 0.1 0.4 0 0.7-0.6 0.2-0.2 0.5-1.5 0.1-0.3 0.2-0.6 0-0.4 0.1-0.5 0-0.2 0-0.3 0.1-0.3 0.1-0.4 0-0.3-0.2-0.5-0.1-0.1-0.4-0.1-0.5 0-0.9 0.4-0.4 0.4-0.6 0.9 0 0.1 0 0.2-0.1 0-0.2 0zm7.3 3.3q-0.3-0.2-0.5-0.5-0.2-0.2-0.2-0.6 0-0.3 0.1-0.5 0.2-0.3 0.4-0.5 0.4-0.2 0.7-0.2 0.5 0 0.9 0.2 0.3 0.3 0.4 0.7 0 0 0 0.1 0 0.2 0 0.2-0.1 0.5-0.6 0.8l-0.1 0.1q0.4 0.3 0.4 0.3 0.5 0.4 0.5 1 0 0.6-0.4 1-0.4 0.4-1.1 0.4-0.8 0-1.2-0.6-0.2-0.3-0.2-0.7 0-0.7 0.9-1.2zm1.4-1.3q0-0.3-0.2-0.5-0.2-0.2-0.5-0.2 0 0-0.2 0-0.4 0-0.6 0.2-0.2 0.2-0.2 0.4 0 0.3 0.2 0.5 0.1 0 0.5 0.3l0.4 0.2q0 0 0.1 0 0.1-0.1 0.1-0.1 0.4-0.3 0.4-0.8zm-1.9 2.5q0 0.4 0.3 0.7 0.4 0.3 0.7 0.3 0.3 0 0.6-0.1 0.2-0.2 0.3-0.3 0.1-0.2 0.1-0.4 0-0.3-0.2-0.6-0.1 0-0.6-0.4-0.1 0-0.2-0.1-0.1-0.1-0.2-0.1h-0.1q-0.5 0.3-0.6 0.7-0.1 0.2-0.1 0.3z"/><path fill-rule="evenodd" class="b" d="m192.5 136.5l96-72"/><path class="a" d="m240.3 105.6h5.6v-13.3h-5.7z"/><path  d="m241.9 98.3q-0.5-0.3-0.8-0.7-0.3-0.4-0.3-1 0-0.5 0.1-0.8 0.3-0.5 0.8-0.8 0.4-0.3 1-0.3 0.8 0 1.3 0.4 0.6 0.4 0.7 1 0 0 0 0.2 0 0.3 0 0.4-0.2 0.7-1 1.2l-0.1 0.1q0.6 0.4 0.6 0.4 0.8 0.7 0.8 1.7 0 0.9-0.6 1.5-0.7 0.6-1.7 0.6-1.3 0-2-0.9-0.2-0.4-0.2-1 0-1.2 1.4-2zm2.2-1.9q0-0.5-0.3-0.8-0.3-0.4-0.8-0.5-0.1 0-0.3 0-0.6 0-1 0.4-0.3 0.3-0.3 0.6 0 0.5 0.4 0.8 0.1 0 0.7 0.4l0.6 0.5q0.1-0.1 0.2-0.1 0.1-0.1 0.2-0.2 0.6-0.5 0.6-1.1zm-2.9 3.9q0 0.6 0.4 1.1 0.5 0.4 1.1 0.4 0.5 0 0.9-0.2 0.3-0.2 0.5-0.5 0.2-0.3 0.2-0.6 0-0.5-0.4-0.8-0.1-0.1-0.9-0.7-0.1-0.1-0.3-0.2-0.2-0.1-0.3-0.2h-0.1-0.1q-0.7 0.5-0.9 1.1-0.1 0.3-0.1 0.6z"/></svg>