<svg version="1.2" xmlns="http://www.w3.org/2000/svg" viewBox="0 0 1115 501" width="1115" height="501"><style>.a{fill:#fff}.b{fill:#fff;stroke:#000}.c{fill:none;stroke:#000;stroke-miterlimit:10}.d{fill:none}.e{fill:none;stroke:#000}.f{fill:#fff;stroke:#000;stroke-miterlimit:10}.g{stroke:#000;stroke-miterlimit:10}</style><path fill-rule="evenodd" class="a" d="m0 0h1115v501h-1115z"/><path fill-rule="evenodd" class="b" d="m203.5 160.5c-22.1 0-40-17.9-40-40 0-22.1 17.9-40 40-40 22.1 0 40 17.9 40 40 0 22.1-17.9 40-40 40z"/><path fill-rule="evenodd" class="b" d="m323.5 280.5c-22.1 0-40-17.9-40-40 0-22.1 17.9-40 40-40 22.1 0 40 17.9 40 40 0 22.1-17.9 40-40 40z"/><path fill-rule="evenodd" class="b" d="m273.5 390.5c-22.1 0-40-17.9-40-40 0-22.1 17.9-40 40-40 22.1 0 40 17.9 40 40 0 22.1-17.9 40-40 40z"/><path class="c" d="m110.5 221l65.9-71.1"/><path class="c" d="m123.5 248.8l160-6.6"/><path fill-rule="evenodd" class="b" d="m83.5 290.5c-22.1 0-40-17.9-40-40 0-22.1 17.9-40 40-40 22.1 0 40 17.9 40 40 0 22.1-17.9 40-40 40z"/><path class="c" d="m141.9 389.2l93.2-27.4"/><path fill-rule="evenodd" class="b" d="m103.5 440.5c-22.1 0-40-17.9-40-40 0-22.1 17.9-40 40-40 22.1 0 40 17.9 40 40 0 22.1-17.9 40-40 40z"/><path fill-rule="evenodd" class="d" d="m153.5 470.5h120v30h-120z"/><path  d="m171.6 487.8v-11.2q-0.2-0.2-0.4-0.3-0.2 0-1 0h-0.6v-1h4q4 0.1 4.3 0.1 1 0.2 1.7 0.6 1.2 0.6 1.6 1.7 0.3 0.5 0.3 1.1 0 1-0.8 1.8-0.9 0.9-2.2 1.2l-0.2 0.1q1.4 0.1 2.4 0.9 1 0.8 1.3 2 0 0.1 0 0.5 0 0.4 0 0.6-0.3 1.2-1.3 2-0.9 0.8-2.3 1-0.3 0.1-4.6 0.1h-4.2v-0.9h0.6q0.8 0 1-0.1 0.2 0 0.4-0.2zm7.6-9.1q0-0.9-0.5-1.6-0.5-0.7-1.4-0.8 0 0-0.3 0-0.2 0-0.6 0-0.4 0-0.7 0-0.4 0-0.8 0-0.4 0-0.6 0-0.3 0-0.3 0-0.3 0-0.4 0.1 0 0.1 0 2.6v2.5h1.6 1.7 0.2q0.1-0.1 0.2-0.1h0.1q0.8-0.3 1.3-1 0.5-0.7 0.5-1.7zm0.5 6.5q0-1.1-0.6-1.9-0.6-0.8-1.5-1h-2-2v2.7q0 2.8 0 2.8 0 0.1 0.1 0.2 0.1 0.1 2 0.1h1q0.8 0 1.2-0.2 0.8-0.2 1.3-1 0.5-0.7 0.5-1.7zm5.9-9.6q0.5 0.1 0.8 0.4 0.4 0.3 0.4 0.8 0 0.7-0.6 1-0.2 0.2-0.6 0.2-0.4 0-0.7-0.2-0.5-0.3-0.5-1 0-0.5 0.3-0.9 0.4-0.3 0.9-0.3zm2.5 13.4h-0.2q-0.2-0.1-2-0.1-1.9 0-2.2 0.1h-0.2v-0.9h0.3q0.6 0 1-0.1 0.2 0 0.3-0.2 0 0 0-2.9 0-3-0.1-3.2-0.2-0.4-1.2-0.4h-0.2v-0.5q0-0.4 0-0.4h0.2q0.2-0.1 0.6-0.1 0.4 0 0.7 0 0.4 0 0.7-0.1 0.4 0 0.6 0 0.2 0 0.2 0h0.1v7.6q0.1 0.2 0.2 0.2 0.2 0.1 0.7 0.1h0.5zm7.3-8.3l0.2 0.1q0.9-0.9 2-0.9 0.5 0 0.8 0.3 0.3 0.4 0.3 0.9 0 0.3-0.2 0.5-0.2 0.2-0.5 0.2-0.7 0-0.8-0.6 0-0.3 0.1-0.4 0-0.1 0-0.1-0.1 0-0.2 0-0.4 0.1-0.8 0.4-0.2 0.1-0.2 0.2 0 0 0.1 0.1 0.6 0.8 0.6 1.7 0 0.9-0.5 1.6-0.9 1.4-2.9 1.4-0.9 0-1.9-0.5-0.3 0.4-0.3 0.7 0 0.7 0.6 1.1 0.1 0.1 0.3 0.1 0.2 0 1.4 0 1.7 0 2.2 0.1 1.2 0.2 1.9 0.9 0.8 0.7 0.8 1.9 0 0.4 0 0.5-0.3 1-1.6 1.6-1.1 0.6-2.8 0.6-1.6 0-2.9-0.6-1.2-0.6-1.5-1.6 0-0.1 0-0.4 0-0.8 0.6-1.4 0.3-0.3 0.6-0.5l0.3-0.1q-0.8-0.6-0.8-1.7 0-0.9 0.6-1.7-0.9-0.9-0.9-2 0-0.8 0.6-1.6 0.4-0.6 1.2-1 0.7-0.4 1.7-0.4 1 0 1.9 0.6zm-3.6 2.4q0 1.1 0.4 1.7 0.3 0.5 1.2 0.5 0.7 0 1.1-0.3 0.4-0.3 0.5-0.9 0-0.3 0-1 0-0.6 0-1-0.3-1.2-1.6-1.2-0.6 0-1 0.3-0.4 0.4-0.5 0.9-0.1 0.4-0.1 1zm4.7 6.3q-0.4-0.3-1-0.3-0.5-0.1-1.6-0.1h-0.5q-1.4 0-1.6 0.1-0.4 0.2-0.7 0.6-0.2 0.3-0.2 0.8 0 0.2 0.1 0.4 0.1 0.4 0.7 0.8 0.5 0.4 1.3 0.5 0.3 0.1 1 0.1 0.6 0 1-0.1 0.7-0.1 1.3-0.5 0.6-0.4 0.7-0.9 0.1-0.1 0.1-0.3 0-0.7-0.6-1.1zm2.9-1.3h0.3 0.3q0.8 0 0.9-0.3v-0.2q0-0.2 0-0.4 0.1-0.3 0.1-0.7 0-0.3 0-0.7 0-0.5 0-0.9 0-0.6 0-1.3 0-0.7 0-1.2l-0.1-0.4q0-0.4-0.3-0.5-0.2-0.2-0.8-0.2h-0.4v-0.5q0-0.4 0-0.4l0.2-0.1q0.2 0 0.6 0 0.4 0 0.7 0 0.3-0.1 0.7-0.1 0.4 0 0.6 0 0.2-0.1 0.2-0.1h0.1v1.4q0.4-0.6 0.8-1 0.5-0.3 1.2-0.3 0.6 0 1 0.2 0.8 0.4 0.8 1.1 0 0.5-0.3 0.8-0.3 0.2-0.7 0.2-0.5 0-0.8-0.2-0.2-0.3-0.2-0.8 0-0.3 0.1-0.5 0.1-0.1 0.1-0.1-0.1-0.1-0.5 0.1-0.3 0.1-0.5 0.3-0.8 0.7-0.9 2.5v0.8q0 0.7 0 1.3 0 0.3 0 0.6 0 0.2 0 0.5 0 0.2 0 0.4 0 0.1 0 0.3v0.1q0.1 0.1 0.2 0.2 0.2 0 1.1 0.1h0.6v0.9h-0.2q-0.3-0.1-2.5-0.1-2 0-2.2 0.1h-0.2zm10.7-5.5q-0.3 0.3-0.8 0.3-0.4 0-0.7-0.3-0.3-0.3-0.3-0.8 0-0.3 0.1-0.6 0.3-0.6 1.1-0.9 0.7-0.3 1.9-0.3 1.3 0 2.2 0.6 1 0.6 1.3 1.6 0.1 0.3 0.1 0.6 0 0.4 0 2.3 0 2 0 2.3 0.1 0.3 0.2 0.5 0.1 0.3 0.4 0.3 0.2 0 0.3-0.3 0.2-0.2 0.2-1.1v-0.7h0.8v0.8q-0.1 0.8-0.1 0.9-0.2 0.6-0.7 1-0.4 0.3-1.1 0.3-0.5 0-0.9-0.3-0.4-0.4-0.5-0.9v-0.1q-0.1 0.1-0.3 0.3-0.1 0.2-0.2 0.3-1 0.8-2.3 0.8-1 0-1.9-0.4-0.8-0.5-1.1-1.2-0.1-0.4-0.1-0.7 0-1 0.8-1.8 0.4-0.4 1.1-0.7 1.4-0.6 3.5-0.8h0.3v-0.4q0-0.7-0.2-1-0.2-0.7-0.7-1-0.5-0.4-1.2-0.4-1.3 0-1.3 0.1 0.4 0.3 0.4 0.9 0 0.5-0.3 0.8zm3.3 2.9q0-1.2-0.1-1.2 0 0-0.1 0.1-2.7 0.1-3.5 1.6-0.2 0.4-0.2 0.9 0 0.7 0.5 1.1 0.5 0.5 1.2 0.5 0.8 0 1.3-0.5 0.6-0.5 0.8-1.2 0-0.1 0.1-1.3zm9.2 3.5h-0.1q-0.4-0.1-2.6-0.1-1.9 0-2.2 0.1h-0.2v-0.9h0.3q0.6 0 1-0.1 0.2 0 0.3-0.2 0 0 0-3.3v-3.2h-1.4v-0.9h1.4v-1.3-1.4-0.2q0.4-1.1 1.2-1.8 0.8-0.6 2-0.8 0 0 0.2 0 0.2 0 0.3 0 0.7 0 1.2 0.5 0.4 0.4 0.4 1.1 0 0.4-0.2 0.7-0.3 0.3-0.8 0.3-0.4 0-0.7-0.3-0.3-0.3-0.3-0.7 0-0.4 0.4-0.8h-0.1q-0.2-0.1-0.5 0-0.4 0-0.8 0.5-0.4 0.4-0.6 1-0.1 0.4-0.2 1.9v1.3h2.3v0.9h-2.2v3.2q0 3.2 0 3.3 0.1 0.1 0.3 0.2 0.2 0.1 1 0.1h0.6zm4.2-8.3q-1.8 0-1.8 1.3 0 0.3 0 0.3 0.2 0.5 0.6 0.7 0.5 0.2 1.4 0.4 1.1 0.2 1.5 0.5 1.3 0.6 1.7 1.9 0 0.2 0 0.5 0 0.8-0.3 1.4-0.8 1.5-2.9 1.5-1.2 0-2.1-0.7l-0.2 0.1-0.2 0.2q-0.1 0.1-0.2 0.2l-0.2 0.2h-0.2q-0.1 0-0.2-0.1v-1.6q0-1.3 0-1.5 0-0.2 0.1-0.2 0-0.1 0.3-0.1 0.2 0 0.3 0.1 0 0 0.1 0.3 0.2 0.7 0.5 1.3 0.7 1.1 2 1.1 1.9 0 1.9-1.6 0-0.6-0.4-0.9-0.3-0.4-0.8-0.6-0.3-0.1-1-0.2-1.1-0.2-1.5-0.4-1.3-0.6-1.5-1.9 0-0.1 0-0.3 0-2.3 2.8-2.6 0.1 0 0.5 0 0.8 0 1.4 0.3l0.3 0.2 0.1-0.1q0.3-0.3 0.5-0.4h0.1q0.2 0 0.3 0.1v2.7l-0.1 0.1h-0.6q-0.1-0.1-0.1-0.2 0-1-0.6-1.5-0.5-0.5-1.5-0.5zm15.6 8.7q-2.3 0-3.9-1.5-1.5-1.5-1.5-4 0-2.4 1.5-4.6 0.9-1.4 2.2-2.5 1.3-1 2.9-1.5 1.2-0.4 2.2-0.4 0.7 0 0.8 0 1.2 0.2 2.1 1 0 0.1 0.1 0.2 0.1 0.2 0.2 0.3 0.1 0.1 0.1 0.1 0.1 0 0.6-0.5 0.1-0.1 0.3-0.3 0.1-0.1 0.3-0.3 0.2-0.2 0.2-0.2l0.3-0.3h0.1q0.3 0 0.3 0.1 0 0.1-0.6 2.8-0.8 2.7-0.8 2.8 0 0.1-0.1 0.1 0 0-0.3 0h-0.3q-0.1-0.1-0.2-0.1 0 0 0.1-0.4 0-0.4 0-0.8 0-1.7-0.7-2.6-0.7-1-2.1-1-1.1 0-2.3 0.5-2 0.8-3.2 2.8-1.2 1.9-1.5 4.7-0.1 0.3-0.1 0.8 0 1.1 0.4 1.9 1 1.9 3.4 2h0.2q1 0 1.9-0.5 0.9-0.4 1.3-1.1 0-0.2 0.3-1.1 0.2-1 0.2-1.1 0-0.2-0.3-0.2-0.2 0-1.1-0.1h-0.8q-0.1-0.1-0.1-0.1 0-0.1 0-0.4 0.1-0.3 0.2-0.4h0.4q0.8 0.1 2.8 0.1 0.5 0 1.2 0 0.7-0.1 1-0.1 0.3 0 0.3 0.2 0 0.1 0 0.3 0 0.1-0.1 0.2 0 0 0 0.1 0 0 0 0.1-0.1 0-0.1 0 0 0-0.1 0-0.1 0-0.2 0-0.4 0-0.8 0.1-0.2 0.1-0.3 0.2v0.3q-0.1 0.2-0.3 0.8-0.1 0.6-0.2 1-0.1 0.3-0.1 0.5-0.1 0.3-0.1 0.5-0.1 0.1-0.1 0.3-0.1 0.2-0.1 0.3 0 0.1-0.1 0.2 0 0.1 0 0.2 0 0.1-0.1 0.1 0 0.1 0 0.1 0 0-0.1 0 0 0-0.1-0.1-0.2-0.1-0.5-0.4-0.3-0.4-0.4-0.6 0 0 0 0.1-0.1 0-0.2 0-0.6 0.7-1.7 1-1.1 0.4-2.3 0.4zm13.6 3.5h-0.1q-0.2-0.1-1.9-0.1-1.6 0-1.8 0.1h-0.2v-0.6h0.3q0.7 0 0.9 0 0.1 0 0.3-0.1v-6.1q0 0-0.1 0.1-0.5 0.2-1.2 0.2h-0.2v-0.6h0.2q1 0 1.6-0.4 0.2-0.1 0.4-0.3 0 0 0.1 0 0.1 0 0.2 0.1v3.5 3.5q0.2 0.1 0.8 0.1h0.4 0.3z"/><path fill-rule="evenodd" class="e" d="m152.8 267.9c-30.1-112.2-0.4-217.4 66.3-235.2 66.8-17.9 145.1 58.3 175.1 170.4 30.1 112.2 0.4 217.4-66.3 235.2-66.8 17.9-145.1-58.3-175.1-170.4z"/><path fill-rule="evenodd" class="e" d="m173.2 313.5c7.5 85.4-22.1 157.6-66.2 161.4-44.1 3.9-85.7-62-93.2-147.4-7.5-85.4 22.1-157.6 66.2-161.4 44.1-3.9 85.7 62 93.2 147.4z"/><path class="c" d="m38.9 160.5l8.4 23.3"/><path fill-rule="evenodd" class="d" d="m3.5 130.5h60v30h-60z"/><path  d="m25.5 138.3h-0.3q-0.2-0.2-0.2-0.3 0-0.1 0.1-0.4 0.1-0.2 0.2-0.3h0.2q0.9 0.1 2.1 0.1 2.4 0 2.8-0.1h0.2q0.1 0.2 0.1 0.2 0 0.1 0 0.4-0.1 0.3-0.2 0.4h-0.4q-0.5 0-0.6 0-0.6 0.1-0.7 0.3 0 0 0.6 5 0.6 5 0.6 5l1.5-2.3q1.4-2.3 2.9-4.7 1.5-2.4 1.5-2.5 0.1-0.2 0.1-0.3 0-0.4-0.9-0.5-0.4 0-0.4-0.2 0-0.1 0.1-0.3 0-0.3 0.1-0.4 0.1-0.1 0.3-0.1 0.3 0 1 0.1 0.8 0 1.2 0 1.3 0 1.7-0.1h0.1q0.2 0.2 0.2 0.3 0 0.3-0.2 0.6-0.1 0.1-0.3 0.1-1.1 0-1.8 0.6 0 0-0.1 0.1-0.1 0.1-0.1 0.2-0.1 0.1-0.1 0.2-7.4 11.9-7.5 12h-0.1-0.4q-0.3 0-0.4 0-0.1 0-0.1-0.1 0-0.1-0.8-6.4-0.7-6.4-0.7-6.4-0.2-0.2-1.1-0.2zm15.5 16.6h-0.1q-0.2-0.1-1.9-0.1-1.6 0-1.8 0.1h-0.2v-0.6h0.3q0.7 0 0.9 0 0.1 0 0.3-0.1v-6.1q0 0-0.1 0.1-0.5 0.2-1.2 0.2h-0.2v-0.5h0.2q1-0.1 1.6-0.5 0.3-0.1 0.4-0.2 0-0.1 0.1-0.1 0.2 0 0.2 0.1v3.5l0.1 3.5q0.1 0.1 0.7 0.1h0.4 0.3z"/><path class="c" d="m356.2 60.5l-15.4 31.6"/><path fill-rule="evenodd" class="d" d="m333.5 30.5h60v30h-60z"/><path  d="m355.5 38.3h-0.3q-0.2-0.2-0.2-0.3 0-0.1 0.1-0.4 0.1-0.2 0.2-0.3h0.2q0.9 0.1 2.1 0.1 2.4 0 2.8-0.1h0.2q0.1 0.2 0.1 0.2 0 0.1 0 0.4-0.1 0.3-0.2 0.4h-0.4q-0.5 0-0.6 0-0.6 0.1-0.7 0.3 0 0 0.6 5 0.6 5 0.6 5l1.5-2.3q1.4-2.3 2.9-4.7 1.5-2.4 1.5-2.5 0.1-0.2 0.1-0.3 0-0.4-0.9-0.5-0.4 0-0.4-0.2 0-0.1 0.1-0.3 0-0.3 0.1-0.4 0.1-0.1 0.3-0.1 0.3 0 1 0.1 0.8 0 1.2 0 1.3 0 1.7-0.1h0.1q0.2 0.2 0.2 0.3 0 0.3-0.2 0.6-0.1 0.1-0.3 0.1-1.1 0-1.8 0.6 0 0-0.1 0.1-0.1 0.1-0.1 0.2-0.1 0.1-0.1 0.2-7.4 11.9-7.5 12h-0.1-0.4q-0.3 0-0.4 0-0.1 0-0.1-0.1 0-0.1-0.8-6.4-0.7-6.4-0.7-6.4-0.2-0.2-1.1-0.2zm11.8 11.6q-0.3 0-0.5-0.2-0.2-0.2-0.2-0.5 0-0.9 0.6-1.5 0.7-0.6 1.6-0.6 1 0 1.6 0.6 0.7 0.5 0.8 1.4 0.1 0.2 0.1 0.4 0 0.6-0.5 1.2-0.3 0.5-1.3 1.4-0.4 0.3-1.1 1l-0.7 0.7h0.9q1.8 0 1.9 0 0.1-0.1 0.1-0.3 0.1-0.1 0.2-0.8h0.5l-0.4 2.1v0.1h-4.3v-0.2q0-0.3 0-0.3 0 0 1-1.1 1.3-1.4 1.6-1.9 0.8-1 0.8-1.9 0-0.8-0.4-1.3-0.4-0.5-1.1-0.5-0.7 0-1.1 0.6 0 0-0.1 0.1 0 0.1 0 0.1 0 0 0 0 0.3 0 0.5 0.2 0.2 0.2 0.2 0.5 0 0.3-0.2 0.5-0.2 0.2-0.5 0.2z"/><path class="f" d="m473.5 70.5v-30h640v30"/><path class="c" d="m473.5 70.5v370h640v-370"/><path class="c" d="m473.5 70.5h640"/><path  d="m708.8 61h-0.2q-0.4-0.1-3-0.1-2.6 0-3 0.1h-0.2v-0.9h0.5q0.7 0 1.3-0.1 0.2 0 0.3-0.2 0.1-0.1 0.1-5.6 0-5.6-0.1-5.7-0.1-0.1-0.3-0.2-0.6 0-1.3 0h-0.5v-1h0.2q0.4 0.1 3 0.1 2.6 0 3-0.1h0.2v1h-0.5q-0.7 0-1.3 0-0.2 0.1-0.3 0.2-0.1 0.1-0.1 5.7 0 5.5 0.1 5.6 0.1 0.2 0.3 0.2 0.6 0.1 1.3 0.1h0.5zm1-5.1v-0.2q0 0 0.1-1.6 0.1-1.5 0.2-1.6v-0.1h6.8q0.1 0.1 0.1 0.3 0 0.2 0 0.2l-0.4 0.5q-0.3 0.5-1 1.4-0.7 0.9-1.3 1.8l-2.6 3.6h0.9q1.3 0 1.8-0.1 0.8-0.1 1.2-0.7 0.4-0.5 0.6-2.1v-0.3q0-0.1 0.4-0.1h0.4v0.2q0 0-0.1 1.9-0.2 1.8-0.2 1.9v0.1h-3.5-3.5l-0.1-0.1q0-0.1 0-0.3 0-0.2 0-0.2 0-0.1 2.6-3.6 2.6-3.6 2.7-3.7h-1.2q-1.3 0-1.7 0.1-0.5 0.1-0.7 0.4-0.5 0.5-0.7 2.1v0.2zm8.8 0.8q0-1.8 1.1-3.1 1.2-1.3 2.8-1.5 0.3-0.1 0.5-0.1 1.7 0 3 1.3 1.4 1.4 1.4 3.4 0 0.4-0.1 0.9-0.2 1.3-1.1 2.2-0.9 0.9-2.2 1.3-0.4 0.1-1 0.1-0.6 0-1.1-0.1-1.5-0.4-2.4-1.6-0.9-1.2-0.9-2.8zm4.8-3.9q-0.1 0-0.4 0-0.6 0-1.1 0.2-1.1 0.6-1.3 2.2-0.1 0.3-0.1 1.3 0 1.9 0.4 2.7 0.6 1.2 2.1 1.2 2.4 0 2.4-3.3v-0.6q0-1.3-0.1-1.8-0.3-1.6-1.9-1.9zm8.4 6.9v0.1q0.1 0.3 0.9 0.3h0.3 0.3v0.9h-0.2q-0.2-0.1-2.2-0.1-2 0-2.2 0.1h-0.2v-0.9h0.3 0.3q0.8 0 0.9-0.3v-0.2q0-0.2 0-0.4 0-0.3 0-0.7 0.1-0.3 0.1-0.7 0-0.5 0-0.9 0-0.6-0.1-1.3 0-0.7 0-1.2v-0.4q0-0.4-0.3-0.5-0.2-0.2-0.8-0.2h-0.4v-0.5q0-0.4 0-0.4l0.2-0.1q0.2 0 0.6 0 0.4 0 0.7 0 0.4-0.1 0.8-0.1 0.3 0 0.5 0 0.2-0.1 0.3-0.1v0.8q0 0.8 0 0.8h0.1q1-1.6 3-1.6 2 0.1 2.4 1.6v0.1q0.5-0.6 0.6-0.7 1-1 2.4-1 2.5 0 2.7 2.3 0 0.1 0 2.8 0 2.5 0 2.6 0.1 0.1 0.3 0.2 0.4 0.1 1 0.1h0.3v0.9h-0.2q-0.2-0.1-2.2-0.1-2 0-2.3 0.1h-0.1v-0.9h0.3 0.2q1 0 1-0.4 0 0 0-2.7 0-2.7 0-2.9-0.1-0.6-0.5-0.9-0.3-0.3-0.9-0.3-0.9 0-1.6 0.7-0.7 0.7-0.8 1.7 0 0.1 0 0.4 0 0.4 0 0.9 0 0.5 0 1 0 0.3 0 0.7 0 0.3 0 0.5 0 0.3 0 0.5 0 0.2 0 0.4v0.1q0.2 0.3 0.9 0.3h0.3 0.3v0.9h-0.1q-0.3-0.1-2.3-0.1-1.9 0-2.2 0.1h-0.2v-0.9h0.4 0.1q1.1 0 1.1-0.4 0 0 0-2.7 0-2.7 0-2.9-0.2-0.6-0.5-0.9-0.3-0.3-0.9-0.3-0.9 0-1.6 0.7-0.7 0.7-0.8 1.7 0 0.1 0 0.4 0 0.4-0.1 0.9 0 0.5 0 1 0 0.3 0 0.7 0 0.3 0 0.5 0.1 0.3 0.1 0.5 0 0.2 0 0.4zm13.8-3q0-1.8 1.1-3.1 1.2-1.3 2.8-1.5 0.3-0.1 0.5-0.1 1.7 0 3 1.3 1.4 1.4 1.4 3.4 0 0.4-0.1 0.9-0.2 1.3-1.1 2.2-0.9 0.9-2.2 1.3-0.4 0.1-1 0.1-0.6 0-1.1-0.1-1.5-0.4-2.4-1.6-0.9-1.2-0.9-2.8zm4.8-3.9q-0.1 0-0.4 0-0.6 0-1.1 0.2-1.1 0.6-1.3 2.2-0.1 0.3-0.1 1.3 0 1.9 0.4 2.7 0.6 1.2 2.1 1.2 2.4 0 2.4-3.3v-0.6q0-1.3-0.1-1.8-0.3-1.6-1.9-1.9zm5 7.3h0.3 0.3q0.8 0 0.9-0.3v-0.2q0-0.2 0-0.4 0.1-0.3 0.1-0.7 0-0.3 0-0.7 0-0.5 0-0.9 0-0.6 0-1.3 0-0.7 0-1.2l-0.1-0.4q0-0.4-0.3-0.5-0.2-0.2-0.8-0.2h-0.4v-0.5q0-0.4 0-0.4l0.2-0.1q0.2 0 0.6 0 0.4 0 0.7 0 0.3-0.1 0.7-0.1 0.4 0 0.6 0 0.2-0.1 0.2-0.1h0.1v1.4q0.4-0.6 0.8-1 0.5-0.3 1.2-0.3 0.6 0 1 0.2 0.8 0.4 0.8 1.1 0 0.5-0.3 0.8-0.3 0.2-0.7 0.2-0.5 0-0.8-0.2-0.2-0.3-0.2-0.8 0-0.3 0.1-0.5 0.1-0.1 0.1-0.1-0.1-0.1-0.5 0.1-0.3 0.1-0.5 0.3-0.8 0.7-0.9 2.5v0.8q0 0.7 0 1.3 0 0.3 0 0.6 0 0.2 0 0.5 0 0.2 0 0.4 0 0.1 0 0.3v0.1q0.1 0.1 0.2 0.2 0.2 0 1.1 0.1h0.6v0.9h-0.2q-0.3-0.1-2.5-0.1-2 0-2.2 0.1h-0.2zm13.2 0.9h-0.1q-0.4-0.1-2.6-0.1-1.9 0-2.2 0.1h-0.2v-0.9h0.3q0.6 0 1-0.1 0.2 0 0.3-0.2 0 0 0-3.3v-3.2h-1.4v-0.9h1.4v-1.3-1.4-0.2q0.4-1.1 1.2-1.8 0.8-0.6 2-0.8 0 0 0.2 0 0.2 0 0.3 0 0.7 0 1.2 0.5 0.4 0.4 0.4 1.1 0 0.4-0.2 0.7-0.3 0.3-0.8 0.3-0.4 0-0.7-0.3-0.3-0.3-0.3-0.7 0-0.4 0.4-0.8h-0.1q-0.2-0.1-0.5 0-0.4 0-0.8 0.5-0.4 0.4-0.6 1-0.1 0.4-0.2 1.9v1.3h2.3v0.9h-2.2v3.2q0 3.2 0 3.3 0.1 0.1 0.3 0.2 0.2 0.1 1 0.1h0.6zm1-4.3q0-1.8 1.1-3.1 1.2-1.3 2.8-1.5 0.3-0.1 0.5-0.1 1.7 0 3 1.3 1.4 1.4 1.4 3.4 0 0.4-0.1 0.9-0.2 1.3-1.1 2.2-0.9 0.9-2.2 1.3-0.4 0.1-1 0.1-0.6 0-1.1-0.1-1.5-0.4-2.4-1.6-0.9-1.2-0.9-2.8zm4.8-3.9q-0.1 0-0.4 0-0.6 0-1.1 0.2-1.1 0.6-1.3 2.2-0.1 0.3-0.1 1.3 0 1.9 0.4 2.7 0.6 1.2 2.1 1.2 2.4 0 2.4-3.3v-0.6q0-1.3-0.1-1.8-0.3-1.6-1.9-1.9zm16-0.1l0.2 0.1q0.9-0.9 2-0.9 0.5 0 0.8 0.3 0.3 0.4 0.3 0.9 0 0.3-0.2 0.5-0.2 0.2-0.5 0.2-0.7 0-0.8-0.6 0-0.3 0.1-0.4 0-0.1 0-0.1-0.1 0-0.2 0-0.4 0.1-0.8 0.4-0.2 0.1-0.2 0.2 0 0 0.1 0.1 0.6 0.8 0.6 1.7 0 0.9-0.5 1.6-0.9 1.4-2.9 1.4-0.9 0-1.9-0.5-0.3 0.4-0.3 0.7 0 0.7 0.6 1.1 0.1 0.1 0.3 0.1 0.2 0 1.4 0 1.7 0 2.2 0.1 1.2 0.2 1.9 0.9 0.8 0.7 0.8 1.9 0 0.4 0 0.5-0.3 1-1.6 1.6-1.1 0.6-2.8 0.6-1.6 0-2.9-0.6-1.2-0.6-1.5-1.6 0-0.1 0-0.4 0-0.8 0.6-1.4 0.3-0.3 0.6-0.5l0.3-0.1q-0.8-0.6-0.8-1.7 0-0.9 0.6-1.7-0.9-0.9-0.9-2 0-0.8 0.6-1.6 0.4-0.6 1.2-1 0.7-0.4 1.7-0.4 1 0 1.9 0.6zm-3.6 2.4q0 1.1 0.4 1.7 0.3 0.5 1.2 0.5 0.7 0 1.1-0.3 0.4-0.3 0.5-0.9 0-0.3 0-1 0-0.6 0-1-0.3-1.2-1.6-1.2-0.6 0-1 0.3-0.4 0.4-0.5 0.9-0.1 0.4-0.1 1zm4.7 6.3q-0.4-0.3-1-0.3-0.5-0.1-1.6-0.1h-0.5q-1.4 0-1.6 0.1-0.4 0.2-0.7 0.6-0.2 0.3-0.2 0.8 0 0.2 0.1 0.4 0.1 0.4 0.7 0.8 0.5 0.4 1.3 0.5 0.3 0.1 1 0.1 0.6 0 1-0.1 0.7-0.1 1.3-0.5 0.6-0.4 0.7-0.9 0.1-0.1 0.1-0.3 0-0.7-0.6-1.1zm2.9-1.3h0.3 0.3q0.8 0 0.9-0.3v-0.2q0-0.2 0-0.4 0.1-0.3 0.1-0.7 0-0.3 0-0.7 0-0.5 0-0.9 0-0.6 0-1.3 0-0.7 0-1.2l-0.1-0.4q0-0.4-0.3-0.5-0.2-0.2-0.8-0.2h-0.4v-0.5q0-0.4 0-0.4l0.2-0.1q0.2 0 0.6 0 0.4 0 0.7 0 0.3-0.1 0.7-0.1 0.4 0 0.6 0 0.2-0.1 0.2-0.1h0.1v1.4q0.4-0.6 0.8-1 0.5-0.3 1.2-0.3 0.6 0 1 0.2 0.8 0.4 0.8 1.1 0 0.5-0.3 0.8-0.3 0.2-0.7 0.2-0.5 0-0.8-0.2-0.2-0.3-0.2-0.8 0-0.3 0.1-0.5 0.1-0.1 0.1-0.1-0.1-0.1-0.5 0.1-0.3 0.1-0.5 0.3-0.8 0.7-0.9 2.5v0.8q0 0.7 0 1.3 0 0.3 0 0.6 0 0.2 0 0.5 0 0.2 0 0.4 0 0.1 0 0.3v0.1q0.1 0.1 0.2 0.2 0.2 0 1.1 0.1h0.6v0.9h-0.2q-0.3-0.1-2.5-0.1-2 0-2.2 0.1h-0.2zm10.7-5.5q-0.3 0.3-0.8 0.3-0.4 0-0.7-0.3-0.3-0.3-0.3-0.8 0-0.3 0.1-0.6 0.3-0.6 1.1-0.9 0.7-0.3 1.9-0.3 1.3 0 2.2 0.6 1 0.6 1.3 1.6 0.1 0.3 0.1 0.6 0 0.4 0 2.3 0 2 0 2.3 0.1 0.3 0.2 0.5 0.1 0.3 0.4 0.3 0.2 0 0.3-0.3 0.2-0.2 0.2-1.1v-0.7h0.8v0.8q-0.1 0.8-0.1 0.9-0.2 0.6-0.7 1-0.4 0.3-1.1 0.3-0.5 0-0.9-0.3-0.4-0.4-0.5-0.9v-0.1q-0.1 0.1-0.3 0.3-0.1 0.2-0.2 0.3-1 0.8-2.3 0.8-1 0-1.9-0.4-0.8-0.5-1.1-1.2-0.1-0.4-0.1-0.7 0-1 0.8-1.8 0.4-0.4 1.1-0.7 1.4-0.6 3.5-0.8h0.3v-0.4q0-0.7-0.2-1-0.2-0.7-0.7-1-0.5-0.4-1.2-0.4-1.3 0-1.3 0.1 0.4 0.3 0.4 0.9 0 0.5-0.3 0.8zm3.3 2.9q0-1.2-0.1-1.2 0 0-0.1 0.1-2.7 0.1-3.5 1.6-0.2 0.4-0.2 0.9 0 0.7 0.5 1.1 0.5 0.5 1.2 0.5 0.8 0 1.3-0.5 0.6-0.5 0.8-1.2 0-0.1 0.1-1.3zm9.2 3.5h-0.1q-0.4-0.1-2.6-0.1-1.9 0-2.2 0.1h-0.2v-0.9h0.3q0.6 0 1-0.1 0.2 0 0.3-0.2 0 0 0-3.3v-3.2h-1.4v-0.9h1.4v-1.3-1.4-0.2q0.4-1.1 1.2-1.8 0.8-0.6 2-0.8 0 0 0.2 0 0.2 0 0.3 0 0.7 0 1.2 0.5 0.4 0.4 0.4 1.1 0 0.4-0.2 0.7-0.3 0.3-0.8 0.3-0.4 0-0.7-0.3-0.3-0.3-0.3-0.7 0-0.4 0.4-0.8h-0.1q-0.2-0.1-0.5 0-0.4 0-0.8 0.5-0.4 0.4-0.6 1-0.1 0.4-0.2 1.9v1.3h2.3v0.9h-2.2v3.2q0 3.2 0 3.3 0.1 0.1 0.3 0.2 0.2 0.1 1 0.1h0.6zm2.5-8.7q0.3-0.1 0.7-0.1 0.4 0 0.6 0 0.3-0.1 0.3-0.1v3.7q0.1 3.6 0.1 3.8 0.1 0.4 0.3 0.6 0.4 0.3 1.2 0.3 0.5 0 0.9-0.2 1.2-0.6 1.4-2.2 0 0 0-0.3 0-0.4 0-0.8 0-0.5 0-1 0-0.4 0-0.9 0-0.5 0-0.8v-0.3q-0.1-0.4-0.3-0.5-0.2-0.2-0.9-0.2h-0.4v-0.9q0.1 0 1.6-0.1 1.5-0.1 1.5-0.2h0.2v3.6q0 3.6 0 3.7 0.1 0.4 0.3 0.5 0.2 0.1 0.9 0.2h0.3v0.9q0 0-1.5 0.1-1.4 0.1-1.5 0.1h-0.1v-1.4q-0.9 1-1.7 1.2-0.3 0.2-1 0.2-1.3 0-2-0.5-0.7-0.5-0.9-1.5 0-0.1 0-2.7-0.1-2.2-0.1-2.5 0-0.2-0.1-0.4-0.2-0.3-1.2-0.3h-0.2v-0.5q0-0.4 0-0.4l0.3-0.1q0.2 0 0.5 0 0.4 0 0.8 0zm20.3 0.4l0.2 0.1q0.9-0.9 2-0.9 0.5 0 0.8 0.3 0.3 0.4 0.3 0.9 0 0.3-0.2 0.5-0.2 0.2-0.5 0.2-0.7 0-0.8-0.6 0-0.3 0.1-0.4 0-0.1 0-0.1-0.1 0-0.2 0-0.4 0.1-0.8 0.4-0.2 0.1-0.2 0.2 0 0 0.1 0.1 0.6 0.8 0.6 1.7 0 0.9-0.5 1.6-0.9 1.4-2.9 1.4-0.9 0-1.9-0.5-0.3 0.4-0.3 0.7 0 0.7 0.6 1.1 0.1 0.1 0.3 0.1 0.2 0 1.4 0 1.7 0 2.2 0.1 1.2 0.2 1.9 0.9 0.8 0.7 0.8 1.9 0 0.4 0 0.5-0.3 1-1.6 1.6-1.1 0.6-2.8 0.6-1.6 0-2.9-0.6-1.2-0.6-1.5-1.6 0-0.1 0-0.4 0-0.8 0.6-1.4 0.3-0.3 0.6-0.5l0.3-0.1q-0.8-0.6-0.8-1.7 0-0.9 0.6-1.7-0.9-0.9-0.9-2 0-0.8 0.6-1.6 0.4-0.6 1.2-1 0.7-0.4 1.7-0.4 1 0 1.9 0.6zm-3.6 2.4q0 1.1 0.4 1.7 0.3 0.5 1.2 0.5 0.7 0 1.1-0.3 0.4-0.3 0.5-0.9 0-0.3 0-1 0-0.6 0-1-0.3-1.2-1.6-1.2-0.6 0-1 0.3-0.4 0.4-0.5 0.9-0.1 0.4-0.1 1zm4.7 6.3q-0.4-0.3-1-0.3-0.5-0.1-1.6-0.1h-0.5q-1.4 0-1.6 0.1-0.4 0.2-0.7 0.6-0.2 0.3-0.2 0.8 0 0.2 0.1 0.4 0.1 0.4 0.7 0.8 0.5 0.4 1.3 0.5 0.3 0.1 1 0.1 0.6 0 1-0.1 0.7-0.1 1.3-0.5 0.6-0.4 0.7-0.9 0.1-0.1 0.1-0.3 0-0.7-0.6-1.1zm2.9-1.3h0.3 0.3q0.8 0 0.9-0.3v-0.2q0-0.2 0-0.4 0.1-0.3 0.1-0.7 0-0.3 0-0.7 0-0.5 0-0.9 0-0.6 0-1.3 0-0.7 0-1.2l-0.1-0.4q0-0.4-0.3-0.5-0.2-0.2-0.8-0.2h-0.4v-0.5q0-0.4 0-0.4l0.2-0.1q0.2 0 0.6 0 0.4 0 0.7 0 0.3-0.1 0.7-0.1 0.4 0 0.6 0 0.2-0.1 0.2-0.1h0.1v1.4q0.4-0.6 0.8-1 0.5-0.3 1.2-0.3 0.6 0 1 0.2 0.8 0.4 0.8 1.1 0 0.5-0.3 0.8-0.3 0.2-0.7 0.2-0.5 0-0.8-0.2-0.2-0.3-0.2-0.8 0-0.3 0.1-0.5 0.1-0.1 0.1-0.1-0.1-0.1-0.5 0.1-0.3 0.1-0.5 0.3-0.8 0.7-0.9 2.5v0.8q0 0.7 0 1.3 0 0.3 0 0.6 0 0.2 0 0.5 0 0.2 0 0.4 0 0.1 0 0.3v0.1q0.1 0.1 0.2 0.2 0.2 0 1.1 0.1h0.6v0.9h-0.2q-0.3-0.1-2.5-0.1-2 0-2.2 0.1h-0.2zm9.7-7.8q0.3 0 0.7-0.1 0.4 0 0.6 0 0.3 0 0.3 0v3.6q0.1 3.7 0.1 3.8 0.1 0.4 0.3 0.6 0.4 0.3 1.2 0.3 0.5 0 0.9-0.2 1.2-0.6 1.4-2.2 0 0 0-0.3 0-0.3 0-0.8 0-0.5 0-1 0-0.4 0-0.9 0-0.5 0-0.8v-0.3q-0.1-0.4-0.3-0.5-0.2-0.2-0.9-0.2h-0.4v-0.9q0.1 0 1.6-0.1 1.5-0.1 1.5-0.1h0.2v3.5q0 3.6 0 3.7 0.1 0.4 0.3 0.5 0.2 0.1 0.9 0.2h0.3v0.9q0 0-1.5 0.1-1.4 0.1-1.5 0.1h-0.1v-1.4q-0.9 1.1-1.7 1.3-0.3 0.1-1 0.1-1.3 0-2-0.5-0.7-0.4-0.9-1.5 0-0.1 0-2.7-0.1-2.2-0.1-2.5 0-0.2-0.1-0.4-0.2-0.3-1.2-0.3h-0.2v-0.5q0-0.4 0-0.4h0.3q0.2-0.1 0.5-0.1 0.4 0 0.8 0zm9.3 11.7h0.3 0.3q0.8 0 0.9-0.3v-0.2q0-0.1 0-0.4 0-0.2 0-0.6 0.1-0.3 0.1-0.7 0-0.5 0-0.9 0-0.5 0-1 0-0.5 0-1 0-0.7 0-1.4 0-0.8 0-1.4 0-0.5-0.1-1 0-0.5 0-0.8 0-0.3 0-0.3 0-0.4-0.3-0.5-0.2-0.2-0.8-0.2h-0.4v-0.5q0-0.4 0-0.4h0.2q0.2-0.1 0.6-0.1 0.4 0 0.8 0 0.3 0 0.7-0.1 0.4 0 0.6 0 0.2 0 0.2 0h0.1v0.5 0.5l0.2-0.1q1.2-0.9 2.7-0.9 0.5 0 0.7 0 1.4 0.3 2.3 1.5 0.9 1.2 0.9 3 0 0.4 0 0.7-0.2 1.3-1 2.2-0.7 1-2 1.4-0.6 0.2-1.2 0.2-1.4 0-2.4-0.9l-0.2-0.1v1.7q0 1.7 0.1 1.8 0 0.1 0.2 0.2 0.4 0.1 1 0.1h0.3v0.9h-0.2q-0.2-0.1-2.2-0.1-2 0-2.2 0.1h-0.2zm8.1-7.3q0-1.4-0.6-2.5-0.6-1-1.5-1.2-0.1 0-0.2 0 0 0-0.1 0-1.4 0-2.5 1.3v4.8q0.9 1.4 2.3 1.4 0.8 0 1.5-0.7 1.1-1.2 1.1-3.1zm5.6-2.1q-0.3 0.3-0.8 0.3-0.4 0-0.7-0.3-0.3-0.3-0.3-0.8 0-0.2 0.1-0.6 0.3-0.5 1.1-0.8 0.7-0.3 1.9-0.3 1.3 0 2.2 0.6 1 0.6 1.3 1.5 0.1 0.3 0.1 0.7 0 0.3 0 2.2 0 2 0 2.3 0.1 0.4 0.2 0.5 0.1 0.3 0.4 0.3 0.2 0 0.3-0.3 0.2-0.2 0.2-1.1v-0.7h0.8v0.8q-0.1 0.8-0.1 0.9-0.2 0.6-0.7 1-0.4 0.3-1.1 0.3-0.5 0-0.9-0.3-0.4-0.4-0.5-0.9-0.1 0-0.3 0.2-0.1 0.2-0.2 0.3-1 0.8-2.3 0.8-1 0-1.9-0.4-0.8-0.4-1.1-1.2-0.1-0.3-0.1-0.7 0-1 0.8-1.7 0.4-0.5 1.1-0.8 1.4-0.6 3.5-0.7h0.3v-0.5q0-0.7-0.2-1-0.2-0.6-0.7-1-0.5-0.4-1.2-0.4-1.3 0-1.3 0.2 0.4 0.3 0.4 0.8 0 0.5-0.3 0.8zm3.3 2.9q0-1.1-0.1-1.1 0 0-0.1 0-2.7 0.2-3.5 1.6-0.2 0.4-0.2 0.9 0 0.7 0.5 1.1 0.5 0.5 1.2 0.5 0.8 0 1.3-0.5 0.6-0.5 0.8-1.2 0-0.1 0.1-1.3z"/><path class="c" d="m581.8 188.8l103.4 103.4"/><path fill-rule="evenodd" class="b" d="m553.5 200.5c-22.1 0-40-17.9-40-40 0-22.1 17.9-40 40-40 22.1 0 40 17.9 40 40 0 22.1-17.9 40-40 40z"/><path  d="m557.7 162.9q0.2 0 0.3 0.1 0 0 0.1 0 0 0 0 0.1 0 0.1 0 0.3-0.5 1.7-1.1 2.3-0.3 0.3-0.7 0.5-0.1 0-0.4 0-1.3 0-1.8-1-0.1-0.2-0.1-0.2 0 0-0.1 0 0 0-0.1 0.1-0.9 0.9-1.9 1.1-0.1 0-0.5 0-1.3 0-2.1-1.1-0.6-0.9-0.6-2.2 0-0.4 0-0.5 0.1-1.3 0.8-2.4 0.7-1.2 1.7-1.9 1.1-0.9 2.4-0.9 1 0 1.8 1 0.3-0.6 0.9-0.6 0.3 0 0.5 0.1 0.2 0.2 0.2 0.4 0 0.3-0.8 3.2-0.7 3-0.7 3.3 0 0.9 0.5 0.9 0.2 0 0.4-0.2 0.5-0.4 0.9-1.9 0.1-0.4 0.2-0.4 0-0.1 0.2-0.1zm-7.3 1q0 0.7 0.3 1.1 0.3 0.5 0.9 0.5 0.6 0 1.2-0.5 0.3-0.2 0.7-0.6 0.4-0.4 0.5-0.6 0-0.1 0.5-2.1 0.5-2.1 0.5-2.3 0-0.2-0.2-0.6-0.4-0.9-1.3-0.9-0.8 0-1.4 0.7-0.6 0.7-0.9 1.5-0.6 1.6-0.8 3.3 0 0.1 0 0.2 0 0.2 0 0.3z"/><path class="c" d="m685.2 188.8l-103.4 103.4"/><path fill-rule="evenodd" class="b" d="m713.5 200.5c-22.1 0-40-17.9-40-40 0-22.1 17.9-40 40-40 22.1 0 40 17.9 40 40 0 22.1-17.9 40-40 40z"/><path  d="m710.8 152.3q0 0 1.4-0.1 1.5-0.1 1.5-0.1 0.2 0 0.2 0.2 0 0.2-0.7 2.9-0.1 0.6-0.3 1.4-0.2 0.7-0.3 1l-0.1 0.4q0 0.1 0.1 0 0.7-0.6 1.6-0.8 0.2 0 0.5 0 0.2 0 0.5 0 1 0.2 1.6 1.1 0.6 0.8 0.6 2.1 0 2.2-1.5 4-1.6 1.8-3.4 1.8-0.6 0-1.1-0.2-1.6-0.7-1.6-3 0-0.6 0.1-1.1 0-0.1 1-4.1l1-4.1q0.1-0.3-0.1-0.4-0.2 0-0.6 0-0.1 0-0.2 0-0.4 0-0.5-0.1-0.1-0.1 0-0.5 0.1-0.3 0.2-0.3 0-0.1 0.1-0.1zm4.9 7.2q0-1.6-1.2-1.6 0 0-0.1 0-0.1 0-0.1 0-1.1 0.2-2 1.5 0 0-0.1 0.1l-0.1 0.1q0 0-0.3 1.4-0.4 1.4-0.4 1.6-0.1 0.6-0.1 1.1 0 1 0.5 1.5 0.3 0.3 0.8 0.3 0.6 0 1.3-0.7 0.5-0.4 0.8-1.1 0.3-0.7 0.7-2.1 0.3-1.4 0.3-2.1z"/><path class="c" d="m593.5 320.5h80"/><path fill-rule="evenodd" class="b" d="m553.5 360.5c-22.1 0-40-17.9-40-40 0-22.1 17.9-40 40-40 22.1 0 40 17.9 40 40 0 22.1-17.9 40-40 40z"/><path  d="m557.1 323.6q0.1 0 0.3 0.2 0.2 0.2 0.2 0.2 0 0.2-0.6 0.8-1.3 1.1-3.2 1.4-0.4 0-0.8 0-2.1 0-2.9-1.7-0.4-0.8-0.4-1.7 0-0.9 0.4-1.9 0.5-1.5 1.8-2.5 1.4-1.1 2.8-1.2 0.2 0 0.4 0 0.7 0 1.3 0.2 1.1 0.5 1.1 1.5 0 0.6-0.3 1-0.4 0.4-1 0.4-0.4 0-0.6-0.2-0.2-0.2-0.2-0.6 0-0.3 0.2-0.7 0.2-0.3 0.5-0.4 0.2-0.1 0.2-0.1 0.1 0-0.1-0.2-0.4-0.2-1.1-0.2-0.6 0-1.1 0.3-0.4 0.2-0.9 0.6-0.5 0.5-0.8 1.3-0.3 0.7-0.7 2-0.2 1-0.2 1.5 0 0.9 0.5 1.4 0.5 0.5 1.3 0.5 0.3 0 0.6-0.1 1.9-0.2 3.1-1.6 0.2-0.2 0.2-0.2z"/><path fill-rule="evenodd" class="b" d="m713.5 360.5c-22.1 0-40-17.9-40-40 0-22.1 17.9-40 40-40 22.1 0 40 17.9 40 40 0 22.1-17.9 40-40 40z"/><path  d="m716.8 312.2q0.3 0 0.6 0 0.4 0 0.6-0.1 0.2 0 0.2 0 0.3 0 0.3 0.2 0 0.1-1.5 6-1.5 5.9-1.5 6 0 0.1 0 0.3 0 0.9 0.5 0.9 0.2 0 0.4-0.2 0.5-0.4 0.9-1.9 0.1-0.4 0.2-0.4 0-0.1 0.2-0.1 0.4 0 0.4 0.2 0 0.1 0 0.3-0.5 1.7-1.1 2.3-0.3 0.3-0.7 0.5-0.1 0-0.4 0-1.3 0-1.8-1-0.1-0.2-0.1-0.2 0 0-0.1 0 0 0-0.1 0.1-0.9 0.9-1.9 1.1-0.1 0-0.5 0-1.3 0-2.1-1.1-0.6-0.9-0.6-2.2 0-1.9 1.3-3.7 1.3-1.5 2.8-1.9 0.4-0.1 0.8-0.1 1.1 0 1.7 0.8 0.1 0.1 0.1 0.1 0-0.1 0.5-2.2 0.6-2.1 0.6-2.2 0-0.3-0.1-0.3-0.3-0.1-0.8-0.1h-0.5q-0.1-0.2-0.1-0.2 0 0 0.1-0.4 0.1-0.4 0.2-0.4 0 0 0.2 0 0.2 0 0.6 0 0.3 0 0.7-0.1zm-1.8 7.3q-0.4-1.6-1.5-1.6-0.8 0-1.4 0.7-0.6 0.7-0.9 1.5-0.6 1.6-0.8 3.3 0 0.1 0 0.2 0 0.2 0 0.3 0 0.7 0.3 1.1 0.3 0.5 0.9 0.5 1 0 2.2-1.5l0.2-0.2q0.1-0.7 0.5-2.1 0.4-1.5 0.5-2.2z"/><path class="c" d="m752.2 150.5q21.3 0 21.3 10 0 10-14.9 10"/><path class="g" d="m753.4 170.5l7-3.5-1.8 3.5 1.8 3.5z"/><path fill-rule="evenodd" class="d" d="m603.5 383.5h60v30h-60z"/><path  d="m628.4 402.4q-2.3 0-3.9-1.4-1.5-1.5-1.5-4 0-2.4 1.5-4.7 0.9-1.4 2.2-2.4 1.3-1.1 2.9-1.6 1.2-0.4 2.2-0.4 0.7 0 0.8 0 1.2 0.2 2.1 1 0 0.1 0.1 0.2 0.1 0.2 0.2 0.3 0.1 0.1 0.1 0.1 0.1 0 0.6-0.5 0.1-0.1 0.3-0.3 0.1-0.1 0.3-0.3 0.2-0.2 0.2-0.2l0.3-0.3h0.1q0.3 0 0.3 0.1 0 0.1-0.6 2.8-0.8 2.8-0.8 2.8 0 0.1-0.1 0.1 0 0-0.3 0h-0.3q-0.1-0.1-0.2-0.1 0 0 0.1-0.3 0-0.4 0-0.9 0-1.7-0.7-2.6-0.7-1-2.1-1-1.1 0-2.3 0.5-2 0.9-3.2 2.8-1.2 2-1.5 4.7-0.1 0.4-0.1 0.8 0 1.1 0.4 2 1 1.8 3.4 1.9h0.2q1 0 1.9-0.4 0.9-0.5 1.3-1.2 0-0.2 0.3-1.1 0.2-1 0.2-1.1 0-0.1-0.3-0.2-0.2 0-1.1 0h-0.8q-0.1-0.2-0.1-0.2 0 0 0-0.4 0.1-0.2 0.2-0.4h0.4q0.8 0.1 2.8 0.1 0.5 0 1.2 0 0.7 0 1 0 0.3 0 0.3 0.1 0 0.1 0 0.3 0 0.1-0.1 0.2 0 0.1 0 0.1 0 0 0 0.1-0.1 0-0.1 0 0 0-0.1 0.1-0.1 0-0.2 0-0.4 0-0.8 0-0.2 0.1-0.3 0.2v0.3q-0.1 0.3-0.3 0.8-0.1 0.6-0.2 1-0.1 0.3-0.1 0.5-0.1 0.3-0.1 0.5-0.1 0.1-0.1 0.3-0.1 0.2-0.1 0.3 0 0.1-0.1 0.2 0 0.1 0 0.2 0 0.1-0.1 0.1 0 0.1 0 0.1 0 0-0.1 0 0 0-0.1 0-0.2-0.1-0.5-0.5-0.3-0.3-0.4-0.5 0-0.1 0 0-0.1 0-0.2 0.1-0.6 0.6-1.7 1-1.1 0.3-2.3 0.3zm10.9-1.5q-0.3 0-0.5-0.2-0.2-0.2-0.2-0.5 0-0.9 0.6-1.5 0.7-0.6 1.5-0.6 1 0 1.7 0.6 0.7 0.5 0.8 1.4 0 0.2 0 0.4 0 0.6-0.4 1.2-0.3 0.5-1.3 1.4-0.4 0.3-1.2 1l-0.6 0.7h0.8q1.9 0 2 0 0-0.1 0.1-0.3 0.1-0.1 0.2-0.8h0.4l-0.3 2.1v0.1h-4.3v-0.2q0-0.3 0-0.3 0 0 1-1.1 1.3-1.4 1.6-1.9 0.8-1 0.8-1.9 0-0.8-0.4-1.3-0.4-0.5-1.1-0.5-0.7 0-1.1 0.6 0 0-0.1 0.1 0 0.1 0 0.1 0 0 0 0 0.3 0 0.5 0.2 0.2 0.2 0.2 0.5 0 0.3-0.2 0.5-0.2 0.2-0.5 0.2z"/><path fill-rule="evenodd" class="d" d="m923.5 383.5h60v30h-60z"/><path  d="m948.4 402.4q-2.3 0-3.9-1.4-1.5-1.5-1.5-4 0-2.4 1.5-4.7 0.9-1.4 2.2-2.4 1.3-1.1 2.9-1.6 1.2-0.4 2.2-0.4 0.7 0 0.8 0 1.2 0.2 2.1 1 0 0.1 0.1 0.2 0.1 0.2 0.2 0.3 0.1 0.1 0.1 0.1 0.1 0 0.6-0.5 0.1-0.1 0.3-0.3 0.1-0.1 0.3-0.3 0.2-0.2 0.2-0.2l0.3-0.3h0.1q0.3 0 0.3 0.1 0 0.1-0.6 2.8-0.8 2.8-0.8 2.8 0 0.1-0.1 0.1 0 0-0.3 0h-0.3q-0.1-0.1-0.2-0.1 0 0 0.1-0.3 0-0.4 0-0.9 0-1.7-0.7-2.6-0.7-1-2.1-1-1.1 0-2.3 0.5-2 0.9-3.2 2.8-1.2 2-1.5 4.7-0.1 0.4-0.1 0.8 0 1.1 0.4 2 1 1.8 3.4 1.9h0.2q1 0 1.9-0.4 0.9-0.5 1.3-1.2 0-0.2 0.3-1.1 0.2-1 0.2-1.1 0-0.1-0.3-0.2-0.2 0-1.1 0h-0.8q-0.1-0.2-0.1-0.2 0 0 0-0.4 0.1-0.2 0.2-0.4h0.4q0.8 0.1 2.8 0.1 0.5 0 1.2 0 0.7 0 1 0 0.3 0 0.3 0.1 0 0.1 0 0.3 0 0.1-0.1 0.2 0 0.1 0 0.1 0 0 0 0.1-0.1 0-0.1 0 0 0-0.1 0.1-0.1 0-0.2 0-0.4 0-0.8 0-0.2 0.1-0.3 0.2v0.3q-0.1 0.3-0.3 0.8-0.1 0.6-0.2 1-0.1 0.3-0.1 0.5-0.1 0.3-0.1 0.5-0.1 0.1-0.1 0.3-0.1 0.2-0.1 0.3 0 0.1-0.1 0.2 0 0.1 0 0.2 0 0.1-0.1 0.1 0 0.1 0 0.1 0 0-0.1 0 0 0-0.1 0-0.2-0.1-0.5-0.5-0.3-0.3-0.4-0.5 0-0.1 0 0-0.1 0-0.2 0.1-0.6 0.6-1.7 1-1.1 0.3-2.3 0.3zm11.1-1.9q-0.3 0-0.5-0.2-0.2-0.2-0.2-0.5 0-0.7 0.5-1.1 0.6-0.5 1.2-0.6h0.2q0.4 0 0.5 0 0.4 0.1 0.8 0.3 0.8 0.4 1 1.1 0 0.1 0 0.3 0 0.7-0.4 1.2-0.4 0.6-1.1 0.8 0 0 0 0 0 0 0.1 0.1 0.7 0.2 1.2 0.7 0.5 0.6 0.5 1.2 0 0.5-0.2 1-0.3 0.6-0.9 1-0.6 0.3-1.4 0.3-0.8 0-1.4-0.3-0.6-0.3-0.8-0.9-0.1-0.2-0.1-0.5 0-0.4 0.2-0.6 0.2-0.2 0.5-0.2 0.4 0 0.6 0.2 0.2 0.3 0.2 0.6 0 0.2-0.2 0.4-0.1 0.2-0.4 0.3h-0.1q0.7 0.5 1.5 0.5 0.6 0 0.9-0.6 0.2-0.4 0.2-1.2v-0.2q0-1.1-0.7-1.5-0.2 0-0.7-0.1h-0.5q-0.1 0-0.1-0.2 0-0.1 0.1-0.1 0-0.1 0-0.1 0.4 0 0.7 0 0.5-0.1 0.8-0.6 0.3-0.5 0.3-1.2 0-0.8-0.5-1.1-0.2-0.1-0.5-0.1-0.6 0-1 0.3-0.1 0-0.1 0.1-0.1 0-0.1 0.1h-0.1q0.1 0 0.1 0 0.3 0.1 0.4 0.3 0.2 0.2 0.2 0.4 0 0.3-0.2 0.5-0.2 0.2-0.5 0.2z"/><path class="c" d="m901.8 292.2l103.4-103.4"/><path fill-rule="evenodd" class="b" d="m873.5 360.5c-22.1 0-40-17.9-40-40 0-22.1 17.9-40 40-40 22.1 0 40 17.9 40 40 0 22.1-17.9 40-40 40z"/><path  d="m878.6 318.1q0.5 0 0.5 0.2 0 0.1-0.1 0.3-0.6 2.2-2.1 4.2l-0.2 0.3v0.4q0.1 1.7 0.4 1.9 0.1 0.1 0.2 0.1 0.3-0.1 0.5-0.2 0.2-0.2 0.3-0.5 0.1-0.1 0.1-0.2 0.1 0 0.3 0 0.4 0 0.4 0.2 0 0.1-0.1 0.3-0.2 0.5-0.6 0.8-0.4 0.3-1 0.3h-0.1q-1.4 0-1.8-1.4l-0.1-0.2q-1 0.7-1.2 0.8-1.4 0.8-2.9 0.8-1.5 0-2.3-0.8-0.9-0.8-1.1-2.1 0-0.1 0-0.4 0-0.5 0-0.9 0.3-1.8 1.8-3.2 1.4-1.4 3.2-1.6 0.1 0 0.2 0 0.2 0 0.3 0 1.3 0 2.2 0.7 0.8 0.7 1.2 2 0.1 0.6 0.1 1.4v0.5q1-1.4 1.5-3.3 0.1-0.3 0.1-0.3 0.1-0.1 0.3-0.1zm-9.2 5.5q0 0.9 0.5 1.4 0.4 0.5 1.3 0.5 0.5 0 1.1-0.2 1.1-0.3 2.2-1.1 0.1-0.1 0.3-0.2 0.1-0.1 0.2-0.2h0.1l-0.1-0.2q0-0.2 0-0.5 0-0.4 0-0.7 0-0.8 0-1.2 0-0.4-0.1-1-0.1-0.7-0.2-1-0.1-0.3-0.3-0.7-0.2-0.3-0.6-0.4-0.3-0.2-0.7-0.2-1.4 0-2.4 1.5-0.5 0.7-0.9 2-0.4 1.4-0.4 2.2z"/><path class="c" d="m901.8 188.8l103.4 103.4"/><path fill-rule="evenodd" class="b" d="m873.5 200.5c-22.1 0-40-17.9-40-40 0-22.1 17.9-40 40-40 22.1 0 40 17.9 40 40 0 22.1-17.9 40-40 40z"/><path  d="m867.8 169.9h-0.2q-0.1-0.1-0.1-0.2 0 0 1.5-6.4 1.6-6.3 1.7-6.6 0.6-1.7 1.5-2.9 0.5-0.7 1-1 0.9-0.7 2-0.9 0 0 0.2 0 0.1 0 0.2 0 1.3 0 2.1 0.8 0.8 0.7 0.8 1.9 0 1-0.6 1.9-0.6 0.9-1.5 1.6l0.2 0.2q1.1 1.1 1.1 2.7 0 2-1.5 3.4-1.4 1.5-3.3 1.8-0.2 0-0.8 0-1.7 0-2.5-1.4l-0.1-0.1-1.3 5.1q0 0.1-0.4 0.1zm6.3-12.5q0.7 0 1.4 0.2l0.2-0.1q1-0.8 1.3-2.7 0.1-0.2 0.1-0.7 0-0.3-0.1-0.4-0.2-1-1.5-1-0.4 0-0.7 0-1 0.3-1.9 1.4-0.9 1.1-1.4 2.8-0.1 0.3-0.8 2.9-0.6 2.7-0.7 2.8 0 0.1 0 0.5 0 1.1 0.6 1.7 0.6 0.7 1.6 0.7 1.8 0 2.8-1.4 1-1.5 1.1-3.6v-0.1q0-1.1-0.7-1.8-0.8 0.2-1.7 0.2-1.5 0-1.5-0.6 0-0.1 0-0.3 0.3-0.5 1.9-0.5z"/><path class="c" d="m1033.5 280.5v-80"/><path fill-rule="evenodd" class="b" d="m1033.5 360.5c-22.1 0-40-17.9-40-40 0-22.1 17.9-40 40-40 22.1 0 40 17.9 40 40 0 22.1-17.9 40-40 40z"/><path  d="m1035 324q0-5.1-3.1-5.1-0.9 0-1.8 0.5-0.8 0.6-1.1 1.4 0 0.2-0.1 0.2 0 0-0.3 0-0.4 0-0.4-0.2 0 0 0.1-0.4 0.5-1.3 1.4-2.2 1-0.9 2.2-1h0.2q0.6 0 0.7 0 0.9 0.2 1.6 1.1 0.6 0.8 1 2.6 0.3 1.2 0.3 1.7 0 0.1 0 0.1 0.1-0.2 0.3-0.6 0.7-1.9 1.7-3.9 0.4-0.8 0.5-0.8 0 0 0.3 0h0.2q0.2 0.1 0.2 0.2 0 0-0.4 0.7-1.6 3.2-2.7 6.3-0.1 0.3-0.1 0.6-0.2 1.4-0.6 2.8-0.5 2.1-0.9 2.3 0 0-0.1 0-0.4 0-0.4-0.5 0-0.2 0-0.4 0.2-1.2 1.1-4l0.1-0.4v-0.4q0.1-0.2 0.1-0.6z"/><path fill-rule="evenodd" class="b" d="m1033.5 200.5c-22.1 0-40-17.9-40-40 0-22.1 17.9-40 40-40 22.1 0 40 17.9 40 40 0 22.1-17.9 40-40 40z"/><path  d="m1038 152.8q0 0.3-0.3 0.7-0.2 0.3-0.6 0.3-0.3 0-0.3-0.1-0.3-0.1-0.7-0.4-0.7-0.6-1.1-0.7-0.1 0-0.2 0-0.6 0-0.9 0.4-0.2 0.2-0.2 0.4 0 0.9 2 3.3 0.7 0.9 1 1.6 0.3 0.8 0.3 1.9 0 1.9-0.8 3.6-0.8 1.5-2 2.1-0.6 0.3-1.1 0.3h-0.1q-0.9 0-1.6-0.4-0.7-0.3-1.2-1.1-0.5-0.8-0.5-1.8 0-0.5 0.1-1 0.4-2 2.2-3.5 0.8-0.7 2-1.1 0-0.1-0.1-0.2-0.1-0.2-0.1-0.3-0.8-1.6-0.9-2.7 0-0.1 0-0.3 0-0.8 0.5-1.3 0.4-0.6 1.2-0.8 0.1 0 0.4 0 0.4 0 1.4 0.2 1 0.2 1.3 0.3 0.3 0.2 0.3 0.6zm-6.8 10.6q0 0.9 0.5 1.5 0.5 0.6 1.4 0.6 0.5 0 0.9-0.5 0.6-0.5 0.9-1.5 0.4-1.1 0.4-2.1 0-0.7-0.1-1.3-0.2-0.7-0.3-1-0.1-0.3-0.5-1.1l-0.2 0.1q-1.9 0.6-2.6 3.1-0.4 1.4-0.4 2.2z"/><path class="c" d="m912.2 150.5q21.3 0 21.3 10 0 10-14.9 10"/><path class="g" d="m913.4 170.5l7-3.5-1.8 3.5 1.8 3.5z"/><path fill-rule="evenodd" class="d" d="m593.5 470.5h400v30h-400z"/><path  d="m691.7 483.5h0.3q0.5 0.1 3.2 0.1 0.2 0 0.5 0 0.4 0 0.6 0 0.2 0 0.6 0 0.3 0 0.4 0 0.2-0.1 0.2-0.1h0.2v1h-0.3-0.2q-0.7 0-0.8 0.2-0.1 0.1-0.1 2.1v2.1q-0.1 0.1-0.2 0.1 0 0-0.3-0.2-0.5-0.3-0.8-0.6l-0.3-0.3q-0.3 0.7-1.6 1.2-1 0.3-2 0.3-0.7 0-1.3-0.1-2.2-0.4-3.8-2.1-1.5-1.7-1.9-4.2 0-0.2 0-0.8 0-0.7 0-0.9 0.4-2.4 1.9-4.1 1.6-1.7 3.8-2.2 0.6-0.1 1-0.1 0.1 0 0.2 0 0.1 0 0.2 0 0.4 0 0.6 0.1 1.5 0.2 2.6 1.3l0.2 0.2 0.6-0.8q0.6-0.7 0.7-0.8 0 0 0 0 0.1 0 0.2 0 0.1 0 0.2 0.1v5.6l-0.1 0.1h-0.7q-0.1-0.1-0.1-0.3-0.2-1.6-1-2.8-0.8-1.2-1.9-1.6-0.4-0.2-1-0.2-2.1 0-3.5 1.4-1.5 1.6-1.5 5.1 0 3.1 1.5 4.7 1.4 1.5 3.6 1.5 1 0 1.7-0.4 0.7-0.4 0.9-1.1 0-0.2 0-1.2v-1q-0.3-0.3-0.4-0.3-0.4 0-1.5 0h-0.6zm7.7 4.5h0.3 0.3q0.8 0 0.9-0.3v-0.1q0-0.2 0-0.5 0.1-0.3 0.1-0.6 0-0.4 0-0.8 0-0.4 0-0.8 0-0.7 0-1.4 0-0.7 0-1.1l-0.1-0.5q0-0.4-0.3-0.5-0.2-0.1-0.8-0.2h-0.4v-0.4q0-0.5 0-0.5h0.2q0.2 0 0.6-0.1 0.4 0 0.7 0 0.3 0 0.7 0 0.4-0.1 0.6-0.1 0.2 0 0.2 0h0.1v1.4q0.4-0.7 0.8-1 0.5-0.4 1.2-0.4 0.6 0 1 0.2 0.8 0.4 0.8 1.2 0 0.4-0.3 0.7-0.3 0.3-0.7 0.3-0.5 0-0.8-0.3-0.2-0.3-0.2-0.7 0-0.4 0.1-0.6 0.1-0.1 0.1-0.1-0.1 0-0.5 0.1-0.3 0.2-0.5 0.3-0.8 0.8-0.9 2.5v0.8q0 0.8 0 1.3 0 0.3 0 0.6 0 0.3 0 0.5 0 0.2 0 0.4 0 0.2 0 0.3v0.1q0.1 0.2 0.2 0.2 0.2 0.1 1.1 0.1h0.6v0.9h-0.2q-0.3 0-2.5 0-2 0-2.2 0h-0.2zm10.7-5.5q-0.3 0.3-0.8 0.3-0.4 0-0.7-0.3-0.3-0.3-0.3-0.7 0-0.3 0.1-0.7 0.3-0.5 1.1-0.8 0.7-0.3 1.9-0.3 1.3 0 2.2 0.6 1 0.6 1.3 1.5 0.1 0.3 0.1 0.7 0 0.3 0 2.3 0 1.9 0 2.3 0.1 0.3 0.2 0.5 0.1 0.2 0.4 0.2 0.2 0 0.3-0.2 0.2-0.3 0.2-1.1v-0.8h0.8v0.8q-0.1 0.8-0.1 1-0.2 0.5-0.7 0.9-0.4 0.4-1.1 0.4-0.5 0-0.9-0.4-0.4-0.3-0.5-0.8v-0.1q-0.1 0-0.3 0.3-0.1 0.2-0.2 0.2-1 0.9-2.3 0.9-1 0-1.9-0.5-0.8-0.4-1.1-1.1-0.1-0.4-0.1-0.8 0-0.9 0.8-1.7 0.4-0.5 1.1-0.8 1.4-0.6 3.5-0.7h0.3v-0.5q0-0.6-0.2-1-0.2-0.6-0.7-1-0.5-0.4-1.2-0.4-1.3 0-1.3 0.2 0.4 0.3 0.4 0.9 0 0.4-0.3 0.7zm3.3 2.9q0-1.1-0.1-1.1 0 0-0.1 0-2.7 0.2-3.5 1.6-0.2 0.4-0.2 0.9 0 0.7 0.5 1.2 0.5 0.4 1.2 0.4 0.8 0 1.3-0.5 0.6-0.4 0.8-1.1 0-0.2 0.1-1.4zm9.2 3.5h-0.1q-0.4 0-2.6 0-1.9 0-2.2 0h-0.2v-0.9h0.3q0.6 0 1 0 0.2-0.1 0.3-0.3 0 0 0-3.2v-3.3h-1.4v-0.9h1.4v-1.3-1.3-0.2q0.4-1.1 1.2-1.8 0.8-0.7 2-0.8 0 0 0.2 0 0.2-0.1 0.3-0.1 0.7 0.1 1.2 0.5 0.4 0.4 0.4 1.1 0 0.5-0.2 0.7-0.3 0.3-0.8 0.3-0.4 0-0.7-0.3-0.3-0.2-0.3-0.7 0-0.4 0.4-0.8h-0.1q-0.2 0-0.5 0-0.4 0.1-0.8 0.5-0.4 0.4-0.6 1-0.1 0.4-0.2 1.9v1.3h2.3v0.9h-2.2v3.2q0 3.3 0 3.3 0.1 0.2 0.3 0.2 0.2 0.1 1 0.1h0.6zm3-13.4q0.5 0.1 0.8 0.4 0.4 0.3 0.4 0.8 0 0.8-0.6 1.1-0.2 0.1-0.6 0.1-0.4 0-0.7-0.1-0.5-0.3-0.5-1.1 0-0.5 0.3-0.8 0.4-0.4 0.9-0.4zm2.5 13.4h-0.2q-0.2 0-2 0-1.9 0-2.2 0h-0.2v-0.9h0.3q0.6 0 1-0.1 0.2 0 0.3-0.2 0 0 0-2.9 0-3-0.1-3.2-0.2-0.4-1.2-0.4h-0.2v-0.4q0-0.5 0-0.5h0.2q0.2 0 0.6-0.1 0.4 0 0.7 0 0.4 0 0.7 0 0.4-0.1 0.6-0.1 0.2 0 0.2 0h0.1v7.6q0.1 0.2 0.2 0.2 0.2 0.1 0.7 0.1h0.5zm11.3 0.4q-2.3 0-3.9-1.4-1.5-1.5-1.5-4 0-2.4 1.5-4.7 0.9-1.4 2.2-2.4 1.3-1.1 2.9-1.6 1.2-0.4 2.2-0.4 0.7 0 0.8 0 1.2 0.2 2.1 1 0 0.1 0.1 0.2 0.1 0.2 0.2 0.3 0.1 0.1 0.1 0.1 0.1 0 0.6-0.5 0.1-0.1 0.3-0.3 0.1-0.1 0.3-0.3 0.2-0.2 0.2-0.2l0.3-0.3h0.1q0.3 0 0.3 0.1 0 0.1-0.6 2.8-0.8 2.8-0.8 2.8 0 0.1-0.1 0.1 0 0-0.3 0h-0.3q-0.1-0.1-0.2-0.1 0 0 0.1-0.3 0-0.4 0-0.9 0-1.7-0.7-2.6-0.7-1-2.1-1-1.1 0-2.3 0.5-2 0.9-3.2 2.8-1.2 2-1.5 4.7-0.1 0.4-0.1 0.8 0 1.1 0.4 2 1 1.8 3.4 1.9h0.2q1 0 1.9-0.4 0.9-0.5 1.3-1.2 0-0.2 0.3-1.1 0.2-1 0.2-1.1 0-0.1-0.3-0.2-0.2 0-1.1 0h-0.8q-0.1-0.2-0.1-0.2 0 0 0-0.4 0.1-0.2 0.2-0.4h0.4q0.8 0.1 2.8 0.1 0.5 0 1.2 0 0.7 0 1 0 0.3 0 0.3 0.1 0 0.1 0 0.3 0 0.1-0.1 0.2 0 0.1 0 0.1 0 0 0 0.1-0.1 0-0.1 0 0 0-0.1 0.1-0.1 0-0.2 0-0.4 0-0.8 0-0.2 0.1-0.3 0.2v0.3q-0.1 0.3-0.3 0.8-0.1 0.6-0.2 1-0.1 0.3-0.1 0.5-0.1 0.3-0.1 0.5-0.1 0.1-0.1 0.3-0.1 0.2-0.1 0.3 0 0.1-0.1 0.2 0 0.1 0 0.2 0 0.1-0.1 0.1 0 0.1 0 0.1 0 0-0.1 0 0 0-0.1 0-0.2-0.1-0.5-0.5-0.3-0.3-0.4-0.5 0-0.1 0 0-0.1 0-0.2 0.1-0.6 0.6-1.7 1-1.1 0.3-2.3 0.3zm10.9-1.5q-0.3 0-0.5-0.2-0.2-0.2-0.2-0.5 0-0.9 0.6-1.5 0.7-0.6 1.5-0.6 1 0 1.7 0.6 0.7 0.5 0.8 1.4 0 0.2 0 0.4 0 0.6-0.4 1.2-0.3 0.5-1.3 1.4-0.4 0.3-1.2 1l-0.6 0.7h0.8q1.9 0 2 0 0-0.1 0.1-0.3 0.1-0.1 0.2-0.8h0.4l-0.3 2.1v0.1h-4.3v-0.2q0-0.3 0-0.3 0 0 1-1.1 1.3-1.4 1.6-1.9 0.8-1 0.8-1.9 0-0.8-0.4-1.3-0.4-0.5-1.1-0.5-0.7 0-1.1 0.6 0 0-0.1 0.1 0 0.1 0 0.1 0 0 0 0 0.3 0 0.5 0.2 0.2 0.2 0.2 0.5 0 0.3-0.2 0.5-0.2 0.2-0.5 0.2zm11.8-7.6q0.3 0 0.7-0.1 0.4 0 0.6 0 0.3 0 0.3 0v3.6q0.1 3.7 0.1 3.8 0.1 0.4 0.3 0.6 0.4 0.3 1.2 0.3 0.5 0 0.9-0.2 1.2-0.6 1.4-2.2 0 0 0-0.3 0-0.3 0-0.8 0-0.5 0-1 0-0.4 0-0.9 0-0.5 0-0.8v-0.3q-0.1-0.4-0.3-0.5-0.2-0.2-0.9-0.2h-0.4v-0.9q0.1 0 1.6-0.1 1.5-0.1 1.5-0.1h0.2v3.5q0 3.6 0 3.7 0.1 0.4 0.3 0.5 0.2 0.1 0.9 0.2h0.3v0.9q0 0-1.5 0.1-1.4 0.1-1.5 0.1h-0.1v-1.4q-0.9 1.1-1.7 1.3-0.3 0.1-1 0.1-1.3 0-2-0.5-0.7-0.4-0.9-1.5 0-0.1 0-2.7-0.1-2.2-0.1-2.5 0-0.2-0.1-0.4-0.2-0.3-1.2-0.3h-0.2v-0.5q0-0.4 0-0.4h0.3q0.2-0.1 0.5-0.1 0.4 0 0.8 0zm12.7 7.4v0.1q0.1 0.3 0.9 0.3h0.3 0.3v0.9h-0.2q-0.2-0.1-2.2-0.1-2 0-2.2 0.1h-0.2v-0.9h0.3 0.3q0.8 0 0.9-0.3v-0.2q0-0.1 0-0.4 0-0.3 0-0.6 0.1-0.4 0.1-0.8 0-0.5 0-0.9 0-0.6-0.1-1.3 0-0.7 0-1.2v-0.4q0-0.4-0.3-0.5-0.2-0.2-0.8-0.2h-0.4v-0.5q0-0.4 0-0.4h0.2q0.2-0.1 0.6-0.1 0.4 0 0.7 0 0.4 0 0.8-0.1 0.3 0 0.5 0 0.2 0 0.3 0v0.8q0 0.7 0 0.7h0.1q1-1.5 3-1.5 2.3 0 2.6 2.2 0 0.2 0 2.8 0 2.6 0 2.6 0.1 0.2 0.2 0.2 0.5 0.1 1 0.1h0.3v0.9h-0.1q-0.3-0.1-2.3-0.1-1.9 0-2.2 0.1h-0.2v-0.9h0.4 0.1q1.1 0 1.1-0.3 0-0.1 0-2.8 0-2.7 0-2.9-0.2-0.6-0.5-0.9-0.3-0.3-0.9-0.3-0.9 0-1.6 0.7-0.7 0.7-0.8 1.8 0 0 0 0.3 0 0.4-0.1 0.9 0 0.6 0 1 0 0.3 0 0.7 0 0.3 0 0.6 0.1 0.2 0.1 0.4 0 0.2 0 0.4zm18.6 1.7q-2.3 0-3.9-1.4-1.5-1.5-1.5-4 0-2.4 1.5-4.7 0.9-1.4 2.2-2.4 1.3-1.1 2.9-1.6 1.2-0.4 2.2-0.4 0.7 0 0.8 0 1.2 0.2 2.1 1 0 0.1 0.1 0.2 0.1 0.2 0.2 0.3 0.1 0.1 0.1 0.1 0.1 0 0.6-0.5 0.1-0.1 0.3-0.3 0.1-0.1 0.3-0.3 0.2-0.2 0.2-0.2l0.3-0.3h0.1q0.3 0 0.3 0.1 0 0.1-0.6 2.8-0.8 2.8-0.8 2.8 0 0.1-0.1 0.1 0 0-0.3 0h-0.3q-0.1-0.1-0.2-0.1 0 0 0.1-0.3 0-0.4 0-0.9 0-1.7-0.7-2.6-0.7-1-2.1-1-1.1 0-2.3 0.5-2 0.9-3.2 2.8-1.2 2-1.5 4.7-0.1 0.4-0.1 0.8 0 1.1 0.4 2 1 1.8 3.4 1.9h0.2q1 0 1.9-0.4 0.9-0.5 1.3-1.2 0-0.2 0.3-1.1 0.2-1 0.2-1.1 0-0.1-0.3-0.2-0.2 0-1.1 0h-0.8q-0.1-0.2-0.1-0.2 0 0 0-0.4 0.1-0.2 0.2-0.4h0.4q0.8 0.1 2.8 0.1 0.5 0 1.2 0 0.7 0 1 0 0.3 0 0.3 0.1 0 0.1 0 0.3 0 0.1-0.1 0.2 0 0.1 0 0.1 0 0 0 0.1-0.1 0-0.1 0 0 0-0.1 0.1-0.1 0-0.2 0-0.4 0-0.8 0-0.2 0.1-0.3 0.2v0.3q-0.1 0.3-0.3 0.8-0.1 0.6-0.2 1-0.1 0.3-0.1 0.5-0.1 0.3-0.1 0.5-0.1 0.1-0.1 0.3-0.1 0.2-0.1 0.3 0 0.1-0.1 0.2 0 0.1 0 0.2 0 0.1-0.1 0.1 0 0.1 0 0.1 0 0-0.1 0 0 0-0.1 0-0.2-0.1-0.5-0.5-0.3-0.3-0.4-0.5 0-0.1 0 0-0.1 0-0.2 0.1-0.6 0.6-1.7 1-1.1 0.3-2.3 0.3zm11.1-1.9q-0.3 0-0.5-0.2-0.2-0.2-0.2-0.5 0-0.7 0.5-1.1 0.6-0.5 1.2-0.6h0.2q0.4 0 0.5 0 0.4 0.1 0.8 0.3 0.8 0.4 1 1.1 0 0.1 0 0.3 0 0.7-0.4 1.2-0.4 0.6-1.1 0.8 0 0 0 0 0 0 0.1 0.1 0.7 0.2 1.2 0.7 0.5 0.6 0.5 1.2 0 0.5-0.2 1-0.3 0.6-0.9 1-0.6 0.3-1.4 0.3-0.8 0-1.4-0.3-0.6-0.3-0.8-0.9-0.1-0.2-0.1-0.5 0-0.4 0.2-0.6 0.2-0.2 0.5-0.2 0.4 0 0.6 0.2 0.2 0.3 0.2 0.6 0 0.2-0.2 0.4-0.1 0.2-0.4 0.3h-0.1q0.7 0.5 1.5 0.5 0.6 0 0.9-0.6 0.2-0.4 0.2-1.2v-0.2q0-1.1-0.7-1.5-0.2 0-0.7-0.1h-0.5q-0.1 0-0.1-0.2 0-0.1 0.1-0.1 0-0.1 0-0.1 0.4 0 0.7 0 0.5-0.1 0.8-0.6 0.3-0.5 0.3-1.2 0-0.8-0.5-1.1-0.2-0.1-0.5-0.1-0.6 0-1 0.3-0.1 0-0.1 0.1-0.1 0-0.1 0.1h-0.1q0.1 0 0.1 0 0.3 0.1 0.4 0.3 0.2 0.2 0.2 0.4 0 0.3-0.2 0.5-0.2 0.2-0.5 0.2zm12.1-11.9q0.5 0.1 0.8 0.4 0.4 0.3 0.4 0.8 0 0.7-0.6 1-0.2 0.2-0.6 0.2-0.4 0-0.7-0.2-0.5-0.3-0.5-1 0-0.5 0.3-0.9 0.4-0.3 0.9-0.3zm2.5 13.4h-0.2q-0.2-0.1-2-0.1-1.9 0-2.2 0.1h-0.2v-0.9h0.3q0.6 0 1-0.1 0.2 0 0.3-0.2 0 0 0-2.9 0-3-0.1-3.2-0.2-0.4-1.2-0.4h-0.2v-0.5q0-0.4 0-0.4h0.2q0.2-0.1 0.6-0.1 0.4 0 0.7 0 0.4 0 0.7-0.1 0.4 0 0.6 0 0.2 0 0.2 0h0.1v7.6q0.1 0.2 0.2 0.2 0.2 0.1 0.7 0.1h0.5zm0.3-0.9h0.3 0.3q0.8 0 0.9-0.3v-0.2q0-0.2 0-0.4 0.1-0.3 0.1-0.7 0-0.3 0-0.7 0-0.5 0-0.9 0-0.6 0-1.3 0-0.7 0-1.2l-0.1-0.4q0-0.4-0.3-0.5-0.2-0.2-0.8-0.2h-0.4v-0.5q0-0.4 0-0.4l0.2-0.1q0.2 0 0.6 0 0.4 0 0.7 0 0.3-0.1 0.7-0.1 0.4 0 0.6 0 0.2-0.1 0.2-0.1h0.1v1.4q0.4-0.6 0.8-1 0.5-0.3 1.2-0.3 0.6 0 1 0.2 0.8 0.4 0.8 1.1 0 0.5-0.3 0.8-0.3 0.2-0.7 0.2-0.5 0-0.8-0.2-0.2-0.3-0.2-0.8 0-0.3 0.1-0.5 0.1-0.1 0.1-0.1-0.1-0.1-0.5 0.1-0.3 0.1-0.5 0.3-0.8 0.7-0.9 2.5v0.8q0 0.7 0 1.3 0 0.3 0 0.6 0 0.2 0 0.5 0 0.2 0 0.4 0 0.1 0 0.3v0.1q0.1 0.1 0.2 0.2 0.2 0 1.1 0.1h0.6v0.9h-0.2q-0.3-0.1-2.5-0.1-2 0-2.2 0.1h-0.2zm15.2-12.5q0.5 0.1 0.8 0.4 0.4 0.3 0.4 0.8 0 0.7-0.6 1-0.2 0.2-0.6 0.2-0.4 0-0.7-0.2-0.5-0.3-0.5-1 0-0.5 0.3-0.9 0.4-0.3 0.9-0.3zm2.5 13.4h-0.2q-0.2-0.1-2-0.1-1.9 0-2.2 0.1h-0.2v-0.9h0.3q0.6 0 1-0.1 0.2 0 0.3-0.2 0 0 0-2.9 0-3-0.1-3.2-0.2-0.4-1.2-0.4h-0.2v-0.5q0-0.4 0-0.4h0.2q0.2-0.1 0.6-0.1 0.4 0 0.7 0 0.4 0 0.7-0.1 0.4 0 0.6 0 0.2 0 0.2 0h0.1v7.6q0.1 0.2 0.2 0.2 0.2 0.1 0.7 0.1h0.5zm1.7-5.1v-0.2q0 0 0.1-1.6 0.1-1.5 0.2-1.6v-0.1h6.8q0.1 0.1 0.1 0.3 0 0.2 0 0.2l-0.4 0.5q-0.3 0.5-1 1.4-0.7 0.9-1.3 1.8l-2.6 3.6h0.9q1.3 0 1.8-0.1 0.8-0.1 1.2-0.7 0.4-0.5 0.6-2.1v-0.3q0-0.1 0.4-0.1h0.4v0.2q0 0-0.1 1.9-0.2 1.8-0.2 1.9v0.1h-3.5-3.5l-0.1-0.1q0-0.1 0-0.3 0-0.2 0-0.2 0-0.1 2.6-3.6 2.6-3.6 2.7-3.7h-1.2q-1.3 0-1.7 0.1-0.5 0.1-0.7 0.4-0.5 0.5-0.7 2.1v0.2zm8.8 0.8q0-1.8 1.1-3.1 1.2-1.3 2.8-1.5 0.3-0.1 0.5-0.1 1.7 0 3 1.3 1.4 1.4 1.4 3.4 0 0.4-0.1 0.9-0.2 1.3-1.1 2.2-0.9 0.9-2.2 1.3-0.4 0.1-1 0.1-0.6 0-1.1-0.1-1.5-0.4-2.4-1.6-0.9-1.2-0.9-2.8zm4.8-3.9q-0.1 0-0.4 0-0.6 0-1.1 0.2-1.1 0.6-1.3 2.2-0.1 0.3-0.1 1.3 0 1.9 0.4 2.7 0.6 1.2 2.1 1.2 2.4 0 2.4-3.3v-0.6q0-1.3-0.1-1.8-0.3-1.6-1.9-1.9zm8.4 6.9v0.1q0.1 0.3 0.9 0.3h0.3 0.3v0.9h-0.2q-0.2-0.1-2.2-0.1-2 0-2.2 0.1h-0.2v-0.9h0.3 0.3q0.8 0 0.9-0.3v-0.2q0-0.2 0-0.4 0-0.3 0-0.7 0.1-0.3 0.1-0.7 0-0.5 0-0.9 0-0.6-0.1-1.3 0-0.7 0-1.2v-0.4q0-0.4-0.3-0.5-0.2-0.2-0.8-0.2h-0.4v-0.5q0-0.4 0-0.4l0.2-0.1q0.2 0 0.6 0 0.4 0 0.7 0 0.4-0.1 0.8-0.1 0.3 0 0.5 0 0.2-0.1 0.3-0.1v0.8q0 0.8 0 0.8h0.1q1-1.6 3-1.6 2 0.1 2.4 1.6v0.1q0.5-0.6 0.6-0.7 1-1 2.4-1 2.5 0 2.7 2.3 0 0.1 0 2.8 0 2.5 0 2.6 0.1 0.1 0.3 0.2 0.4 0.1 1 0.1h0.3v0.9h-0.2q-0.2-0.1-2.2-0.1-2 0-2.3 0.1h-0.1v-0.9h0.3 0.2q1 0 1-0.4 0 0 0-2.7 0-2.7 0-2.9-0.1-0.6-0.5-0.9-0.3-0.3-0.9-0.3-0.9 0-1.6 0.7-0.7 0.7-0.8 1.7 0 0.1 0 0.4 0 0.4 0 0.9 0 0.5 0 1 0 0.3 0 0.7 0 0.3 0 0.5 0 0.3 0 0.5 0 0.2 0 0.4v0.1q0.2 0.3 0.9 0.3h0.3 0.3v0.9h-0.1q-0.3-0.1-2.3-0.1-1.9 0-2.2 0.1h-0.2v-0.9h0.4 0.1q1.1 0 1.1-0.4 0 0 0-2.7 0-2.7 0-2.9-0.2-0.6-0.5-0.9-0.3-0.3-0.9-0.3-0.9 0-1.6 0.7-0.7 0.7-0.8 1.7 0 0.1 0 0.4 0 0.4-0.1 0.9 0 0.5 0 1 0 0.3 0 0.7 0 0.3 0 0.5 0.1 0.3 0.1 0.5 0 0.2 0 0.4zm12.8-3q0-1.8 1.1-3.1 1.2-1.3 2.8-1.5 0.3-0.1 0.5-0.1 1.7 0 3 1.3 1.4 1.4 1.4 3.4 0 0.4-0.1 0.9-0.2 1.3-1.1 2.2-0.9 0.9-2.2 1.3-0.4 0.1-1 0.1-0.6 0-1.1-0.1-1.5-0.4-2.4-1.6-0.9-1.2-0.9-2.8zm4.8-3.9q-0.1 0-0.4 0-0.6 0-1.1 0.2-1.1 0.6-1.3 2.2-0.1 0.3-0.1 1.3 0 1.9 0.4 2.7 0.6 1.2 2.1 1.2 2.4 0 2.4-3.3v-0.6q0-1.3-0.1-1.8-0.3-1.6-1.9-1.9zm5 7.3h0.3 0.3q0.8 0 0.9-0.3v-0.2q0-0.2 0-0.4 0.1-0.3 0.1-0.7 0-0.3 0-0.7 0-0.5 0-0.9 0-0.6 0-1.3 0-0.7 0-1.2l-0.1-0.4q0-0.4-0.3-0.5-0.2-0.2-0.8-0.2h-0.4v-0.5q0-0.4 0-0.4l0.2-0.1q0.2 0 0.6 0 0.4 0 0.7 0 0.3-0.1 0.7-0.1 0.4 0 0.6 0 0.2-0.1 0.2-0.1h0.1v1.4q0.4-0.6 0.8-1 0.5-0.3 1.2-0.3 0.6 0 1 0.2 0.8 0.4 0.8 1.1 0 0.5-0.3 0.8-0.3 0.2-0.7 0.2-0.5 0-0.8-0.2-0.2-0.3-0.2-0.8 0-0.3 0.1-0.5 0.1-0.1 0.1-0.1-0.1-0.1-0.5 0.1-0.3 0.1-0.5 0.3-0.8 0.7-0.9 2.5v0.8q0 0.7 0 1.3 0 0.3 0 0.6 0 0.2 0 0.5 0 0.2 0 0.4 0 0.1 0 0.3v0.1q0.1 0.1 0.2 0.2 0.2 0 1.1 0.1h0.6v0.9h-0.2q-0.3-0.1-2.5-0.1-2 0-2.2 0.1h-0.2zm13.2 0.9h-0.1q-0.4-0.1-2.6-0.1-1.9 0-2.2 0.1h-0.2v-0.9h0.3q0.6 0 1-0.1 0.2 0 0.3-0.2 0 0 0-3.3v-3.2h-1.4v-0.9h1.4v-1.3-1.4-0.2q0.4-1.1 1.2-1.8 0.8-0.6 2-0.8 0 0 0.2 0 0.2 0 0.3 0 0.7 0 1.2 0.5 0.4 0.4 0.4 1.1 0 0.4-0.2 0.7-0.3 0.3-0.8 0.3-0.4 0-0.7-0.3-0.3-0.3-0.3-0.7 0-0.4 0.4-0.8h-0.1q-0.2-0.1-0.5 0-0.4 0-0.8 0.5-0.4 0.4-0.6 1-0.1 0.4-0.2 1.9v1.3h2.3v0.9h-2.2v3.2q0 3.2 0 3.3 0.1 0.1 0.3 0.2 0.2 0.1 1 0.1h0.6zm3-13.4q0.5 0 0.8 0.4 0.4 0.3 0.4 0.8 0 0.7-0.6 1-0.2 0.2-0.6 0.2-0.4 0-0.7-0.2-0.5-0.3-0.5-1 0-0.6 0.3-0.9 0.4-0.3 0.9-0.3zm2.5 13.4h-0.2q-0.2-0.1-2-0.1-1.9 0-2.2 0.1h-0.2v-0.9h0.3q0.6 0 1-0.1 0.2-0.1 0.3-0.2 0-0.1 0-2.9 0-3-0.1-3.2-0.2-0.4-1.2-0.4h-0.2v-0.5q0-0.4 0-0.4l0.2-0.1q0.2 0 0.6 0 0.4 0 0.7 0 0.4-0.1 0.7-0.1 0.4 0 0.6 0 0.2-0.1 0.2-0.1h0.1v7.6q0.1 0.2 0.2 0.3 0.2 0 0.7 0.1h0.5z"/></svg>