<svg version="1.2" xmlns="http://www.w3.org/2000/svg" viewBox="0 0 641 129" width="641" height="129"><style>.a{fill:#fff}.b{fill:#fff;stroke:#000;stroke-width:2}.c{stroke:#000;stroke-width:1.5}.d{stroke:#000;stroke-miterlimit:10}.e{opacity:.8}</style><path fill-rule="evenodd" class="a" d="m641 0v129h-641v-129z"/><path fill-rule="evenodd" class="b" d="m40.5 128.5c-22.1 0-40-17.9-40-40 0-22.1 17.9-40 40-40 22.1 0 40 17.9 40 40 0 22.1-17.9 40-40 40z"/><path  d="m39.1 86.6q-0.3 0.3-0.8 0.3-0.4 0-0.7-0.3-0.3-0.3-0.3-0.8 0-0.3 0.1-0.6 0.3-0.6 1.1-0.9 0.7-0.3 1.9-0.3 1.3 0 2.2 0.6 1 0.6 1.3 1.6 0.1 0.3 0.1 0.6 0 0.4 0 2.3 0 2 0 2.3 0.1 0.3 0.2 0.5 0.1 0.3 0.4 0.3 0.2 0 0.3-0.3 0.2-0.2 0.2-1.1v-0.7h0.8v0.8q-0.1 0.8-0.1 0.9-0.2 0.6-0.7 1-0.4 0.3-1.1 0.3-0.5 0-0.9-0.3-0.4-0.4-0.5-0.9v-0.1q-0.1 0.1-0.3 0.3-0.1 0.2-0.2 0.3-1 0.8-2.3 0.8-1 0-1.9-0.4-0.8-0.5-1.1-1.2-0.1-0.4-0.1-0.7 0-1 0.8-1.8 0.4-0.4 1.1-0.7 1.4-0.6 3.5-0.8h0.3v-0.4q0-0.7-0.2-1-0.2-0.7-0.7-1-0.5-0.4-1.2-0.4-1.3 0-1.3 0.1 0.4 0.3 0.4 0.9 0 0.5-0.3 0.8zm3.3 2.9q0-1.2-0.1-1.2 0 0-0.1 0.1-2.7 0.1-3.5 1.6-0.2 0.4-0.2 0.9 0 0.7 0.5 1.1 0.5 0.5 1.2 0.5 0.8 0 1.3-0.5 0.6-0.5 0.8-1.2 0-0.1 0.1-1.3z"/><path class="c" d="m80.5 88.5h113.6"/><path class="d" d="m199.4 88.5l-7 3.5 1.7-3.5-1.7-3.5z"/><path fill-rule="evenodd" class="b" d="m240.5 128.5c-22.1 0-40-17.9-40-40 0-22.1 17.9-40 40-40 22.1 0 40 17.9 40 40 0 22.1-17.9 40-40 40z"/><path  d="m237 79.2q0.3 0 0.7 0 0.4 0 0.6-0.1 0.2 0 0.2 0h0.1v3q0 3.1 0 3.1 0.1-0.1 0.1-0.1 1.1-0.9 2.8-0.9 0.3 0 0.6 0 1.4 0.3 2.4 1.5 0.9 1.2 0.9 3 0 0.4 0 0.7-0.3 1.6-1.4 2.7-1.2 1.1-2.9 1.1-1.5 0-2.6-1.2l-0.1-0.1-0.2 0.4q-0.1 0-0.2 0.2 0 0.1-0.1 0.2 0 0.1 0 0.1l-0.1 0.2h-0.4-0.4v-6q0-6-0.1-6.1 0-0.3-0.3-0.5-0.2-0.1-0.8-0.1h-0.4v-0.5q0-0.5 0-0.5h0.2q0.2 0 0.6 0 0.4 0 0.8-0.1zm4.6 5.8q-0.5-0.1-0.6-0.1-1.4 0-2.2 1.2l-0.2 0.1v4.8l0.1 0.2q0.6 0.9 1.6 1.2 0.2 0.1 0.6 0.1 1.3 0 2-1.1 0.2-0.2 0.3-0.7 0.3-0.7 0.3-1.9 0-1.5-0.3-2.3-0.4-1.2-1.6-1.5z"/><path fill-rule="evenodd" class="e" d="m90.4 15.2q0 3-1.9 5.1-2 2.1-4.7 2.1-0.6 0-1 0-2.1-0.4-3.7-2-1.5-1.6-1.9-3.9-0.1-0.5-0.1-1.3 0-2.7 1.7-4.8 0.6-0.7 1-1.1 1.5-1.2 3.4-1.4 0.2 0 0.6 0 2.1 0 3.9 1.4 0.5 0.4 1.1 1.1 1.3 1.6 1.6 3.9 0 0.4 0 0.9zm-5.1-6.1q-0.8-0.4-1.5-0.4-0.8 0-1.6 0.4-1 0.5-1.7 1.6-0.7 1-0.9 2.5-0.1 0.6-0.1 1.7 0 4.2 2 5.9 1 0.8 2.3 0.8 0.4 0 0.5 0 1.4-0.3 2.4-1.6 1.4-1.7 1.4-5.1 0-1.1-0.1-1.7-0.5-3-2.7-4.1zm6.1 12h0.6q0.8 0 0.9-0.3c0-0.1 0-0.4 0-0.6q0.1-0.3 0.1-0.6 0-0.4 0-0.8 0-0.5 0-0.9 0-0.6 0-1.3 0-0.7 0-1.2l-0.1-0.4q0-0.4-0.3-0.5-0.2-0.2-0.8-0.2h-0.4c0-0.3 0-0.9 0-0.9h0.2q0.2-0.1 0.6-0.1 0.4 0 0.7 0 0.3 0 0.7-0.1 0.4 0 0.6 0 0.2 0 0.2 0h0.1v1.3q0.4-0.6 0.8-1 0.5-0.3 1.2-0.3 0.6 0 1 0.2 0.8 0.4 0.8 1.1 0 0.5-0.3 0.8-0.3 0.3-0.7 0.3-0.5 0-0.8-0.3-0.2-0.3-0.2-0.7 0-0.4 0.1-0.6 0.1-0.1 0.1-0.1-0.1 0-0.5 0.1-0.3 0.1-0.5 0.3-0.8 0.7-0.9 2.5c0 0.5 0 1.8 0 2.1q0 0.3 0 0.6 0 0.3 0 0.5 0 0.2 0 0.4 0 0.2 0 0.3v0.1q0.1 0.1 0.2 0.2 0.2 0.1 1.1 0.1h0.6v0.9h-0.2q-0.3-0.1-2.5-0.1-2 0-2.2 0.1h-0.2zm10.2-12.5q0.5 0.1 0.8 0.4 0.4 0.3 0.4 0.8 0 0.8-0.6 1.1-0.2 0.1-0.6 0.1-0.4 0-0.7-0.1-0.5-0.3-0.5-1.1 0-0.5 0.3-0.8 0.4-0.4 0.9-0.4zm2.5 13.4c-0.1 0-1 0-2.2 0q-1.9 0-2.2 0h-0.2v-0.9h0.3q0.6 0 1-0.1 0.2 0 0.3-0.2 0 0 0-2.9 0-3-0.1-3.2-0.2-0.4-1.2-0.4h-0.2c0-0.3 0-0.9 0-0.9h0.2q0.2 0 0.6-0.1 0.4 0 0.7 0 0.4 0 0.7 0 0.4-0.1 0.6-0.1 0.2 0 0.2 0h0.1v7.6q0.1 0.2 0.2 0.2 0.2 0.1 0.7 0.1h0.5zm9.2-4.9q0 0.1-0.1 0.3h-5.7v0.3q0 1.5 0.4 2.2 0.7 1.5 2.5 1.5 0.9 0 1.4-0.6 0.4-0.4 0.7-1.1 0-0.2 0.1-0.3 0 0 0.3 0 0.4 0 0.4 0.2 0 0.1-0.1 0.2-0.3 1.1-1.2 1.8-0.8 0.6-2 0.6-0.4 0-0.9-0.1-1.1-0.2-2-1-0.9-0.8-1.3-2-0.2-0.7-0.2-1.5 0-1.8 1-3.1 1.1-1.2 2.7-1.4 0.1-0.1 0.3-0.1 1.8 0 2.7 1.1 1 1.1 1 3zm-1.6-0.4v-0.2q-0.2-2.2-1.5-2.6-0.2-0.1-0.4-0.1-1.1 0-1.7 0.9-0.4 0.7-0.6 1.8v0.2zm5.1 4v0.1q0.2 0.3 1 0.3h0.6v0.9h-0.2q-0.2-0.1-2.2-0.1-2 0-2.3 0.1h-0.1v-0.9h0.6q0.8 0 0.9-0.3c0-0.1 0-0.4 0-0.6q0-0.3 0-0.6 0-0.4 0-0.8 0-0.5 0-0.9 0-0.6 0-1.3 0-0.7 0-1.2v-0.4q0-0.4-0.3-0.5-0.2-0.2-0.9-0.2h-0.3c0-0.3 0-0.9 0-0.9h0.2q0.2-0.1 0.6-0.1 0.4 0 0.7 0 0.4 0 0.7-0.1 0.4 0 0.6 0 0.2 0 0.2 0h0.1c0 0.5 0 1.5 0 1.5q1.1-1.5 3.1-1.5 2.3 0 2.5 2.2 0.1 0.2 0.1 2.8 0 2.6 0 2.6 0.1 0.2 0.2 0.2 0.4 0.1 1 0.1h0.3v0.9h-0.1q-0.3-0.1-2.3-0.1-2 0-2.2 0.1h-0.2v-0.9h0.5q1.1 0 1.1-0.3 0-0.1 0-2.8 0-2.7-0.1-2.9-0.1-0.6-0.4-0.9-0.3-0.3-1-0.3-0.9 0-1.5 0.7-0.7 0.7-0.9 1.8 0 0 0 0.3 0 0.4 0 0.9 0 0.6 0 1 0 0.3 0 0.7 0 0.3 0 0.6 0 0.2 0 0.4 0 0.2 0 0.4zm11.1-10.7v-0.3h0.8v3.7h2.7v0.9h-2.7c0 1.7 0 5.5 0 5.7q0 0.3 0.2 0.6 0.2 0.8 0.9 0.8 0.9 0 1.1-1.4 0-0.2 0-0.9v-0.7h0.8v0.7q0 0.9-0.1 1.3-0.2 0.8-0.7 1.3-0.5 0.5-1.4 0.5-1.1 0-1.7-0.6-0.7-0.6-0.8-1.6 0-0.1 0-3v-2.7h-1.6v-0.7h0.2q0.8-0.1 1.3-0.7 0.9-0.9 1-2.9zm12.5 7.1q0 0.1-0.2 0.3h-5.6v0.3q0 1.5 0.4 2.2 0.7 1.5 2.5 1.5 0.8 0 1.4-0.6 0.4-0.4 0.6-1.1 0.1-0.2 0.2-0.3 0 0 0.3 0 0.4 0 0.4 0.2 0 0.1-0.1 0.2-0.4 1.1-1.2 1.8-0.8 0.6-2 0.6-0.4 0-0.9-0.1-1.1-0.2-2-1-0.9-0.8-1.3-2-0.3-0.7-0.3-1.5 0-1.8 1.1-3.1 1.1-1.2 2.7-1.4 0.1-0.1 0.3-0.1 1.8 0 2.7 1.1 1 1.1 1 3zm-1.7-0.4v-0.2q-0.1-2.2-1.4-2.6-0.2-0.1-0.5-0.1-1 0-1.7 0.9-0.4 0.7-0.5 1.8v0.2zm2-5.6h-7.3v-0.9h7.3zm4.2-1.1v-0.3h0.8v3.7h2.7v0.9h-2.7c0 1.7 0 5.5 0 5.7q0 0.3 0.1 0.6 0.3 0.8 1 0.8 0.9 0 1.1-1.4 0-0.2 0-0.9v-0.7h0.8v0.7q0 0.9-0.1 1.3-0.2 0.8-0.7 1.3-0.6 0.5-1.4 0.5-1.1 0-1.7-0.6-0.7-0.6-0.8-1.6 0-0.2 0-3v-2.7h-1.6v-0.8h0.2q0.7 0 1.3-0.6 0.9-1 1-2.9zm9 3.7q-1.9 0-1.9 1.3 0 0.3 0.1 0.3 0.1 0.5 0.6 0.7 0.4 0.2 1.3 0.4 1.2 0.2 1.6 0.5 1.3 0.6 1.6 1.9 0 0.2 0 0.5 0 0.8-0.2 1.4-0.8 1.5-3 1.5-1.2 0-2.1-0.7c-0.1 0.1-0.4 0.4-0.5 0.5l-0.3 0.2h-0.1q-0.2 0-0.3-0.1c0-0.9 0-3 0-3.1q0-0.2 0.1-0.2 0.1-0.1 0.3-0.1 0.3 0 0.3 0.1 0.1 0 0.2 0.3 0.1 0.7 0.5 1.3 0.7 1.1 1.9 1.1 2 0 2-1.6 0-0.6-0.4-0.9-0.3-0.4-0.8-0.6-0.4-0.1-1-0.2-1.1-0.2-1.5-0.4-1.3-0.6-1.6-1.9 0-0.1 0-0.3 0-2.3 2.8-2.6 0.1 0 0.5 0 0.8 0 1.4 0.3l0.3 0.2 0.2-0.1q0.3-0.3 0.4-0.4h0.2q0.1 0 0.3 0.1v2.7l-0.2 0.1h-0.5q-0.1-0.1-0.1-0.2 0-1-0.6-1.5-0.6-0.5-1.5-0.5zm15.5 0l0.2 0.1q0.9-0.9 2-0.9 0.5 0 0.8 0.3 0.4 0.4 0.4 0.9 0 0.3-0.2 0.5-0.2 0.2-0.6 0.2-0.6 0-0.7-0.6 0-0.3 0.1-0.4 0-0.1 0-0.1-0.1 0-0.2 0-0.5 0.1-0.9 0.4-0.1 0.1-0.1 0.2 0 0 0 0.1 0.7 0.8 0.7 1.7 0 0.9-0.5 1.6-1 1.4-2.9 1.4-1 0-2-0.5-0.2 0.4-0.2 0.7 0 0.7 0.5 1.1 0.2 0.1 0.4 0.1 0.1 0 1.4 0 1.7 0 2.2 0.1 1.2 0.2 1.9 0.9 0.8 0.7 0.8 1.9 0 0.4-0.1 0.5-0.3 1-1.5 1.6-1.2 0.6-2.8 0.6-1.7 0-2.9-0.6-1.2-0.6-1.5-1.6-0.1-0.1-0.1-0.4 0-0.8 0.7-1.4 0.3-0.3 0.6-0.5l0.2-0.1q-0.7-0.6-0.7-1.7 0-0.9 0.6-1.7-0.9-0.9-0.9-2 0-0.8 0.5-1.6 0.5-0.6 1.2-1 0.8-0.4 1.7-0.4 1 0 1.9 0.6zm-3.5 2.4q0 1.1 0.3 1.7 0.4 0.5 1.3 0.5 0.6 0 1-0.3 0.4-0.3 0.5-0.9 0.1-0.3 0.1-1 0-0.6-0.1-1-0.2-1.2-1.5-1.2-0.6 0-1 0.3-0.4 0.4-0.5 0.9-0.1 0.4-0.1 1zm4.7 6.3q-0.5-0.3-1-0.3-0.6-0.1-1.6-0.1h-0.6q-1.3 0-1.6 0.1-0.4 0.2-0.6 0.6-0.2 0.3-0.2 0.8 0 0.2 0 0.4 0.2 0.4 0.7 0.8 0.6 0.4 1.3 0.5 0.4 0.1 1.1 0.1 0.6 0 1-0.1 0.7-0.1 1.3-0.5 0.5-0.4 0.7-0.9 0-0.1 0-0.3 0-0.7-0.5-1.1zm2.9-1.3h0.6q0.7 0 0.9-0.3c0-0.1 0-0.5 0-0.6q0-0.3 0-0.7 0-0.3 0-0.7 0-0.5 0-0.9 0-0.6 0-1.3 0-0.7 0-1.2v-0.4q-0.1-0.4-0.3-0.5-0.2-0.2-0.9-0.2h-0.3c0-0.3 0-0.9 0-0.9l0.2-0.1q0.2 0 0.6 0 0.3 0 0.7 0 0.3-0.1 0.7-0.1 0.4 0 0.6 0 0.2-0.1 0.2-0.1v1.4q0.4-0.6 0.9-1 0.4-0.3 1.2-0.3 0.6 0 1 0.2 0.7 0.4 0.7 1.1 0 0.5-0.3 0.8-0.3 0.2-0.7 0.2-0.4 0-0.7-0.2-0.3-0.3-0.3-0.8 0-0.3 0.2-0.5 0-0.1 0-0.1 0-0.1-0.4 0.1-0.4 0.1-0.5 0.3-0.8 0.7-0.9 2.5v0.8q-0.1 0.7-0.1 1.3 0 0.3 0 0.6 0 0.2 0 0.5 0.1 0.2 0.1 0.4 0 0.1 0 0.3v0.1q0 0.1 0.2 0.2 0.2 0 1.1 0.1h0.6v0.9h-0.2q-0.4-0.1-2.5-0.1-2 0-2.3 0.1h-0.1zm9.6-5.5q-0.3 0.3-0.7 0.3-0.5 0-0.8-0.3-0.3-0.3-0.3-0.8 0-0.3 0.2-0.6 0.2-0.6 1-0.9 0.8-0.3 1.9-0.3 1.3 0 2.3 0.6 1 0.6 1.3 1.6 0.1 0.3 0.1 0.6 0 0.4 0 2.3 0 2 0 2.3 0 0.3 0.1 0.5 0.1 0.3 0.4 0.3 0.3 0 0.4-0.3 0.1-0.2 0.1-1.1v-0.7h0.8c0 0.5 0 1.6 0 1.7q-0.2 0.6-0.7 1-0.5 0.3-1.1 0.3-0.5 0-0.9-0.3-0.4-0.4-0.6-0.9v-0.1q0 0.1-0.2 0.3-0.2 0.2-0.3 0.3-0.9 0.8-2.2 0.8-1.1 0-1.9-0.4-0.8-0.5-1.1-1.2-0.2-0.4-0.2-0.7 0-1 0.8-1.8 0.5-0.4 1.2-0.7 1.3-0.6 3.4-0.8h0.3v-0.4q0-0.7-0.1-1-0.2-0.7-0.7-1-0.5-0.4-1.2-0.4-1.4 0-1.4 0.1 0.5 0.3 0.5 0.9 0 0.5-0.4 0.8zm3.3 2.9q0-1.2 0-1.2-0.1 0-0.1 0.1-2.7 0.1-3.5 1.6-0.2 0.4-0.2 0.9 0 0.7 0.5 1.1 0.4 0.5 1.1 0.5 0.8 0 1.4-0.5 0.6-0.5 0.8-1.2 0-0.1 0-1.3zm9.3 3.5h-0.2q-0.3-0.1-2.5-0.1-2 0-2.3 0.1h-0.1v-0.9h0.3q0.6 0 1-0.1 0.1 0 0.2-0.2 0 0 0-3.3v-3.2h-1.4v-0.9h1.4v-1.3l0.1-1.4v-0.2q0.3-1.1 1.1-1.8 0.9-0.6 2.1-0.8 0 0 0.2 0 0.1 0 0.2 0 0.7 0 1.2 0.5 0.5 0.4 0.5 1.1 0 0.4-0.3 0.7-0.3 0.3-0.7 0.3-0.5 0-0.8-0.3-0.2-0.3-0.2-0.7 0-0.4 0.3-0.8h-0.1q-0.1-0.1-0.4 0-0.5 0-0.9 0.5-0.4 0.4-0.6 1-0.1 0.4-0.1 1.9v1.3h2.2v0.9h-2.1c0 2.1 0 6.4 0 6.5q0.1 0.1 0.2 0.2 0.2 0.1 1.1 0.1h0.6zm5.2-8.3q-1.9 0-1.9 1.3 0 0.3 0.1 0.3 0.1 0.5 0.6 0.7 0.4 0.2 1.3 0.4 1.2 0.2 1.6 0.5 1.3 0.6 1.6 1.9 0 0.2 0 0.5 0 0.8-0.2 1.4-0.8 1.5-3 1.5-1.2 0-2.1-0.7c-0.1 0.1-0.4 0.4-0.5 0.5l-0.3 0.2h-0.1q-0.2 0-0.3-0.1c0-0.9 0-3 0-3.1q0-0.2 0.1-0.2 0.1-0.1 0.3-0.1 0.3 0 0.3 0.1 0.1 0 0.2 0.3 0.1 0.7 0.5 1.3 0.7 1.1 1.9 1.1 2 0 2-1.6 0-0.6-0.4-0.9-0.3-0.4-0.8-0.6-0.4-0.1-1-0.2-1.1-0.2-1.5-0.4-1.3-0.6-1.6-1.9 0-0.1 0-0.3 0-2.3 2.8-2.6 0.1 0 0.5 0 0.8 0 1.4 0.3l0.3 0.2 0.2-0.1q0.3-0.3 0.4-0.4h0.2q0.1 0 0.3 0.1v2.7l-0.2 0.1h-0.5q-0.1-0.1-0.1-0.2 0-1-0.6-1.5-0.6-0.5-1.5-0.5z"/><path fill-rule="evenodd" class="b" d="m400.5 128.5c-22.1 0-40-17.9-40-40 0-22.1 17.9-40 40-40 22.1 0 40 17.9 40 40 0 22.1-17.9 40-40 40z"/><path  d="m398.1 86.6q-0.3 0.3-0.8 0.3-0.4 0-0.7-0.3-0.3-0.3-0.3-0.8 0-0.3 0.1-0.6 0.3-0.6 1.1-0.9 0.7-0.3 1.9-0.3 1.3 0 2.2 0.6 1 0.6 1.3 1.6 0.1 0.3 0.1 0.6 0 0.4 0 2.3 0 2 0 2.3 0.1 0.3 0.2 0.5 0.1 0.3 0.4 0.3 0.2 0 0.3-0.3 0.2-0.2 0.2-1.1v-0.7h0.8v0.8q-0.1 0.8-0.1 0.9-0.2 0.6-0.7 1-0.4 0.3-1.1 0.3-0.5 0-0.9-0.3-0.4-0.4-0.5-0.9v-0.1q-0.1 0.1-0.3 0.3-0.1 0.2-0.2 0.3-1 0.8-2.3 0.8-1 0-1.9-0.4-0.8-0.5-1.1-1.2-0.1-0.4-0.1-0.7 0-1 0.8-1.8 0.4-0.4 1.1-0.7 1.4-0.6 3.5-0.8h0.3v-0.4q0-0.7-0.2-1-0.2-0.7-0.7-1-0.5-0.4-1.2-0.4-1.3 0-1.3 0.1 0.4 0.3 0.4 0.9 0 0.5-0.3 0.8zm3.3 2.9q0-1.2-0.1-1.2 0 0-0.1 0.1-2.7 0.1-3.5 1.6-0.2 0.4-0.2 0.9 0 0.7 0.5 1.1 0.5 0.5 1.2 0.5 0.8 0 1.3-0.5 0.6-0.5 0.8-1.2 0-0.1 0.1-1.3z"/><path class="c" d="m440.5 88.5h120"/><path fill-rule="evenodd" class="b" d="m600.5 128.5c-22.1 0-40-17.9-40-40 0-22.1 17.9-40 40-40 22.1 0 40 17.9 40 40 0 22.1-17.9 40-40 40z"/><path  d="m596 79.2q0.3 0 0.7 0 0.4 0 0.6-0.1 0.2 0 0.2 0h0.1v3q0 3.1 0 3.1 0.1-0.1 0.1-0.1 1.1-0.9 2.8-0.9 0.3 0 0.6 0 1.4 0.3 2.4 1.5 0.9 1.2 0.9 3 0 0.4 0 0.7-0.3 1.6-1.4 2.7-1.2 1.1-2.9 1.1-1.5 0-2.6-1.2l-0.1-0.1-0.2 0.4q-0.1 0-0.2 0.2 0 0.1-0.1 0.2 0 0.1 0 0.1l-0.1 0.2h-0.4-0.4v-6q0-6-0.1-6.1 0-0.3-0.3-0.5-0.2-0.1-0.8-0.1h-0.4v-0.5q0-0.5 0-0.5h0.2q0.2 0 0.6 0 0.4 0 0.8-0.1zm4.6 5.8q-0.5-0.1-0.6-0.1-1.4 0-2.2 1.2l-0.2 0.1v4.8l0.1 0.2q0.6 0.9 1.6 1.2 0.2 0.1 0.6 0.1 1.3 0 2-1.1 0.2-0.2 0.3-0.7 0.3-0.7 0.3-1.9 0-1.5-0.3-2.3-0.4-1.2-1.6-1.5z"/><path fill-rule="evenodd" d="m431.5 22h-0.2q-0.3-0.1-2.3-0.1-2.1 0-2.3 0.1h-0.2v-0.9h0.3q1.4-0.1 1.7-0.7l0.1-0.1v-11c-0.1 0-1.2 0-2.1 0v-1h4.1l0.1 0.1q0 0 1.7 2.5 1.8 2.5 3.5 5l1.7 2.5v-8.4q-0.4-0.7-1.8-0.7h-0.3v-1h0.2q0.3 0.1 2.3 0.1 2 0 2.3-0.1h0.2v1h-0.4q-1.4 0-1.7 0.7v11.9q0 0-0.1 0.1h-0.3q-0.3 0-0.4-0.1-0.1-0.1-4.1-6-4-5.8-4.1-6v10.4q0.3 0.7 1.7 0.8h0.4zm17.8-4.9q0 0.1-0.1 0.3h-5.7v0.3q0 1.4 0.4 2.2 0.7 1.5 2.5 1.5 0.9 0 1.4-0.7 0.4-0.4 0.7-1 0-0.2 0.1-0.3 0 0 0.3 0 0.4 0 0.4 0.2 0 0-0.1 0.2-0.3 1.1-1.2 1.7-0.8 0.7-2 0.7-0.4 0-0.9-0.1-1.1-0.2-2-1-0.9-0.9-1.3-2-0.2-0.7-0.2-1.5 0-1.8 1-3.1 1.1-1.3 2.7-1.5 0.1 0 0.3 0 1.8 0 2.7 1.1 1 1.1 1 3zm-1.6-0.5v-0.1q-0.2-2.2-1.5-2.7-0.2 0-0.4 0-1.1 0-1.7 0.9-0.4 0.7-0.6 1.8v0.1zm2.9 1.1q0-1.8 1.2-3.1 1.2-1.3 2.8-1.5 0.3-0.1 0.5-0.1 1.7 0 3 1.3 1.4 1.4 1.4 3.4 0 0.4-0.1 0.9-0.2 1.3-1.1 2.2-0.9 0.9-2.2 1.3-0.4 0.1-1 0.1-0.6 0-1.1-0.1-1.5-0.4-2.4-1.6-1-1.2-1-2.8zm4.8-3.9q-0.1 0-0.3 0-0.6 0-1.1 0.2-1.1 0.6-1.4 2.2 0 0.3 0 1.3 0 1.9 0.4 2.7 0.6 1.2 2.1 1.2 2.4 0 2.4-3.3v-0.6q0-1.3-0.1-1.8-0.3-1.6-2-1.9zm5.1 7.3h0.6q0.8 0 0.9-0.3c0-0.1 0-0.5 0-0.6q0-0.3 0-0.7 0-0.3 0-0.7 0-0.5 0-0.9 0-0.6 0-1.3c0-0.5 0-1.3 0-1.6q0-0.4-0.3-0.5-0.2-0.2-0.9-0.2h-0.3c0-0.3 0-0.9 0-0.9l0.2-0.1q0.2 0 0.6 0 0.3 0 0.7 0 0.3-0.1 0.7-0.1 0.4 0 0.6 0 0.2-0.1 0.2-0.1h0.1v1.4q0.3-0.6 0.8-1 0.5-0.3 1.2-0.3 0.6 0 1 0.2 0.8 0.4 0.8 1.1 0 0.5-0.3 0.8-0.3 0.2-0.8 0.2-0.4 0-0.7-0.2-0.3-0.3-0.3-0.8 0-0.3 0.2-0.5 0-0.1 0-0.1 0-0.1-0.4 0.1-0.3 0.1-0.5 0.3-0.8 0.7-0.9 2.5c0 0.5 0 1.7 0 2.1q0 0.3 0 0.6 0 0.2 0 0.5 0 0.2 0 0.4c0 0.1 0 0.3 0 0.4q0.1 0.1 0.2 0.2 0.2 0 1.1 0.1h0.6v0.9h-0.2q-0.3-0.1-2.5-0.1-2 0-2.3 0.1h-0.1zm10.2-12.5q0.5 0.1 0.8 0.4 0.3 0.3 0.3 0.8 0 0.7-0.5 1-0.3 0.2-0.6 0.2-0.4 0-0.7-0.2-0.5-0.3-0.5-1 0-0.5 0.3-0.9 0.4-0.3 0.9-0.3zm2.5 13.4h-0.2q-0.2-0.1-2.1-0.1-1.8 0-2.1 0.1h-0.2v-0.9h0.3q0.6 0 1-0.1 0.2 0 0.2-0.2 0.1 0 0.1-2.9 0-3-0.1-3.2-0.2-0.4-1.2-0.4h-0.2c0-0.3 0-0.9 0-0.9h0.2q0.2-0.1 0.6-0.1 0.3 0 0.7 0 0.3 0 0.7-0.1 0.4 0 0.6 0c0.1 0 0.3 0 0.3 0v7.6q0.1 0.2 0.2 0.2 0.2 0.1 0.7 0.1h0.5zm9.2-4.9q0 0.1-0.2 0.3h-5.6v0.3q0 1.4 0.4 2.2 0.7 1.5 2.5 1.5 0.8 0 1.4-0.7 0.4-0.4 0.6-1 0.1-0.2 0.2-0.3 0 0 0.3 0 0.4 0 0.4 0.2 0 0-0.1 0.2-0.4 1.1-1.2 1.7-0.8 0.7-2 0.7-0.4 0-0.9-0.1-1.1-0.2-2-1-0.9-0.9-1.3-2-0.3-0.7-0.3-1.5 0-1.8 1.1-3.1 1.1-1.3 2.7-1.5 0.1 0 0.3 0 1.8 0 2.7 1.1 1 1.1 1 3zm-1.7-0.5v-0.1q-0.1-2.2-1.4-2.7-0.2 0-0.5 0-1 0-1.7 0.9-0.4 0.7-0.5 1.8v0.1zm6.1 4.2q0.2 0.3 1 0.3h0.6v0.9h-0.2q-0.3-0.1-2.2-0.1-2 0-2.3 0.1h-0.1v-0.9h0.6q0.7 0 0.9-0.3c0-0.1 0-0.5 0-0.6q0-0.3 0-0.7 0-0.3 0-0.7 0-0.5 0-0.9 0-0.6 0-1.3c0-0.5 0-1.3 0-1.6q-0.1-0.4-0.3-0.5-0.2-0.2-0.9-0.2h-0.3c0-0.3 0-0.9 0-0.9l0.2-0.1q0.2 0 0.6 0 0.3 0 0.7 0 0.3-0.1 0.7-0.1 0.4 0 0.6 0 0.2-0.1 0.2-0.1h0.1c0 0.5 0 1.6 0 1.6q1.1-1.6 3.1-1.6 2.3 0.1 2.5 2.3 0 0.1 0 2.8 0 2.5 0.1 2.6 0 0.1 0.2 0.2 0.4 0.1 1 0.1h0.3v0.9h-0.2q-0.2-0.1-2.2-0.1-2 0-2.2 0.1h-0.2v-0.9h0.5q1 0 1-0.4 0.1 0 0.1-2.7-0.1-2.7-0.1-2.9-0.1-0.6-0.4-0.9-0.3-0.3-1-0.3-0.9 0-1.6 0.7-0.7 0.7-0.8 1.7 0 0.1 0 0.4 0 0.4 0 0.9 0 0.5 0 1 0 0.3 0 0.7 0 0.3 0 0.5 0 0.3 0 0.5c0 0.1 0 0.4 0 0.5zm10.1-10.8v-0.3h0.8v3.7h2.7v0.9h-2.7c0 1.7 0 5.5 0 5.7q0 0.3 0.1 0.6 0.3 0.8 1 0.8 0.9 0 1.1-1.4c0-0.1 0-1.1 0-1.6h0.8v0.7q0 0.9-0.1 1.3-0.2 0.8-0.7 1.3-0.6 0.5-1.4 0.5-1.1 0-1.7-0.6-0.7-0.6-0.8-1.6c0-0.1 0-3.8 0-5.7h-1.6v-0.8h0.2q0.7 0 1.3-0.6 0.9-1 1-2.9zm12.5 7.1q0 0.1-0.2 0.3h-5.6v0.3q0 1.4 0.4 2.2 0.7 1.5 2.5 1.5 0.8 0 1.4-0.7 0.4-0.4 0.6-1 0.1-0.2 0.1-0.3 0.1 0 0.4 0 0.4 0 0.4 0.2 0 0-0.1 0.2-0.4 1.1-1.2 1.7-0.8 0.7-2 0.7-0.4 0-0.9-0.1-1.2-0.2-2.1-1-0.9-0.9-1.2-2-0.3-0.7-0.3-1.5 0-1.8 1.1-3.1 1.1-1.3 2.7-1.5 0 0 0.2 0 1.9 0 2.8 1.1 1 1.1 1 3zm-1.7-0.5v-0.1q-0.2-2.2-1.5-2.7-0.1 0-0.4 0-1 0-1.7 0.9-0.4 0.7-0.5 1.8v0.1zm1.9-5.5h-7.2v-0.9h7.2zm4.3-1.1v-0.3h0.8v3.6h2.7v1h-2.7c0 1.7 0 5.4 0 5.7q0 0.3 0.1 0.6 0.3 0.8 1 0.8 0.9 0 1.1-1.4c0-0.1 0-1.2 0-1.7h0.8v0.7q0 1-0.1 1.4-0.2 0.8-0.8 1.3-0.5 0.5-1.3 0.5-1.1 0-1.8-0.6-0.6-0.6-0.7-1.6c0-0.1 0-3.8 0-5.7h-1.6v-0.8h0.2q0.7 0 1.2-0.6 1-1 1.1-2.9zm8.9 3.7q-1.8 0-1.8 1.3 0 0.2 0 0.3 0.2 0.5 0.7 0.7 0.4 0.2 1.3 0.4 1.2 0.2 1.6 0.4 1.2 0.6 1.6 2 0 0.1 0 0.5 0 0.8-0.3 1.4-0.7 1.5-2.9 1.5-1.2 0-2.1-0.8l-0.1 0.2-0.2 0.2q-0.1 0.1-0.3 0.2l-0.2 0.2h-0.1q-0.2 0-0.3-0.1c0-0.9 0-3 0-3.1q0-0.2 0.1-0.3 0 0 0.3 0 0.3 0 0.3 0.1 0.1 0 0.1 0.2 0.2 0.8 0.6 1.4 0.7 1 1.9 1 1.9 0 1.9-1.5 0-0.6-0.3-1-0.3-0.3-0.9-0.5-0.3-0.1-0.9-0.2-1.1-0.2-1.5-0.4-1.4-0.7-1.6-1.9 0-0.1 0-0.3 0-2.3 2.8-2.6 0.1 0 0.5 0 0.8 0 1.4 0.3l0.3 0.2 0.2-0.2q0.2-0.2 0.4-0.3h0.2q0.1 0 0.2 0.1v2.7l-0.1 0.1h-0.5q-0.2-0.1-0.2-0.3 0-0.9-0.5-1.4-0.6-0.5-1.6-0.5zm15.6-0.1l0.2 0.2q0.9-0.9 2-0.9 0.5 0 0.8 0.3 0.3 0.3 0.3 0.8 0 0.4-0.2 0.6-0.2 0.2-0.5 0.2-0.6 0-0.7-0.6-0.1-0.3 0-0.5-0.1 0-0.1 0-0.5 0.1-0.9 0.4-0.2 0.1-0.2 0.1 0.1 0.1 0.1 0.1 0.7 0.9 0.7 1.8 0 0.8-0.6 1.6-0.9 1.4-2.8 1.4-1 0-2-0.6-0.2 0.4-0.2 0.8 0 0.7 0.5 1 0.2 0.2 0.3 0.2 0.2 0 1.5 0 1.7 0 2.1 0.1 1.3 0.2 2 0.8 0.7 0.8 0.7 2 0 0.4 0 0.5-0.3 1-1.5 1.6-1.2 0.6-2.9 0.6-1.6 0-2.8-0.6-1.3-0.6-1.5-1.6-0.1-0.1-0.1-0.4 0-0.9 0.6-1.4 0.3-0.3 0.7-0.5l0.2-0.1q-0.7-0.6-0.7-1.7 0-0.9 0.6-1.7-0.9-0.9-0.9-2 0-0.8 0.5-1.6 0.4-0.6 1.2-1 0.8-0.4 1.7-0.4 1 0 1.9 0.5zm-3.5 2.5q0 1.1 0.3 1.7 0.4 0.5 1.3 0.5 0.6 0 1-0.3 0.4-0.3 0.5-0.9 0.1-0.3 0.1-1 0-0.7-0.1-1-0.2-1.2-1.5-1.2-0.6 0-1 0.3-0.5 0.3-0.6 0.9 0 0.3 0 1zm4.6 6.3q-0.4-0.3-1-0.4-0.5 0-1.5 0h-0.6q-1.3 0-1.6 0.1-0.4 0.2-0.6 0.5-0.3 0.4-0.3 0.8 0 0.3 0.1 0.4 0.2 0.5 0.7 0.9 0.6 0.4 1.3 0.5 0.4 0.1 1 0.1 0.7 0 1-0.1 0.8-0.1 1.3-0.5 0.6-0.4 0.8-0.9 0-0.1 0-0.3 0-0.7-0.6-1.1zm2.9-1.4h0.6q0.8 0 1-0.2c0-0.2 0-0.5 0-0.7q0-0.2 0-0.6 0-0.3 0-0.8 0-0.4 0-0.8 0-0.6 0-1.3 0-0.7 0-1.2v-0.5q-0.1-0.3-0.3-0.5-0.2-0.1-0.9-0.1h-0.4v-0.5q0-0.5 0.1-0.5c0.1 0 0.5 0 0.7 0q0.4 0 0.8-0.1 0.3 0 0.7 0 0.3 0 0.5-0.1 0.2 0 0.3 0v1.4q0.4-0.6 0.9-1 0.4-0.4 1.2-0.4 0.5 0 0.9 0.3 0.8 0.4 0.8 1.1 0 0.4-0.3 0.7-0.3 0.3-0.7 0.3-0.4 0-0.7-0.3-0.3-0.2-0.3-0.7 0-0.3 0.2-0.5 0-0.1 0-0.1 0-0.1-0.5 0-0.3 0.2-0.4 0.3-0.8 0.8-1 2.6c0 0.5 0 1.7 0 2.1q0 0.2 0 0.5 0 0.3 0 0.5 0 0.3 0 0.4 0 0.2 0 0.3v0.1q0.1 0.2 0.3 0.2 0.2 0.1 1 0.1h0.7v1h-0.2q-0.4-0.1-2.6-0.1-1.9 0-2.2 0.1h-0.2zm10.7-5.5q-0.3 0.3-0.7 0.3-0.5 0-0.8-0.3-0.3-0.4-0.3-0.8 0-0.3 0.2-0.6 0.2-0.6 1-0.9 0.8-0.3 1.9-0.3 1.3 0 2.3 0.6 1 0.6 1.3 1.6 0.1 0.3 0.1 0.6 0 0.4 0 2.3 0 2 0 2.3 0 0.3 0.1 0.5 0.1 0.3 0.4 0.3 0.3 0 0.4-0.3 0.1-0.2 0.1-1.1v-0.7h0.8v0.8q0 0.8-0.1 0.9-0.1 0.6-0.6 0.9-0.5 0.4-1.2 0.4-0.5 0-0.9-0.3-0.3-0.4-0.5-0.9v-0.1q0 0.1-0.2 0.3-0.2 0.2-0.3 0.3-1 0.8-2.3 0.8-1 0-1.8-0.4-0.8-0.5-1.1-1.2-0.2-0.4-0.2-0.8 0-0.9 0.8-1.7 0.5-0.4 1.1-0.7 1.4-0.7 3.5-0.8h0.3v-0.4q0-0.7-0.1-1-0.2-0.7-0.7-1.1-0.5-0.3-1.3-0.3-1.3 0-1.3 0.1 0.4 0.3 0.4 0.9 0 0.4-0.3 0.8zm3.3 2.9q0-1.2 0-1.2-0.1 0-0.1 0-2.8 0.2-3.5 1.7-0.2 0.4-0.2 0.9 0 0.6 0.4 1.1 0.5 0.5 1.2 0.5 0.8 0 1.4-0.5 0.6-0.5 0.7-1.2 0.1-0.1 0.1-1.3zm9.3 3.5h-0.2q-0.4-0.1-2.5-0.1-2 0-2.3 0.1h-0.1v-0.9h0.3q0.5 0 1-0.1 0.1-0.1 0.2-0.2 0-0.1 0-3.3v-3.2h-1.4v-0.9h1.4v-2.7l0.1-0.2q0.3-1.1 1.1-1.8 0.8-0.7 2.1-0.8 0 0 0.1 0 0.2 0 0.3 0 0.7 0 1.2 0.4 0.5 0.5 0.5 1.1 0 0.5-0.3 0.8-0.3 0.3-0.7 0.3-0.5 0-0.8-0.3-0.3-0.3-0.3-0.8 0-0.3 0.4-0.8c-0.1 0-0.4 0-0.5 0q-0.5 0.1-0.9 0.5-0.4 0.4-0.6 1-0.1 0.4-0.1 1.9v1.4h2.2v0.9h-2.2v3.2q0 3.2 0.1 3.3 0 0.1 0.2 0.2 0.2 0 1.1 0.1h0.6zm4.1-8.3q-1.8 0-1.8 1.3 0 0.2 0 0.3 0.2 0.5 0.7 0.7 0.4 0.2 1.3 0.4 1.2 0.2 1.6 0.4 1.2 0.6 1.6 2 0 0.1 0 0.5 0 0.8-0.3 1.4-0.7 1.5-2.9 1.5-1.2 0-2.1-0.8l-0.1 0.2-0.2 0.2q-0.1 0.1-0.3 0.2l-0.2 0.2h-0.1q-0.2 0-0.3-0.1c0-0.9 0-3 0-3.1q0-0.2 0.1-0.3 0 0 0.3 0 0.3 0 0.3 0.1 0.1 0 0.1 0.2 0.2 0.8 0.6 1.4 0.7 1 1.9 1 1.9 0 1.9-1.5 0-0.6-0.3-1-0.3-0.3-0.9-0.5-0.3-0.1-0.9-0.2-1.1-0.2-1.5-0.4-1.4-0.7-1.6-1.9 0-0.1 0-0.3 0-2.3 2.8-2.6 0.1 0 0.5 0 0.8 0 1.4 0.3l0.3 0.2 0.2-0.2q0.2-0.2 0.4-0.3h0.2q0.1 0 0.2 0.1v2.7l-0.1 0.1h-0.5q-0.2-0.1-0.2-0.3 0-0.9-0.5-1.4-0.6-0.5-1.6-0.5z"/></svg>