<svg version="1.2" xmlns="http://www.w3.org/2000/svg" viewBox="0 0 241 241" width="241" height="241"><style>.a{fill:#fff}.b{fill:none;stroke:#000;stroke-miterlimit:10}.c{stroke:#000;stroke-miterlimit:10}.d{fill:#fff;stroke:#000}</style><path fill-rule="evenodd" class="a" d="m0 0h241v241h-241z"/><path class="b" d="m40.5 80.5v73.6"/><path class="c" d="m40.5 159.4l-3.5-7 3.5 1.7 3.5-1.7z"/><path class="a" d="m35.3 128.6h7.6v-16.9h-7.6zm7.4 0.8h4.2v-9.9h-4.2z"/><path  d="m40.2 124.6v-1.3q-0.8 0.9-1.9 0.9-0.8 0-1.4-0.5-0.6-0.4-1-1-0.4-0.8-0.4-1.8 0-1 0.5-1.7 0.5-0.7 1.2-1.1 0.6-0.3 1.1-0.3 0.4 0 0.5 0 1 0.2 1.5 1l0.1 0.1q0 0 0.3-0.5l0.2-0.6h0.5v4q0 4 0 4.1 0.1 0.1 0.2 0.1 0.3 0.1 0.7 0.1h0.2v0.6h-0.1q-0.2 0-1.6 0-1.4 0-1.6 0h-0.1v-0.6h0.3q0.3 0 0.6-0.1 0.2 0 0.2-0.1 0-0.1 0-1.3zm0.1-2.3v-2.5q-0.5-1.2-1.4-1.4-0.1 0-0.1 0-0.1 0-0.1 0-0.9 0-1.5 0.9-0.4 0.7-0.4 1.7 0 0.9 0.4 1.7 0.4 0.7 1 0.9 0.1 0 0.3 0 0.3 0 0.3 0 1-0.2 1.5-1.3zm3.6 0.9q-0.2 0-0.4-0.1-0.1-0.2-0.1-0.4 0-0.6 0.4-1 0.5-0.4 1.1-0.4 0.7 0 1.2 0.4 0.4 0.3 0.5 1 0.1 0.1 0.1 0.2 0 0.5-0.3 0.9-0.2 0.4-0.9 1-0.3 0.2-0.9 0.7l-0.4 0.5h0.6q1.3 0 1.3-0.1 0.1 0 0.1-0.1 0.1-0.1 0.1-0.6h0.4l-0.3 1.5h-3v-0.1q0-0.2 0-0.2 0 0 0.7-0.8 0.9-1 1.2-1.3 0.5-0.7 0.5-1.4 0-0.5-0.3-0.9-0.3-0.3-0.8-0.3-0.4 0-0.7 0.4-0.1 0-0.1 0.1 0 0 0 0 0 0 0 0 0.2 0 0.4 0.2 0.1 0.1 0.1 0.3 0 0.2-0.2 0.4-0.1 0.1-0.3 0.1z"/><path class="b" d="m73.3 73.3l98.9 98.9"/><path class="c" d="m69.6 69.6l7.4 2.5-3.7 1.2-1.2 3.7z"/><path class="a" d="m114.3 127.6h7.6v-16.9h-7.6zm7.4 0.8h4.2v-9.9h-4.2z"/><path  d="m119.2 123.6v-1.3q-0.8 0.9-1.9 0.9-0.8 0-1.4-0.5-0.6-0.4-1-1-0.4-0.8-0.4-1.8 0-1 0.5-1.7 0.5-0.7 1.2-1.1 0.6-0.3 1.1-0.3 0.4 0 0.5 0 1 0.2 1.5 1l0.1 0.1q0 0 0.3-0.5l0.2-0.6h0.5v4q0 4 0 4.1 0.1 0.1 0.2 0.1 0.3 0.1 0.7 0.1h0.2v0.6h-0.1q-0.2 0-1.6 0-1.4 0-1.6 0h-0.1v-0.6h0.3q0.3 0 0.6-0.1 0.2 0 0.2-0.1 0-0.1 0-1.3zm0.1-2.3v-2.5q-0.5-1.2-1.4-1.4-0.1 0-0.1 0-0.1 0-0.1 0-0.9 0-1.5 0.9-0.4 0.7-0.4 1.7 0 0.9 0.4 1.7 0.4 0.7 1 0.9 0.1 0 0.3 0 0.3 0 0.3 0 1-0.2 1.5-1.3zm3.7 0.6q-0.2 0-0.3-0.1-0.1-0.1-0.1-0.4 0-0.4 0.3-0.7 0.4-0.4 0.9-0.4h0.1q0.3 0 0.4 0 0.2 0 0.5 0.2 0.5 0.2 0.7 0.7 0 0.1 0 0.3 0 0.4-0.3 0.8-0.3 0.4-0.7 0.6-0.1 0 0 0 0 0 0 0 0.5 0.1 0.9 0.5 0.3 0.4 0.3 0.9 0 0.3-0.1 0.6-0.2 0.5-0.7 0.7-0.4 0.3-1 0.3-0.5 0-0.9-0.2-0.4-0.3-0.6-0.6-0.1-0.2-0.1-0.4 0-0.3 0.2-0.4 0.1-0.2 0.4-0.2 0.2 0 0.3 0.2 0.2 0.1 0.2 0.4 0 0.1-0.1 0.3-0.1 0.1-0.3 0.2h-0.1q0.5 0.3 1 0.3 0.5 0 0.7-0.4 0.2-0.3 0.2-0.8v-0.2q0-0.7-0.6-1-0.1-0.1-0.5-0.1h-0.3q0 0 0-0.1 0-0.1 0-0.1 0-0.1 0-0.1 0.2 0 0.5 0 0.4-0.1 0.5-0.4 0.2-0.4 0.2-0.9 0-0.5-0.3-0.7-0.1-0.1-0.3-0.1-0.4 0-0.8 0.2 0 0 0 0.1-0.1 0-0.1 0.1 0 0 0 0 0.2 0 0.3 0.2 0.1 0.1 0.1 0.3 0 0.2-0.1 0.3-0.2 0.1-0.4 0.1z"/><path fill-rule="evenodd" class="d" d="m40.5 80.5c-22.1 0-40-17.9-40-40 0-22.1 17.9-40 40-40 22.1 0 40 17.9 40 40 0 22.1-17.9 40-40 40z"/><path class="a" d="m35 50.5h10.3v-24.1h-10.3z"/><path  d="m38.1 37.6q-0.3 0.3-0.8 0.3-0.4 0-0.7-0.3-0.3-0.3-0.3-0.8 0-0.3 0.1-0.6 0.3-0.6 1.1-0.9 0.7-0.3 1.9-0.3 1.3 0 2.2 0.6 1 0.6 1.3 1.6 0.1 0.3 0.1 0.6 0 0.4 0 2.3 0 2 0 2.3 0.1 0.3 0.2 0.5 0.1 0.3 0.4 0.3 0.2 0 0.3-0.3 0.2-0.2 0.2-1.1v-0.7h0.8v0.8q-0.1 0.8-0.1 0.9-0.2 0.6-0.7 1-0.4 0.3-1.1 0.3-0.5 0-0.9-0.3-0.4-0.4-0.5-0.9v-0.1q-0.1 0.1-0.3 0.3-0.1 0.2-0.2 0.3-1 0.8-2.3 0.8-1 0-1.9-0.4-0.8-0.5-1.1-1.2-0.1-0.4-0.1-0.7 0-1 0.8-1.8 0.4-0.4 1.1-0.7 1.4-0.6 3.5-0.8h0.3v-0.4q0-0.7-0.2-1-0.2-0.7-0.7-1-0.5-0.4-1.2-0.4-1.3 0-1.3 0.1 0.4 0.3 0.4 0.9 0 0.5-0.3 0.8zm3.3 2.9q0-1.2-0.1-1.2 0 0-0.1 0.1-2.7 0.1-3.5 1.6-0.2 0.4-0.2 0.9 0 0.7 0.5 1.1 0.5 0.5 1.2 0.5 0.8 0 1.3-0.5 0.6-0.5 0.8-1.2 0-0.1 0.1-1.3z"/><path class="b" d="m154.1 40.5h-73.6"/><path class="c" d="m159.4 40.5l-7 3.5 1.7-3.5-1.7-3.5z"/><path class="a" d="m115.3 46.6h7.6v-16.9h-7.6zm7.4 0.8h4.2v-9.9h-4.2z"/><path  d="m120.2 42.6v-1.3q-0.8 0.9-1.9 0.9-0.8 0-1.4-0.5-0.6-0.4-1-1-0.4-0.8-0.4-1.8 0-1 0.5-1.7 0.5-0.7 1.2-1.1 0.6-0.3 1.1-0.3 0.4 0 0.5 0 1 0.2 1.5 1l0.1 0.1q0 0 0.3-0.5l0.2-0.6h0.5v4q0 4 0 4.1 0.1 0.1 0.2 0.1 0.3 0.1 0.7 0.1h0.2v0.6h-0.1q-0.2 0-1.6 0-1.4 0-1.6 0h-0.1v-0.6h0.3q0.3 0 0.6-0.1 0.2 0 0.2-0.1 0-0.1 0-1.3zm0.1-2.3v-2.5q-0.5-1.2-1.4-1.4-0.1 0-0.1 0-0.1 0-0.1 0-0.9 0-1.5 0.9-0.4 0.7-0.4 1.7 0 0.9 0.4 1.7 0.4 0.7 1 0.9 0.1 0 0.3 0 0.3 0 0.3 0 1-0.2 1.5-1.3zm6.2 4.4h-0.1q-0.1 0-1.3 0-1.1 0-1.3 0h-0.1v-0.4h0.2q0.5 0 0.6 0 0.1 0 0.2-0.1v-4.2q0 0 0 0-0.4 0.2-0.9 0.2h-0.1v-0.4h0.1q0.7 0 1.2-0.3 0.1-0.1 0.2-0.2 0 0 0.1 0 0.1 0 0.2 0v2.5 2.4q0.1 0.1 0.5 0.1h0.3 0.2z"/><path fill-rule="evenodd" class="d" d="m200.5 80.5c-22.1 0-40-17.9-40-40 0-22.1 17.9-40 40-40 22.1 0 40 17.9 40 40 0 22.1-17.9 40-40 40z"/><path class="a" d="m195.4 51.5h11.5v-24.1h-11.5z"/><path  d="m197 31.2q0.3 0 0.7 0 0.4 0 0.6-0.1 0.2 0 0.2 0h0.1v3q0 3.1 0 3.1 0.1-0.1 0.1-0.1 1.1-0.9 2.8-0.9 0.3 0 0.6 0 1.4 0.3 2.4 1.5 0.9 1.2 0.9 3 0 0.4 0 0.7-0.3 1.6-1.4 2.7-1.2 1.1-2.9 1.1-1.5 0-2.6-1.2l-0.1-0.1-0.2 0.4q-0.1 0-0.2 0.2 0 0.1-0.1 0.2 0 0.1 0 0.1l-0.1 0.2h-0.4-0.4v-6q0-6-0.1-6.1 0-0.3-0.3-0.5-0.2-0.1-0.8-0.1h-0.4v-0.5q0-0.5 0-0.5h0.2q0.2 0 0.6 0 0.4 0 0.8-0.1zm4.6 5.8q-0.5-0.1-0.6-0.1-1.4 0-2.2 1.2l-0.2 0.1v4.8l0.1 0.2q0.6 0.9 1.6 1.2 0.2 0.1 0.6 0.1 1.3 0 2-1.1 0.2-0.2 0.3-0.7 0.3-0.7 0.3-1.9 0-1.5-0.3-2.3-0.4-1.2-1.6-1.5z"/><path class="b" d="m86.9 200.5h73.6"/><path class="c" d="m81.6 200.5l7-3.5-1.7 3.5 1.7 3.5z"/><path class="a" d="m117.3 207.6h7.6v-16.9h-7.6zm7.4 0.8h4.2v-9.9h-4.2z"/><path  d="m122.2 203.6v-1.3q-0.8 0.9-1.9 0.9-0.8 0-1.4-0.5-0.6-0.4-1-1-0.4-0.8-0.4-1.8 0-1 0.5-1.7 0.5-0.7 1.2-1.1 0.6-0.3 1.1-0.3 0.4 0 0.5 0 1 0.2 1.5 1l0.1 0.1q0 0 0.3-0.5l0.2-0.6h0.5v4q0 4 0 4.1 0.1 0.1 0.2 0.1 0.3 0.1 0.7 0.1h0.2v0.6h-0.1q-0.2 0-1.6 0-1.4 0-1.6 0h-0.1v-0.6h0.3q0.3 0 0.6-0.1 0.2 0 0.2-0.1 0-0.1 0-1.3zm0.1-2.3v-2.5q-0.5-1.2-1.4-1.4-0.1 0-0.1 0-0.1 0-0.1 0-0.9 0-1.5 0.9-0.4 0.7-0.4 1.7 0 0.9 0.4 1.7 0.4 0.7 1 0.9 0.1 0 0.3 0 0.3 0 0.3 0 1-0.2 1.5-1.3zm3.6 2.7q0.2 0 0.3 0.1 0.1 0.1 0.1 0.3 0 0.2-0.1 0.4-0.1 0.1-0.3 0.1h-0.1 0.1q0.1 0.3 0.3 0.5 0.3 0.1 0.6 0.1 0.6 0 0.9-0.5 0.1-0.3 0.1-1 0-0.8-0.2-1.1-0.2-0.3-0.5-0.3-0.7 0-1 0.6 0 0-0.1 0 0 0-0.1 0-0.1 0-0.1 0 0 0 0-1.4 0-0.3 0-0.6 0-0.4 0-0.4 0-0.5 0-0.5 0 0 0 0h0.2q0.5 0.2 1.1 0.2 0.5 0 1.1-0.2 0 0 0.1 0 0 0 0 0.1v0.1q-0.6 0.8-1.6 0.8-0.3 0-0.5 0h-0.1v1.4q0.5-0.4 1-0.4 0.1 0 0.3 0 0.6 0.2 0.9 0.7 0.4 0.4 0.4 1.1 0 0.7-0.6 1.3-0.5 0.5-1.2 0.5-0.5 0-0.9-0.3-0.2-0.1-0.3-0.3-0.2-0.3-0.3-0.7 0 0 0-0.1 0 0 0 0 0-0.3 0.1-0.4 0.2-0.1 0.4-0.1z"/><path fill-rule="evenodd" class="d" d="m40.5 240.5c-22.1 0-40-17.9-40-40 0-22.1 17.9-40 40-40 22.1 0 40 17.9 40 40 0 22.1-17.9 40-40 40z"/><path class="a" d="m35.6 211.5h9.1v-24.1h-9.1z"/><path  d="m43.8 198.6q-0.3 0.3-0.8 0.3-0.5 0-0.8-0.3-0.3-0.3-0.3-0.8 0-0.4 0.3-0.7 0.1-0.1 0.1-0.1 0-0.1-0.2-0.1-0.5-0.1-0.9-0.1-1.1 0-1.6 0.7-1 0.9-1 3.1 0 1.7 0.6 2.6 0.9 1.2 2.2 1.2 0.5 0 0.9-0.2 0.9-0.4 1.2-1.5 0-0.2 0.1-0.2 0-0.1 0.3-0.1h0.3q0.1 0.1 0.1 0.2 0 0.4-0.5 1.2-1 1.4-2.8 1.4-1 0-1.9-0.4-2-1.1-2.4-3.4 0-0.2 0-0.7 0-0.5 0-0.6 0.2-1.9 1.6-3.1 1.2-1 2.7-1 2.6 0 3 1.4 0.1 0.2 0.1 0.5 0 0.4-0.3 0.7z"/><path class="b" d="m200.5 154.1v-73.6"/><path class="c" d="m200.5 159.4l-3.5-7 3.5 1.7 3.5-1.7z"/><path class="a" d="m196.3 129.6h7.6v-16.9h-7.6zm7.4 0.8h4.2v-9.9h-4.2z"/><path  d="m201.2 125.6v-1.3q-0.8 0.9-1.9 0.9-0.8 0-1.4-0.5-0.6-0.4-1-1-0.4-0.8-0.4-1.8 0-1 0.5-1.7 0.5-0.7 1.2-1.1 0.6-0.3 1.1-0.3 0.4 0 0.5 0 1 0.2 1.5 1l0.1 0.1q0 0 0.3-0.5l0.2-0.6h0.5v4q0 4 0 4.1 0.1 0.1 0.2 0.1 0.3 0.1 0.7 0.1h0.2v0.6h-0.1q-0.2 0-1.6 0-1.4 0-1.6 0h-0.1v-0.6h0.3q0.3 0 0.6-0.1 0.2 0 0.2-0.1 0-0.1 0-1.3zm0.1-2.3v-2.5q-0.5-1.2-1.4-1.4 0 0-0.1 0-0.1 0-0.1 0-0.9 0-1.5 0.9-0.4 0.7-0.4 1.7 0 0.9 0.4 1.7 0.4 0.7 1 0.9 0.1 0 0.3 0 0.3 0 0.3 0 1-0.2 1.5-1.3zm6.5 4.4q-0.1 0-1.1 0-1 0-1.1 0v-0.4h0.2q0.4 0 0.4 0 0.1 0 0.1-0.1 0 0 0-0.4v-0.4h-2.1v-0.4l1.3-1.9q1.2-1.9 1.2-1.9 0 0 0.2 0h0.1 0.1v3.8h0.7v0.4h-0.7v0.4q0 0.3 0 0.4 0 0 0 0.1 0.1 0 0.5 0h0.2zm-2.3-1.7h0.9v-2.7l-1.8 2.7z"/><path fill-rule="evenodd" class="d" d="m200.5 240.5c-22.1 0-40-17.9-40-40 0-22.1 17.9-40 40-40 22.1 0 40 17.9 40 40 0 22.1-17.9 40-40 40z"/><path class="a" d="m195.4 212.5h11.5v-24.1h-11.5z"/><path  d="m199.9 197.2q1.5 0 2.6 0.9v-2q0-2.1 0-2.2-0.1-0.3-0.3-0.5-0.2-0.1-0.9-0.1h-0.3v-0.5q0-0.5 0-0.5h0.2q0.2 0 0.6 0 0.4 0 0.7-0.1 0.4 0 0.8 0 0.4 0 0.6-0.1 0.2 0 0.2 0v6.1q0 6.1 0.1 6.2 0 0.4 0.2 0.5 0.3 0.1 0.9 0.2h0.4v0.9q0 0-1.5 0.1-1.5 0.1-1.6 0.1h-0.1v-1.1l-0.2 0.2q-1.1 0.9-2.6 0.9-1.4 0-2.5-0.9-1.2-1.1-1.5-2.9 0-0.2 0-0.7 0-1.9 1.2-3.2 1.3-1.3 3-1.3zm2.6 6.7v-4.7q-0.9-1.3-2.3-1.3-1 0-1.7 0.7-0.5 0.5-0.7 1.2-0.2 0.7-0.2 2 0 2.2 0.9 3 0.6 0.7 1.5 0.7 0.7 0 1.4-0.4 0.6-0.4 1-1z"/></svg>