<svg version="1.2" xmlns="http://www.w3.org/2000/svg" viewBox="0 0 881 301" width="881" height="301"><style>.a{fill:#fff}.b{fill:none;stroke:#000;stroke-miterlimit:10;stroke-width:1.5}</style><path fill-rule="evenodd" class="a" d="m0 0h881v301h-881z"/><path class="b" d="m40.5 80.5v80"/><path class="b" d="m68.8 68.8l103.4 103.4"/><path fill-rule="evenodd" class="b" d="m40.5 80.5c-22.1 0-40-17.9-40-40 0-22.1 17.9-40 40-40 22.1 0 40 17.9 40 40 0 22.1-17.9 40-40 40z"/><path  d="m38.1 37.6q-0.3 0.3-0.8 0.3-0.4 0-0.7-0.3-0.3-0.3-0.3-0.8 0-0.3 0.1-0.6 0.3-0.6 1.1-0.9 0.7-0.3 1.9-0.3 1.3 0 2.2 0.6 1 0.6 1.3 1.6 0.1 0.3 0.1 0.6 0 0.4 0 2.3 0 2 0 2.3 0.1 0.3 0.2 0.5 0.1 0.3 0.4 0.3 0.2 0 0.3-0.3 0.2-0.2 0.2-1.1v-0.7h0.8v0.8q-0.1 0.8-0.1 0.9-0.2 0.6-0.7 1-0.4 0.3-1.1 0.3-0.5 0-0.9-0.3-0.4-0.4-0.5-0.9v-0.1q-0.1 0.1-0.3 0.3-0.1 0.2-0.2 0.3-1 0.8-2.3 0.8-1 0-1.9-0.4-0.8-0.5-1.1-1.2-0.1-0.4-0.1-0.7 0-1 0.8-1.8 0.4-0.4 1.1-0.7 1.4-0.6 3.5-0.8h0.3v-0.4q0-0.7-0.2-1-0.2-0.7-0.7-1-0.5-0.4-1.2-0.4-1.3 0-1.3 0.1 0.4 0.3 0.4 0.9 0 0.5-0.3 0.8zm3.3 2.9q0-1.2-0.1-1.2 0 0-0.1 0.1-2.7 0.1-3.5 1.6-0.2 0.4-0.2 0.9 0 0.7 0.5 1.1 0.5 0.5 1.2 0.5 0.8 0 1.3-0.5 0.6-0.5 0.8-1.2 0-0.1 0.1-1.3z"/><path class="b" d="m160.5 40.5h-80"/><path fill-rule="evenodd" class="b" d="m200.5 80.5c-22.1 0-40-17.9-40-40 0-22.1 17.9-40 40-40 22.1 0 40 17.9 40 40 0 22.1-17.9 40-40 40z"/><path  d="m197 31.2q0.3 0 0.7 0 0.4 0 0.6-0.1 0.2 0 0.2 0h0.1v3q0 3.1 0 3.1 0.1-0.1 0.1-0.1 1.1-0.9 2.8-0.9 0.3 0 0.6 0 1.4 0.3 2.4 1.5 0.9 1.2 0.9 3 0 0.4 0 0.7-0.3 1.6-1.4 2.7-1.2 1.1-2.9 1.1-1.5 0-2.6-1.2l-0.1-0.1-0.2 0.4q-0.1 0-0.2 0.2 0 0.1-0.1 0.2 0 0.1 0 0.1l-0.1 0.2h-0.4-0.4v-6q0-6-0.1-6.1 0-0.3-0.3-0.5-0.2-0.1-0.8-0.1h-0.4v-0.5q0-0.5 0-0.5h0.2q0.2 0 0.6 0 0.4 0 0.8-0.1zm4.6 5.8q-0.5-0.1-0.6-0.1-1.4 0-2.2 1.2l-0.2 0.1v4.8l0.1 0.2q0.6 0.9 1.6 1.2 0.2 0.1 0.6 0.1 1.3 0 2-1.1 0.2-0.2 0.3-0.7 0.3-0.7 0.3-1.9 0-1.5-0.3-2.3-0.4-1.2-1.6-1.5z"/><path class="b" d="m80.5 200.5h80"/><path class="b" d="m68.8 172.2l103.4-103.4"/><path fill-rule="evenodd" class="b" d="m40.5 240.5c-22.1 0-40-17.9-40-40 0-22.1 17.9-40 40-40 22.1 0 40 17.9 40 40 0 22.1-17.9 40-40 40z"/><path  d="m43.8 198.6q-0.3 0.3-0.8 0.3-0.5 0-0.8-0.3-0.3-0.3-0.3-0.8 0-0.4 0.3-0.7 0.1-0.1 0.1-0.1 0-0.1-0.2-0.1-0.5-0.1-0.9-0.1-1.1 0-1.6 0.7-1 0.9-1 3.1 0 1.7 0.6 2.6 0.9 1.2 2.2 1.2 0.5 0 0.9-0.2 0.9-0.4 1.2-1.5 0-0.2 0.1-0.2 0-0.1 0.3-0.1h0.3q0.1 0.1 0.1 0.2 0 0.4-0.5 1.2-1 1.4-2.8 1.4-1 0-1.9-0.4-2-1.1-2.4-3.4 0-0.2 0-0.7 0-0.5 0-0.6 0.2-1.9 1.6-3.1 1.2-1 2.7-1 2.6 0 3 1.4 0.1 0.2 0.1 0.5 0 0.4-0.3 0.7z"/><path class="b" d="m200.5 160.5v-80"/><path fill-rule="evenodd" class="b" d="m200.5 240.5c-22.1 0-40-17.9-40-40 0-22.1 17.9-40 40-40 22.1 0 40 17.9 40 40 0 22.1-17.9 40-40 40z"/><path  d="m200.9 196.2q1.5 0 2.6 0.9v-2q0-2.1 0-2.2-0.1-0.3-0.3-0.5-0.2-0.1-0.9-0.1h-0.3v-0.5q0-0.5 0-0.5h0.2q0.2 0 0.6 0 0.4 0 0.7-0.1 0.4 0 0.8 0 0.4 0 0.6-0.1 0.2 0 0.2 0v6.1q0 6.1 0.1 6.2 0 0.4 0.2 0.5 0.3 0.1 0.9 0.2h0.4v0.9q0 0-1.5 0.1-1.5 0.1-1.6 0.1h-0.1v-1.1l-0.2 0.2q-1.1 0.9-2.6 0.9-1.4 0-2.5-0.9-1.2-1.1-1.5-2.9 0-0.2 0-0.7 0-1.9 1.2-3.2 1.3-1.3 3-1.3zm2.6 6.7v-4.7q-0.9-1.3-2.3-1.3-1 0-1.7 0.7-0.5 0.5-0.7 1.2-0.2 0.7-0.2 2 0 2.2 0.9 3 0.6 0.7 1.5 0.7 0.7 0 1.4-0.4 0.6-0.4 1-1z"/><path  d="m114.7 276.4q0 0 0 0 0 0-0.1 0 0-0.1-0.1-0.1 0 0-0.1 0-0.1 0-0.1 0-0.1 0-0.2 0-0.1 0-0.2 0 0 0-0.1 0-0.2 0-0.2 0-0.7 0-0.8-0.2 0 0 0.1-0.3 0.1-0.4 0.1-0.4 0.1-0.1 0.4-0.1 0.8 0.1 2.7 0.1 0.5 0 1.3 0 0.9 0 1.3 0 0.3 0 0.3 0.1 0 0.1-0.1 0.3-0.1 0.4-0.1 0.4-0.1 0.1-0.7 0.1-1.1 0-1.2 0.1-0.1 0-0.2 0.1l-1.6 6.4q0 0 3.7-2.9 3.7-2.9 3.8-2.9 0.2-0.3 0.2-0.5 0-0.3-0.5-0.3-0.3 0-0.3-0.3 0 0 0.1-0.2 0.1-0.3 0.1-0.3 0-0.1 0.3-0.1 0.3 0 1.1 0 0.7 0 1.2 0 1.1 0 1.5 0 0.3-0.1 0.4 0 0.1 0 0.1 0.2 0 0-0.1 0.3-0.1 0.2-0.1 0.3 0 0.1-0.4 0.1-1.5 0.1-2.7 1l-0.2 0.1q-0.1 0.1-2.1 1.6-2 1.6-2 1.6l0.2 0.5q0.1 0.4 0.5 1.3 0.4 0.9 0.7 1.7 1.5 3.6 1.6 3.7 0.1 0 0.1 0.1 0.3 0.2 1 0.2h0.5q0.1 0.1 0.1 0.2 0 0-0.1 0.3-0.1 0.3-0.2 0.4h-0.2q-0.8-0.1-1.9-0.1-2.4 0-2.7 0.1h-0.2q-0.2-0.1-0.2-0.2 0 0 0.1-0.3 0-0.3 0.1-0.4 0.1 0 0.3 0 1 0 1-0.5 0-0.1-1.2-2.9l-1.2-2.8-1.3 1.1-1.4 1-0.4 1.9q-0.5 1.8-0.5 1.9 0 0.2 0.1 0.2 0.1 0 1.1 0.1h0.6q0.1 0.2 0.1 0.2 0 0.3-0.1 0.6-0.1 0.1-0.4 0.1-0.3 0-1.2 0-0.8 0-1.5 0-0.6 0-1.5 0-0.8 0-1.1 0-0.3 0-0.3-0.1-0.1-0.1-0.1-0.1 0-0.1 0.1-0.3 0.1-0.3 0.1-0.4 0.1 0 0.5 0 0.5 0 1.2-0.1 0.3 0 0.4-0.2 0-0.1 1.4-5.6 1.4-5.5 1.4-5.8zm13.6 18.7v-0.4-0.1h0.4q0 0 0.1 0 0.1 0 0.1 0 0 0 0.1 0 0.1 0 0.1 0 0 0 0 0 0.1 0 0.1 0 0 0 0.1 0 0-0.1 0-0.1 0 0 0 0l0.1-0.1v-1.5h-1.5q-1.2 0-1.4 0-0.1 0-0.2-0.1 0 0 0-0.2v-0.3l0.2-0.2 0.8-1.1q0.8-1.1 1.7-2.3 0.8-1.2 0.8-1.2 0.1 0 0.3 0h0.2 0.1v4.8h1q0.1 0.1 0.1 0.1v0.4q0 0-0.1 0.1h-1v0.7q0 0.8 0 0.8 0 0.2 0.2 0.2 0.2 0 0.6 0h0.2q0.1 0 0.1 0.1v0.4h-0.1-0.1q-0.7 0-1.5 0-1.2 0-1.4 0h-0.1zm-1.4-2.7h2.6v-3.5q-0.6 0.8-1.3 1.7z"/><path class="b" d="m360.5 80.5v80"/><path fill-rule="evenodd" class="b" d="m360.5 80.5c-22.1 0-40-17.9-40-40 0-22.1 17.9-40 40-40 22.1 0 40 17.9 40 40 0 22.1-17.9 40-40 40z"/><path  d="m358.1 37.6q-0.3 0.3-0.8 0.3-0.4 0-0.7-0.3-0.3-0.3-0.3-0.8 0-0.3 0.1-0.6 0.3-0.6 1.1-0.9 0.7-0.3 1.9-0.3 1.3 0 2.2 0.6 1 0.6 1.3 1.6 0.1 0.3 0.1 0.6 0 0.4 0 2.3 0 2 0 2.3 0.1 0.3 0.2 0.5 0.1 0.3 0.4 0.3 0.2 0 0.3-0.3 0.2-0.2 0.2-1.1v-0.7h0.8v0.8q-0.1 0.8-0.1 0.9-0.2 0.6-0.7 1-0.4 0.3-1.1 0.3-0.5 0-0.9-0.3-0.4-0.4-0.5-0.9v-0.1q-0.1 0.1-0.3 0.3-0.1 0.2-0.2 0.3-1 0.8-2.3 0.8-1 0-1.9-0.4-0.8-0.5-1.1-1.2-0.1-0.4-0.1-0.7 0-1 0.8-1.8 0.4-0.4 1.1-0.7 1.4-0.6 3.5-0.8h0.3v-0.4q0-0.7-0.2-1-0.2-0.7-0.7-1-0.5-0.4-1.2-0.4-1.3 0-1.3 0.1 0.4 0.3 0.4 0.9 0 0.5-0.3 0.8zm3.3 2.9q0-1.2-0.1-1.2 0 0-0.1 0.1-2.7 0.1-3.5 1.6-0.2 0.4-0.2 0.9 0 0.7 0.5 1.1 0.5 0.5 1.2 0.5 0.8 0 1.3-0.5 0.6-0.5 0.8-1.2 0-0.1 0.1-1.3z"/><path class="b" d="m480.5 40.5h-80"/><path fill-rule="evenodd" class="b" d="m520.5 80.5c-22.1 0-40-17.9-40-40 0-22.1 17.9-40 40-40 22.1 0 40 17.9 40 40 0 22.1-17.9 40-40 40z"/><path  d="m518 31.2q0.3 0 0.7 0 0.4 0 0.6-0.1 0.2 0 0.2 0h0.1v3q0 3.1 0 3.1 0.1-0.1 0.1-0.1 1.1-0.9 2.8-0.9 0.3 0 0.6 0 1.4 0.3 2.4 1.5 0.9 1.2 0.9 3 0 0.4 0 0.7-0.3 1.6-1.4 2.7-1.2 1.1-2.9 1.1-1.5 0-2.6-1.2l-0.1-0.1-0.2 0.4q-0.1 0-0.2 0.2 0 0.1-0.1 0.2 0 0.1 0 0.1l-0.1 0.2h-0.4-0.4v-6q0-6-0.1-6.1 0-0.3-0.3-0.5-0.2-0.1-0.8-0.1h-0.4v-0.5q0-0.5 0-0.5h0.2q0.2 0 0.6 0 0.4 0 0.8-0.1zm4.6 5.8q-0.5-0.1-0.6-0.1-1.4 0-2.2 1.2l-0.2 0.1v4.8l0.1 0.2q0.6 0.9 1.6 1.2 0.2 0.1 0.6 0.1 1.3 0 2-1.1 0.2-0.2 0.3-0.7 0.3-0.7 0.3-1.9 0-1.5-0.3-2.3-0.4-1.2-1.6-1.5z"/><path class="b" d="m400.5 200.5h80"/><path fill-rule="evenodd" class="b" d="m360.5 240.5c-22.1 0-40-17.9-40-40 0-22.1 17.9-40 40-40 22.1 0 40 17.9 40 40 0 22.1-17.9 40-40 40z"/><path  d="m363.8 198.6q-0.3 0.3-0.8 0.3-0.5 0-0.8-0.3-0.3-0.3-0.3-0.8 0-0.4 0.3-0.7 0.1-0.1 0.1-0.1 0-0.1-0.2-0.1-0.5-0.1-0.9-0.1-1.1 0-1.6 0.7-1 0.9-1 3.1 0 1.7 0.6 2.6 0.9 1.2 2.2 1.2 0.5 0 0.9-0.2 0.9-0.4 1.2-1.5 0-0.2 0.1-0.2 0-0.1 0.3-0.1h0.3q0.1 0.1 0.1 0.2 0 0.4-0.5 1.2-1 1.4-2.8 1.4-1 0-1.9-0.4-2-1.1-2.4-3.4 0-0.2 0-0.7 0-0.5 0-0.6 0.2-1.9 1.6-3.1 1.2-1 2.7-1 2.6 0 3 1.4 0.1 0.2 0.1 0.5 0 0.4-0.3 0.7z"/><path class="b" d="m520.5 160.5v-80"/><path fill-rule="evenodd" class="b" d="m520.5 240.5c-22.1 0-40-17.9-40-40 0-22.1 17.9-40 40-40 22.1 0 40 17.9 40 40 0 22.1-17.9 40-40 40z"/><path  d="m520.9 196.2q1.5 0 2.6 0.9v-2q0-2.1 0-2.2-0.1-0.3-0.3-0.5-0.2-0.1-0.9-0.1h-0.3v-0.5q0-0.5 0-0.5h0.2q0.2 0 0.6 0 0.4 0 0.7-0.1 0.4 0 0.8 0 0.4 0 0.6-0.1 0.2 0 0.2 0v6.1q0 6.1 0.1 6.2 0 0.4 0.2 0.5 0.3 0.1 0.9 0.2h0.4v0.9q0 0-1.5 0.1-1.5 0.1-1.6 0.1h-0.1v-1.1l-0.2 0.2q-1.1 0.9-2.6 0.9-1.4 0-2.5-0.9-1.2-1.1-1.5-2.9 0-0.2 0-0.7 0-1.9 1.2-3.2 1.3-1.3 3-1.3zm2.6 6.7v-4.7q-0.9-1.3-2.3-1.3-1 0-1.7 0.7-0.5 0.5-0.7 1.2-0.2 0.7-0.2 2 0 2.2 0.9 3 0.6 0.7 1.5 0.7 0.7 0 1.4-0.4 0.6-0.4 1-1z"/><path  d="m443 279.4q0-1.7-0.7-2.6-0.7-1-2.1-1-1.1 0-2.3 0.5-2.2 0.9-3.4 3.1-1.1 2-1.4 4.6 0 0.1 0 0.6 0 2.2 1.5 3.2 1 0.7 2.4 0.7 0.8 0 1.7-0.3 1.1-0.5 2.1-1.6 1-1.1 1.3-2.4 0.1-0.3 0.1-0.3 0.1 0 0.4 0 0.4 0 0.4 0.1 0 0.1-0.1 0.2-0.4 1.8-1.9 3.2-1.4 1.4-3.2 1.9-0.7 0.1-1.4 0.1-2.1 0-3.5-1.1-1.4-1.2-1.8-3-0.1-0.6-0.1-1.3 0-2.4 1.5-4.7 0.9-1.4 2.2-2.4 1.3-1.1 2.9-1.6 1.2-0.4 2.2-0.4 0.7 0 0.8 0 1.2 0.2 2.1 1 0 0.1 0.1 0.2 0.1 0.2 0.2 0.3 0.1 0.1 0.1 0.1 0.1 0 0.6-0.5 0.1-0.1 0.3-0.3 0.1-0.1 0.3-0.3 0.2-0.2 0.2-0.2l0.3-0.3h0.1q0.3 0 0.3 0.1 0 0.1-0.6 2.8-0.8 2.8-0.8 2.8 0 0.1-0.1 0.1 0 0-0.3 0h-0.3q-0.1-0.1-0.2-0.1 0 0 0.1-0.3 0-0.4 0-0.9zm3.3 15.7v-0.4-0.1h0.4q0 0 0.1 0 0.1 0 0.1 0 0 0 0.1 0 0.1 0 0.1 0 0 0 0 0 0.1 0 0.1 0 0 0 0.1 0 0-0.1 0-0.1 0 0 0 0l0.1-0.1v-1.5h-1.5q-1.2 0-1.4 0-0.1 0-0.2-0.1 0 0 0-0.2v-0.3l0.2-0.2 0.8-1.1q0.8-1.1 1.7-2.3 0.8-1.2 0.8-1.2 0.1 0 0.3 0h0.2 0.1v4.8h1q0.1 0.1 0.1 0.1v0.4q0 0-0.1 0.1h-1v0.7q0 0.8 0 0.8 0 0.2 0.2 0.2 0.2 0 0.6 0h0.2q0.1 0 0.1 0.1v0.4h-0.1-0.1q-0.7 0-1.5 0-1.2 0-1.4 0h-0.1zm-1.4-2.7h2.6v-3.5q-0.6 0.8-1.3 1.7z"/><path class="b" d="m680.5 80.5v80"/><path fill-rule="evenodd" class="b" d="m680.5 80.5c-22.1 0-40-17.9-40-40 0-22.1 17.9-40 40-40 22.1 0 40 17.9 40 40 0 22.1-17.9 40-40 40z"/><path  d="m678.1 37.6q-0.3 0.3-0.8 0.3-0.4 0-0.7-0.3-0.3-0.3-0.3-0.8 0-0.3 0.1-0.6 0.3-0.6 1.1-0.9 0.7-0.3 1.9-0.3 1.3 0 2.2 0.6 1 0.6 1.3 1.6 0.1 0.3 0.1 0.6 0 0.4 0 2.3 0 2 0 2.3 0.1 0.3 0.2 0.5 0.1 0.3 0.4 0.3 0.2 0 0.3-0.3 0.2-0.2 0.2-1.1v-0.7h0.8v0.8q-0.1 0.8-0.1 0.9-0.2 0.6-0.7 1-0.4 0.3-1.1 0.3-0.5 0-0.9-0.3-0.4-0.4-0.5-0.9v-0.1q-0.1 0.1-0.3 0.3-0.1 0.2-0.2 0.3-1 0.8-2.3 0.8-1 0-1.9-0.4-0.8-0.5-1.1-1.2-0.1-0.4-0.1-0.7 0-1 0.8-1.8 0.4-0.4 1.1-0.7 1.4-0.6 3.5-0.8h0.3v-0.4q0-0.7-0.2-1-0.2-0.7-0.7-1-0.5-0.4-1.2-0.4-1.3 0-1.3 0.1 0.4 0.3 0.4 0.9 0 0.5-0.3 0.8zm3.3 2.9q0-1.2-0.1-1.2 0 0-0.1 0.1-2.7 0.1-3.5 1.6-0.2 0.4-0.2 0.9 0 0.7 0.5 1.1 0.5 0.5 1.2 0.5 0.8 0 1.3-0.5 0.6-0.5 0.8-1.2 0-0.1 0.1-1.3z"/><path class="b" d="m800.5 40.5h-80"/><path fill-rule="evenodd" class="b" d="m840.5 80.5c-22.1 0-40-17.9-40-40 0-22.1 17.9-40 40-40 22.1 0 40 17.9 40 40 0 22.1-17.9 40-40 40z"/><path  d="m837 31.2q0.3 0 0.7 0 0.4 0 0.6-0.1 0.2 0 0.2 0h0.1v3q0 3.1 0 3.1 0.1-0.1 0.1-0.1 1.1-0.9 2.8-0.9 0.3 0 0.6 0 1.4 0.3 2.4 1.5 0.9 1.2 0.9 3 0 0.4 0 0.7-0.3 1.6-1.4 2.7-1.2 1.1-2.9 1.1-1.5 0-2.6-1.2l-0.1-0.1-0.2 0.4q-0.1 0-0.2 0.2 0 0.1-0.1 0.2 0 0.1 0 0.1l-0.1 0.2h-0.4-0.4v-6q0-6-0.1-6.1 0-0.3-0.3-0.5-0.2-0.1-0.8-0.1h-0.4v-0.5q0-0.5 0-0.5h0.2q0.2 0 0.6 0 0.4 0 0.8-0.1zm4.6 5.8q-0.5-0.1-0.6-0.1-1.4 0-2.2 1.2l-0.2 0.1v4.8l0.1 0.2q0.6 0.9 1.6 1.2 0.2 0.1 0.6 0.1 1.3 0 2-1.1 0.2-0.2 0.3-0.7 0.3-0.7 0.3-1.9 0-1.5-0.3-2.3-0.4-1.2-1.6-1.5z"/><path class="b" d="m720.5 200.5h80"/><path fill-rule="evenodd" class="b" d="m680.5 240.5c-22.1 0-40-17.9-40-40 0-22.1 17.9-40 40-40 22.1 0 40 17.9 40 40 0 22.1-17.9 40-40 40z"/><path  d="m683.8 198.6q-0.3 0.3-0.8 0.3-0.5 0-0.8-0.3-0.3-0.3-0.3-0.8 0-0.4 0.3-0.7 0.1-0.1 0.1-0.1 0-0.1-0.2-0.1-0.5-0.1-0.9-0.1-1.1 0-1.6 0.7-1 0.9-1 3.1 0 1.7 0.6 2.6 0.9 1.2 2.2 1.2 0.5 0 0.9-0.2 0.9-0.4 1.2-1.5 0-0.2 0.1-0.2 0-0.1 0.3-0.1h0.3q0.1 0.1 0.1 0.2 0 0.4-0.5 1.2-1 1.4-2.8 1.4-1 0-1.9-0.4-2-1.1-2.4-3.4 0-0.2 0-0.7 0-0.5 0-0.6 0.2-1.9 1.6-3.1 1.2-1 2.7-1 2.6 0 3 1.4 0.1 0.2 0.1 0.5 0 0.4-0.3 0.7z"/><path class="b" d="m840.5 160.5v-80"/><path fill-rule="evenodd" class="b" d="m840.5 240.5c-22.1 0-40-17.9-40-40 0-22.1 17.9-40 40-40 22.1 0 40 17.9 40 40 0 22.1-17.9 40-40 40z"/><path  d="m840.9 196.2q1.5 0 2.6 0.9v-2q0-2.1 0-2.2-0.1-0.3-0.3-0.5-0.2-0.1-0.9-0.1h-0.3v-0.5q0-0.5 0-0.5h0.2q0.2 0 0.6 0 0.4 0 0.7-0.1 0.4 0 0.8 0 0.4 0 0.6-0.1 0.2 0 0.2 0v6.1q0 6.1 0.1 6.2 0 0.4 0.2 0.5 0.3 0.1 0.9 0.2h0.4v0.9q0 0-1.5 0.1-1.5 0.1-1.6 0.1h-0.1v-1.1l-0.2 0.2q-1.1 0.9-2.6 0.9-1.4 0-2.5-0.9-1.2-1.1-1.5-2.9 0-0.2 0-0.7 0-1.9 1.2-3.2 1.3-1.3 3-1.3zm2.6 6.7v-4.7q-0.9-1.3-2.3-1.3-1 0-1.7 0.7-0.5 0.5-0.7 1.2-0.2 0.7-0.2 2 0 2.2 0.9 3 0.6 0.7 1.5 0.7 0.7 0 1.4-0.4 0.6-0.4 1-1z"/><path  d="m749.6 276.3h-0.4q-0.2-0.2-0.2-0.3 0-0.4 0.3-0.7h0.2q0.9 0.1 2 0.1 0.2 0 0.7 0 0.4 0 0.6 0 0.3 0 0.6 0 0.4 0 0.6 0 0.2-0.1 0.3-0.1h0.2q0.1 0.2 0.1 0.2 0 0.1-0.1 0.4 0 0.3-0.1 0.4h-0.5q-0.5 0-0.9 0.1-0.3 0.1-0.4 0.2 0 0.1 0.4 4.8 0.3 4.7 0.3 4.9 3.1-5.5 4.7-8.3v-0.7q-0.1-0.9-0.2-0.9-0.1-0.1-0.9-0.1-0.5 0-0.6-0.2 0 0 0.1-0.3 0.1-0.4 0.1-0.4 0.1-0.1 0.7 0 0.6 0 1.9 0 0.5 0 1.3 0 0.8 0 1.1 0 0.4 0 0.4 0.1 0 0.1-0.1 0.4 0 0.2-0.1 0.2 0 0.2-0.5 0.2-1 0-1.2 0.3-0.1 0-0.1 0.1 0 0.2 0.4 4.8 0.3 4.5 0.3 4.7 0.1-0.1 0.1-0.2 0.1-0.2 0.3-0.4 0.1-0.2 0.3-0.6 0.2-0.4 0.5-0.8 0.3-0.5 0.6-1.1 0.4-0.6 0.8-1.3 2.6-4.6 2.6-4.7 0-0.1 0-0.2 0-0.3-0.4-0.5-0.3-0.1-0.8-0.1-0.3 0-0.3-0.2 0-0.1 0.1-0.3 0-0.1 0-0.1 0-0.1 0-0.2 0 0 0.1 0 0-0.1 0-0.1 0.1 0 0.1 0 0.1 0 0.2 0 0.3 0 1.1 0 0.7 0 1.1 0 1.3 0 1.7-0.1 0.3 0 0.3 0.3 0 0.1-0.1 0.3-0.1 0.3-0.1 0.3-0.1 0.1-0.2 0.1-1.3 0-2 0.9-0.1 0.2-0.1 0.2l-3.4 6q-3.4 5.9-3.4 5.9-0.1 0.1-0.5 0.1-0.3 0-0.4-0.1 0 0-0.4-4.9-0.3-4.9-0.3-5l-0.2 0.4q-0.5 0.7-2.6 4.4-0.6 1.1-1.4 2.4-0.7 1.4-1.1 2-0.3 0.6-0.3 0.6-0.2 0.2-0.6 0.2-0.3 0-0.4-0.1 0-0.1-0.4-6.4-0.5-6.3-0.5-6.3 0-0.2-0.2-0.3-0.1 0-0.8 0zm19.7 18.8v-0.4-0.1h0.4q0 0 0.1 0 0.1 0 0.1 0 0 0 0.1 0 0.1 0 0.1 0 0 0 0 0 0.1 0 0.1 0 0 0 0.1 0 0-0.1 0-0.1 0 0 0 0l0.1-0.1v-1.5h-1.5q-1.2 0-1.4 0-0.1 0-0.2-0.1 0 0 0-0.2v-0.3l0.2-0.2 0.8-1.1q0.8-1.1 1.7-2.3 0.8-1.2 0.8-1.2 0.1 0 0.3 0h0.2 0.1v4.8h1q0.1 0.1 0.1 0.1v0.4q0 0-0.1 0.1h-1v0.7q0 0.8 0 0.8 0 0.2 0.2 0.2 0.2 0 0.6 0h0.2q0.1 0 0.1 0.1v0.4h-0.1-0.1q-0.7 0-1.5 0-1.2 0-1.4 0h-0.1zm-1.4-2.7h2.6v-3.5q-0.6 0.8-1.3 1.7z"/><path class="b" d="m788.8 92.2l23.4-23.4"/><path class="b" d="m732.2 92.2l-23.4-23.4"/><path class="b" d="m732.2 148.8l-23.4 23.4"/><path class="b" d="m788.8 148.8l23.4 23.4"/><path fill-rule="evenodd" class="b" d="m760.5 160.5c-22.1 0-40-17.9-40-40 0-22.1 17.9-40 40-40 22.1 0 40 17.9 40 40 0 22.1-17.9 40-40 40z"/><path  d="m767.4 119.2q0 3-1.9 5.1-2 2.1-4.7 2.1-0.6 0-1 0-2.1-0.4-3.7-2-1.5-1.6-1.9-3.9-0.1-0.5-0.1-1.3 0-2.7 1.7-4.8 0.6-0.7 1-1.1 1.5-1.2 3.4-1.4 0.2 0 0.6 0 2.1 0 3.9 1.4 0.5 0.4 1.1 1.1 1.3 1.6 1.6 3.9 0 0.4 0 0.9zm-5.1-6.1q-0.8-0.4-1.5-0.4-0.8 0-1.6 0.4-1 0.5-1.7 1.6-0.7 1-0.9 2.5-0.1 0.6-0.1 1.7 0 4.2 2 5.9 1 0.8 2.3 0.8 0.4 0 0.5 0 1.4-0.3 2.4-1.6 1.4-1.7 1.4-5.1 0-1.1-0.1-1.7-0.5-3-2.7-4.1z"/></svg>