<svg version="1.2" xmlns="http://www.w3.org/2000/svg" viewBox="0 0 241 241" width="241" height="241"><style>.a{fill:#fff}.b{fill:none;stroke:#000;stroke-miterlimit:10;stroke-width:1.5}.c{fill:#fff;stroke:#000;stroke-width:1.5}</style><path fill-rule="evenodd" class="a" d="m0 0h241v241h-241z"/><path class="b" d="m40.5 80.5v80"/><path class="b" d="m68.8 68.8l103.4 103.4"/><path fill-rule="evenodd" class="c" d="m40.5 80.5c-22.1 0-40-17.9-40-40 0-22.1 17.9-40 40-40 22.1 0 40 17.9 40 40 0 22.1-17.9 40-40 40z"/><path  d="m38.1 37.6q-0.3 0.3-0.8 0.3-0.4 0-0.7-0.3-0.3-0.3-0.3-0.8 0-0.3 0.1-0.6 0.3-0.6 1.1-0.9 0.7-0.3 1.9-0.3 1.3 0 2.2 0.6 1 0.6 1.3 1.6 0.1 0.3 0.1 0.6 0 0.4 0 2.3 0 2 0 2.3 0.1 0.3 0.2 0.5 0.1 0.3 0.4 0.3 0.2 0 0.3-0.3 0.2-0.2 0.2-1.1v-0.7h0.8v0.8q-0.1 0.8-0.1 0.9-0.2 0.6-0.7 1-0.4 0.3-1.1 0.3-0.5 0-0.9-0.3-0.4-0.4-0.5-0.9v-0.1q-0.1 0.1-0.3 0.3-0.1 0.2-0.2 0.3-1 0.8-2.3 0.8-1 0-1.9-0.4-0.8-0.5-1.1-1.2-0.1-0.4-0.1-0.7 0-1 0.8-1.8 0.4-0.4 1.1-0.7 1.4-0.6 3.5-0.8h0.3v-0.4q0-0.7-0.2-1-0.2-0.7-0.7-1-0.5-0.4-1.2-0.4-1.3 0-1.3 0.1 0.4 0.3 0.4 0.9 0 0.5-0.3 0.8zm3.3 2.9q0-1.2-0.1-1.2 0 0-0.1 0.1-2.7 0.1-3.5 1.6-0.2 0.4-0.2 0.9 0 0.7 0.5 1.1 0.5 0.5 1.2 0.5 0.8 0 1.3-0.5 0.6-0.5 0.8-1.2 0-0.1 0.1-1.3z"/><path class="b" d="m160.5 40.5h-80"/><path fill-rule="evenodd" class="c" d="m200.5 80.5c-22.1 0-40-17.9-40-40 0-22.1 17.9-40 40-40 22.1 0 40 17.9 40 40 0 22.1-17.9 40-40 40z"/><path  d="m197 31.2q0.3 0 0.7 0 0.4 0 0.6-0.1 0.2 0 0.2 0h0.1v3q0 3.1 0 3.1 0.1-0.1 0.1-0.1 1.1-0.9 2.8-0.9 0.3 0 0.6 0 1.4 0.3 2.4 1.5 0.9 1.2 0.9 3 0 0.4 0 0.7-0.3 1.6-1.4 2.7-1.2 1.1-2.9 1.1-1.5 0-2.6-1.2l-0.1-0.1-0.2 0.4q-0.1 0-0.2 0.2 0 0.1-0.1 0.2 0 0.1 0 0.1l-0.1 0.2h-0.4-0.4v-6q0-6-0.1-6.1 0-0.3-0.3-0.5-0.2-0.1-0.8-0.1h-0.4v-0.5q0-0.5 0-0.5h0.2q0.2 0 0.6 0 0.4 0 0.8-0.1zm4.6 5.8q-0.5-0.1-0.6-0.1-1.4 0-2.2 1.2l-0.2 0.1v4.8l0.1 0.2q0.6 0.9 1.6 1.2 0.2 0.1 0.6 0.1 1.3 0 2-1.1 0.2-0.2 0.3-0.7 0.3-0.7 0.3-1.9 0-1.5-0.3-2.3-0.4-1.2-1.6-1.5z"/><path class="b" d="m80.5 200.5h80"/><path fill-rule="evenodd" class="c" d="m40.5 240.5c-22.1 0-40-17.9-40-40 0-22.1 17.9-40 40-40 22.1 0 40 17.9 40 40 0 22.1-17.9 40-40 40z"/><path  d="m43.8 198.6q-0.3 0.3-0.8 0.3-0.5 0-0.8-0.3-0.3-0.3-0.3-0.8 0-0.4 0.3-0.7 0.1-0.1 0.1-0.1 0-0.1-0.2-0.1-0.5-0.1-0.9-0.1-1.1 0-1.6 0.7-1 0.9-1 3.1 0 1.7 0.6 2.6 0.9 1.2 2.2 1.2 0.5 0 0.9-0.2 0.9-0.4 1.2-1.5 0-0.2 0.1-0.2 0-0.1 0.3-0.1h0.3q0.1 0.1 0.1 0.2 0 0.4-0.5 1.2-1 1.4-2.8 1.4-1 0-1.9-0.4-2-1.1-2.4-3.4 0-0.2 0-0.7 0-0.5 0-0.6 0.2-1.9 1.6-3.1 1.2-1 2.7-1 2.6 0 3 1.4 0.1 0.2 0.1 0.5 0 0.4-0.3 0.7z"/><path class="b" d="m200.5 160.5v-80"/><path fill-rule="evenodd" class="c" d="m200.5 240.5c-22.1 0-40-17.9-40-40 0-22.1 17.9-40 40-40 22.1 0 40 17.9 40 40 0 22.1-17.9 40-40 40z"/><path  d="m199.9 196.2q1.5 0 2.6 0.9v-2q0-2.1 0-2.2-0.1-0.3-0.3-0.5-0.2-0.1-0.9-0.1h-0.3v-0.5q0-0.5 0-0.5h0.2q0.2 0 0.6 0 0.4 0 0.7-0.1 0.4 0 0.8 0 0.4 0 0.6-0.1 0.2 0 0.2 0v6.1q0 6.1 0.1 6.2 0 0.4 0.2 0.5 0.3 0.1 0.9 0.2h0.4v0.9q0 0-1.5 0.1-1.5 0.1-1.6 0.1h-0.1v-1.1l-0.2 0.2q-1.1 0.9-2.6 0.9-1.4 0-2.5-0.9-1.2-1.1-1.5-2.9 0-0.2 0-0.7 0-1.9 1.2-3.2 1.3-1.3 3-1.3zm2.6 6.7v-4.7q-0.9-1.3-2.3-1.3-1 0-1.7 0.7-0.5 0.5-0.7 1.2-0.2 0.7-0.2 2 0 2.2 0.9 3 0.6 0.7 1.5 0.7 0.7 0 1.4-0.4 0.6-0.4 1-1z"/></svg>