<svg version="1.2" xmlns="http://www.w3.org/2000/svg" viewBox="0 0 381 281" width="381" height="281"><style>.a{fill:#fff}.b{stroke:#000;stroke-miterlimit:10;stroke-width:1.5}.c{fill:#fff;stroke:#000;stroke-miterlimit:10;stroke-width:1.5}</style><path fill-rule="evenodd" class="a" d="m0 0h381v281h-381z"/><path class="b" d="m68.8 68.8l38.9 38.9"/><path class="b" d="m111.4 111.4l-7.4-2.5 3.7-1.2 1.2-3.7z"/><path fill-rule="evenodd" class="c" d="m40.5 80.5c-22.1 0-40-17.9-40-40 0-22.1 17.9-40 40-40 22.1 0 40 17.9 40 40 0 22.1-17.9 40-40 40z"/><path  d="m44.7 42.9q0.2 0 0.3 0.1 0 0 0.1 0 0 0 0 0.1 0 0.1 0 0.3-0.5 1.7-1.1 2.3-0.3 0.3-0.7 0.5-0.1 0-0.4 0-1.3 0-1.8-1-0.1-0.2-0.1-0.2 0 0-0.1 0 0 0-0.1 0.1-0.9 0.9-1.9 1.1-0.1 0-0.5 0-1.3 0-2.1-1.1-0.6-0.9-0.6-2.2 0-0.4 0-0.5 0.1-1.3 0.8-2.4 0.7-1.2 1.7-1.9 1.1-0.9 2.4-0.9 1 0 1.8 1 0.3-0.6 0.9-0.6 0.3 0 0.5 0.1 0.2 0.2 0.2 0.4 0 0.3-0.8 3.2-0.7 3-0.7 3.3 0 0.9 0.5 0.9 0.2 0 0.4-0.2 0.5-0.4 0.9-1.9 0.1-0.4 0.2-0.4 0-0.1 0.2-0.1zm-7.3 1q0 0.7 0.3 1.1 0.3 0.5 0.9 0.5 0.6 0 1.2-0.5 0.3-0.2 0.7-0.6 0.4-0.4 0.5-0.6 0-0.1 0.5-2.1 0.5-2.1 0.5-2.3 0-0.2-0.2-0.6-0.4-0.9-1.3-0.9-0.8 0-1.4 0.7-0.6 0.7-0.9 1.5-0.6 1.6-0.8 3.3 0 0.1 0 0.2 0 0.2 0 0.3z"/><path class="b" d="m168.8 168.8l38.9 38.9"/><path class="b" d="m211.4 211.4l-7.4-2.5 3.7-1.2 1.2-3.7z"/><path fill-rule="evenodd" class="c" d="m140.5 180.5c-22.1 0-40-17.9-40-40 0-22.1 17.9-40 40-40 22.1 0 40 17.9 40 40 0 22.1-17.9 40-40 40z"/><path  d="m137.8 132.3q0 0 1.4-0.1 1.5-0.1 1.5-0.1 0.2 0 0.2 0.2 0 0.2-0.7 2.9-0.1 0.6-0.3 1.4-0.2 0.7-0.3 1l-0.1 0.4q0 0.1 0.1 0 0.7-0.6 1.6-0.8 0.2 0 0.5 0 0.2 0 0.5 0 1 0.2 1.6 1.1 0.6 0.8 0.6 2.1 0 2.2-1.5 4-1.6 1.8-3.4 1.8-0.6 0-1.1-0.2-1.6-0.7-1.6-3 0-0.6 0.1-1.1 0-0.1 1-4.1l1-4.1q0.1-0.3-0.1-0.4-0.2 0-0.6 0-0.1 0-0.2 0-0.4 0-0.5-0.1-0.1-0.1 0-0.5 0.1-0.3 0.2-0.3 0-0.1 0.1-0.1zm4.9 7.2q0-1.6-1.2-1.6 0 0-0.1 0-0.1 0-0.1 0-1.1 0.2-2 1.5 0 0-0.1 0.1l-0.1 0.1q0 0-0.3 1.4-0.4 1.4-0.4 1.6-0.1 0.6-0.1 1.1 0 1 0.5 1.5 0.3 0.3 0.8 0.3 0.6 0 1.3-0.7 0.5-0.4 0.8-1.1 0.3-0.7 0.7-2.1 0.3-1.4 0.3-2.1z"/><path class="b" d="m268.8 212.2l38.9-38.9"/><path class="b" d="m311.4 169.6l-2.4 7.4-1.3-3.7-3.7-1.2z"/><path fill-rule="evenodd" class="c" d="m240.5 280.5c-22.1 0-40-17.9-40-40 0-22.1 17.9-40 40-40 22.1 0 40 17.9 40 40 0 22.1-17.9 40-40 40z"/><path  d="m244.1 243.6q0.1 0 0.3 0.2 0.2 0.2 0.2 0.2 0 0.2-0.6 0.8-1.3 1.1-3.2 1.4-0.4 0-0.8 0-2.1 0-2.9-1.7-0.4-0.8-0.4-1.7 0-0.9 0.4-1.9 0.5-1.5 1.8-2.5 1.4-1.1 2.8-1.2 0.2 0 0.4 0 0.7 0 1.3 0.2 1.1 0.5 1.1 1.5 0 0.6-0.3 1-0.4 0.4-1 0.4-0.4 0-0.6-0.2-0.2-0.2-0.2-0.6 0-0.3 0.2-0.7 0.2-0.3 0.5-0.4 0.2-0.1 0.2-0.1 0.1 0-0.1-0.2-0.4-0.2-1.1-0.2-0.6 0-1.1 0.3-0.4 0.2-0.9 0.6-0.5 0.5-0.8 1.3-0.3 0.7-0.7 2-0.2 1-0.2 1.5 0 0.9 0.5 1.4 0.5 0.5 1.3 0.5 0.3 0 0.6-0.1 1.9-0.2 3.1-1.6 0.2-0.2 0.2-0.2z"/><path class="b" d="m312.2 112.2l-38.9-38.9"/><path class="b" d="m269.6 69.6l7.4 2.5-3.7 1.2-1.3 3.7z"/><path fill-rule="evenodd" class="c" d="m340.5 180.5c-22.1 0-40-17.9-40-40 0-22.1 17.9-40 40-40 22.1 0 40 17.9 40 40 0 22.1-17.9 40-40 40z"/><path  d="m343.8 132.2q0.3 0 0.6 0 0.4 0 0.6-0.1 0.2 0 0.2 0 0.3 0 0.3 0.2 0 0.1-1.5 6-1.5 5.9-1.5 6 0 0.1 0 0.3 0 0.9 0.5 0.9 0.2 0 0.4-0.2 0.5-0.4 0.9-1.9 0.1-0.4 0.2-0.4 0-0.1 0.2-0.1 0.4 0 0.4 0.2 0 0.1 0 0.3-0.5 1.7-1.1 2.3-0.3 0.3-0.7 0.5-0.1 0-0.4 0-1.3 0-1.8-1-0.1-0.2-0.1-0.2 0 0-0.1 0 0 0-0.1 0.1-0.9 0.9-1.9 1.1-0.1 0-0.5 0-1.3 0-2.1-1.1-0.6-0.9-0.6-2.2 0-1.9 1.3-3.7 1.3-1.5 2.8-1.9 0.4-0.1 0.8-0.1 1.1 0 1.7 0.8 0.1 0.1 0.1 0.1 0-0.1 0.5-2.2 0.6-2.1 0.6-2.2 0-0.3-0.1-0.3-0.3-0.1-0.8-0.1h-0.5q-0.1-0.2-0.1-0.2 0 0 0.1-0.4 0.1-0.4 0.2-0.4 0 0 0.2 0 0.2 0 0.6 0 0.3 0 0.7-0.1zm-1.8 7.3q-0.4-1.6-1.5-1.6-0.8 0-1.4 0.7-0.6 0.7-0.9 1.5-0.6 1.6-0.8 3.3 0 0.1 0 0.2 0 0.2 0 0.3 0 0.7 0.3 1.1 0.3 0.5 0.9 0.5 1 0 2.2-1.5l0.2-0.2q0.1-0.7 0.5-2.1 0.4-1.5 0.5-2.2z"/><path class="b" d="m212.2 68.8l-38.9 38.9"/><path class="b" d="m169.6 111.4l2.5-7.4 1.2 3.7 3.7 1.2z"/><path fill-rule="evenodd" class="c" d="m240.5 80.5c-22.1 0-40-17.9-40-40 0-22.1 17.9-40 40-40 22.1 0 40 17.9 40 40 0 22.1-17.9 40-40 40z"/><path  d="m243.1 43.6q0.1 0 0.3 0.2 0.2 0.2 0.2 0.2 0 0.2-0.6 0.8-1.7 1.4-3.9 1.4-1.1 0-1.9-0.5-0.4-0.3-0.8-0.8-0.6-1-0.6-2.3 0-0.7 0.1-1.5 0.5-1.5 1.8-2.6 1.3-1.1 3.1-1.3 0 0 0.3 0h0.1q0.8 0 1.4 0.3 0.6 0.4 0.8 1 0 0.1 0 0.4 0 0.4 0 0.5-0.4 1.4-2.2 1.9-1 0.2-2.7 0.2-0.7 0-0.7 0.1 0 0-0.1 0.2-0.2 1-0.2 1.6 0 1 0.4 1.5 0.4 0.6 1.3 0.6 2.2 0 3.7-1.7 0.2-0.2 0.2-0.2zm-0.6-4.7q-0.2-1-1.4-1-0.7 0-1.4 0.4-1 0.6-1.5 1.8-0.2 0.6-0.2 0.7 0 0 0.4 0 0.6 0 1.2 0 1.2-0.1 1.8-0.4 0.5-0.2 0.9-0.8 0.2-0.3 0.2-0.7z"/></svg>