<svg version="1.2" xmlns="http://www.w3.org/2000/svg" viewBox="0 0 641 311" width="641" height="311"><style>.a{fill:#fff}.b{fill:none;stroke:#000;stroke-miterlimit:10;stroke-width:1.5}</style><path fill-rule="evenodd" class="a" d="m0 0h641v311h-641z"/><path class="b" d="m68.8 68.8l103.4 103.4"/><path fill-rule="evenodd" class="b" d="m40.5 80.5c-22.1 0-40-17.9-40-40 0-22.1 17.9-40 40-40 22.1 0 40 17.9 40 40 0 22.1-17.9 40-40 40z"/><path  d="m44.7 42.9q0.2 0 0.3 0.1 0 0 0.1 0 0 0 0 0.1 0 0.1 0 0.3-0.5 1.7-1.1 2.3-0.3 0.3-0.7 0.5-0.1 0-0.4 0-1.3 0-1.8-1-0.1-0.2-0.1-0.2 0 0-0.1 0 0 0-0.1 0.1-0.9 0.9-1.9 1.1-0.1 0-0.5 0-1.3 0-2.1-1.1-0.6-0.9-0.6-2.2 0-0.4 0-0.5 0.1-1.3 0.8-2.4 0.7-1.2 1.7-1.9 1.1-0.9 2.4-0.9 1 0 1.8 1 0.3-0.6 0.9-0.6 0.3 0 0.5 0.1 0.2 0.2 0.2 0.4 0 0.3-0.8 3.2-0.7 3-0.7 3.3 0 0.9 0.5 0.9 0.2 0 0.4-0.2 0.5-0.4 0.9-1.9 0.1-0.4 0.2-0.4 0-0.1 0.2-0.1zm-7.3 1q0 0.7 0.3 1.1 0.3 0.5 0.9 0.5 0.6 0 1.2-0.5 0.3-0.2 0.7-0.6 0.4-0.4 0.5-0.6 0-0.1 0.5-2.1 0.5-2.1 0.5-2.3 0-0.2-0.2-0.6-0.4-0.9-1.3-0.9-0.8 0-1.4 0.7-0.6 0.7-0.9 1.5-0.6 1.6-0.8 3.3 0 0.1 0 0.2 0 0.2 0 0.3z"/><path class="b" d="m172.2 68.8l-103.4 103.4"/><path fill-rule="evenodd" class="b" d="m200.5 80.5c-22.1 0-40-17.9-40-40 0-22.1 17.9-40 40-40 22.1 0 40 17.9 40 40 0 22.1-17.9 40-40 40z"/><path  d="m197.8 32.3q0 0 1.4-0.1 1.5-0.1 1.5-0.1 0.2 0 0.2 0.2 0 0.2-0.7 2.9-0.1 0.6-0.3 1.4-0.2 0.7-0.3 1l-0.1 0.4q0 0.1 0.1 0 0.7-0.6 1.6-0.8 0.2 0 0.5 0 0.2 0 0.5 0 1 0.2 1.6 1.1 0.6 0.8 0.6 2.1 0 2.2-1.5 4-1.6 1.8-3.4 1.8-0.6 0-1.1-0.2-1.6-0.7-1.6-3 0-0.6 0.1-1.1 0-0.1 1-4.1l1-4.1q0.1-0.3-0.1-0.4-0.2 0-0.6 0-0.1 0-0.2 0-0.4 0-0.5-0.1-0.1-0.1 0-0.5 0.1-0.3 0.2-0.3 0-0.1 0.1-0.1zm4.9 7.2q0-1.6-1.2-1.6 0 0-0.1 0-0.1 0-0.1 0-1.1 0.2-2 1.5 0 0-0.1 0.1l-0.1 0.1q0 0-0.3 1.4-0.4 1.4-0.4 1.6-0.1 0.6-0.1 1.1 0 1 0.5 1.5 0.3 0.3 0.8 0.3 0.6 0 1.3-0.7 0.5-0.4 0.8-1.1 0.3-0.7 0.7-2.1 0.3-1.4 0.3-2.1z"/><path class="b" d="m80.5 200.5h80"/><path fill-rule="evenodd" class="b" d="m40.5 240.5c-22.1 0-40-17.9-40-40 0-22.1 17.9-40 40-40 22.1 0 40 17.9 40 40 0 22.1-17.9 40-40 40z"/><path  d="m44.1 203.6q0.1 0 0.3 0.2 0.2 0.2 0.2 0.2 0 0.2-0.6 0.8-1.3 1.1-3.2 1.4-0.4 0-0.8 0-2.1 0-2.9-1.7-0.4-0.8-0.4-1.7 0-0.9 0.4-1.9 0.5-1.5 1.8-2.5 1.4-1.1 2.8-1.2 0.2 0 0.4 0 0.7 0 1.3 0.2 1.1 0.5 1.1 1.5 0 0.6-0.3 1-0.4 0.4-1 0.4-0.4 0-0.6-0.2-0.2-0.2-0.2-0.6 0-0.3 0.2-0.7 0.2-0.3 0.5-0.4 0.2-0.1 0.2-0.1 0.1 0-0.1-0.2-0.4-0.2-1.1-0.2-0.6 0-1.1 0.3-0.4 0.2-0.9 0.6-0.5 0.5-0.8 1.3-0.3 0.7-0.7 2-0.2 1-0.2 1.5 0 0.9 0.5 1.4 0.5 0.5 1.3 0.5 0.3 0 0.6-0.1 1.9-0.2 3.1-1.6 0.2-0.2 0.2-0.2z"/><path class="b" d="m200.5 240.5q0 20-80 20-80 0-80-20"/><path fill-rule="evenodd" class="b" d="m200.5 240.5c-22.1 0-40-17.9-40-40 0-22.1 17.9-40 40-40 22.1 0 40 17.9 40 40 0 22.1-17.9 40-40 40z"/><path  d="m203.8 192.2q0.3 0 0.6 0 0.4 0 0.6-0.1 0.2 0 0.2 0 0.3 0 0.3 0.2 0 0.1-1.5 6-1.5 5.9-1.5 6 0 0.1 0 0.3 0 0.9 0.5 0.9 0.2 0 0.4-0.2 0.5-0.4 0.9-1.9 0.1-0.4 0.2-0.4 0-0.1 0.2-0.1 0.4 0 0.4 0.2 0 0.1 0 0.3-0.5 1.7-1.1 2.3-0.3 0.3-0.7 0.5-0.1 0-0.4 0-1.3 0-1.8-1-0.1-0.2-0.1-0.2 0 0-0.1 0 0 0-0.1 0.1-0.9 0.9-1.9 1.1-0.1 0-0.5 0-1.3 0-2.1-1.1-0.6-0.9-0.6-2.2 0-1.9 1.3-3.7 1.3-1.5 2.8-1.9 0.4-0.1 0.8-0.1 1.1 0 1.7 0.8 0.1 0.1 0.1 0.1 0-0.1 0.5-2.2 0.6-2.1 0.6-2.2 0-0.3-0.1-0.3-0.3-0.1-0.8-0.1h-0.5q-0.1-0.2-0.1-0.2 0 0 0.1-0.4 0.1-0.4 0.2-0.4 0 0 0.2 0 0.2 0 0.6 0 0.3 0 0.7-0.1zm-1.8 7.3q-0.4-1.6-1.5-1.6-0.8 0-1.4 0.7-0.6 0.7-0.9 1.5-0.6 1.6-0.8 3.3 0 0.1 0 0.2 0 0.2 0 0.3 0 0.7 0.3 1.1 0.3 0.5 0.9 0.5 1 0 2.2-1.5l0.2-0.2q0.1-0.7 0.5-2.1 0.4-1.5 0.5-2.2z"/><path  d="m77.6 299.3v-10.7q-0.2-0.2-0.4-0.3-0.1 0-1 0h-0.6v-1h2.1q2.1 0 2.2 0.1l0.1 0.1q0 0.1 4.2 11 1.9-5.2 3.5-9.4 0.6-1.6 0.7-1.6 0 0 0-0.1 0.1-0.1 2.2-0.1h2.1v1h-0.6q-0.8 0-1.1 0-0.2 0.1-0.3 0.3v11.2q0.1 0.2 0.3 0.2 0.3 0.1 1.1 0.1h0.6v0.9h-0.2q-0.3-0.1-2.8-0.1-2.5 0-2.8 0.1h-0.2v-0.9h0.7q0.8 0 1-0.1 0.2 0 0.4-0.2v-5.7q0-1.6 0-2.3 0-0.8 0-1.7 0-1 0-1.4l-0.1-0.3q-4.6 12.3-4.7 12.5-0.1 0.1-0.4 0.1-0.3 0-0.4-0.1l-4.7-12.4v0.4q0 0.3 0 1.2 0 0.9 0 1.6 0 0.7 0 2.2v5.4q0.3 0.7 1.7 0.8h0.4v0.9h-0.2q-0.3-0.1-2.3-0.1-2.1 0-2.4 0.1h-0.1v-0.9h0.3q1.4-0.1 1.7-0.7zm17.4-7q0.4 0 0.8 0 0.4-0.1 0.6-0.1 0.2 0 0.2 0h0.1v3.6q0 3.7 0 3.8 0.1 0.4 0.3 0.6 0.4 0.3 1.2 0.3 0.6 0 1-0.2 1.1-0.5 1.3-2.2 0 0 0-0.3 0-0.3 0-0.8 0-0.5 0-0.9 0-0.5 0-1 0-0.5 0-0.8v-0.3q0-0.4-0.3-0.5-0.2-0.1-0.9-0.2h-0.3v-0.9q0 0 1.5-0.1 1.5-0.1 1.6-0.1h0.1v3.5q0 3.6 0 3.7 0.1 0.4 0.3 0.5 0.3 0.2 0.9 0.2h0.4v0.9q-0.1 0-1.5 0.1-1.5 0.1-1.6 0.1h-0.1v-1.3q-0.8 1-1.6 1.2-0.4 0.1-1.1 0.1-1.3 0-2-0.4-0.7-0.5-0.9-1.6 0-0.1 0-2.7 0-2.2 0-2.4 0-0.3-0.1-0.5-0.2-0.3-1.2-0.3h-0.3v-0.4q0-0.5 0.1-0.5h0.2q0.2 0 0.6-0.1 0.4 0 0.7 0zm9.5 7.8h0.3 0.3q0.7 0 0.9-0.3v-0.1q0-0.2 0-0.5 0-0.3 0-0.7 0-0.3 0-0.8 0-0.5 0-1 0-0.5 0-1.1 0-0.6 0-1.2 0-0.7 0-1.5 0-0.9 0-1.5 0-0.7 0-1.2 0-0.6 0-0.9 0-0.3 0-0.3-0.1-0.4-0.3-0.5-0.2-0.2-0.9-0.2h-0.3v-0.5q0-0.4 0-0.4l0.2-0.1q0.2 0 0.6 0 0.4 0 0.7 0 0.4-0.1 0.8-0.1 0.4 0 0.6 0 0.2-0.1 0.2-0.1v6.3q0 6.4 0.1 6.4 0 0.2 0.2 0.2 0.4 0.1 1 0.1h0.3v0.9h-0.2q-0.3 0-2.2 0-1.9 0-2.2 0h-0.1zm8.3-11.1v-0.3h0.8v3.7h2.7v0.9h-2.7v2.9q0 2.5 0 2.9 0 0.3 0.1 0.6 0.3 0.8 1 0.8 0.9 0 1.1-1.5 0-0.1 0-0.9v-0.7h0.8v0.7q0 0.9-0.1 1.3-0.2 0.8-0.8 1.3-0.5 0.5-1.3 0.5-1.1 0-1.8-0.5-0.6-0.6-0.7-1.7 0-0.1 0-2.9v-2.8h-1.6v-0.7h0.2q0.7-0.1 1.2-0.6 1-1 1.1-3zm7.8-1.3q0.5 0 0.8 0.3 0.3 0.3 0.3 0.9 0 0.7-0.5 1-0.3 0.2-0.7 0.2-0.4 0-0.6-0.2-0.6-0.3-0.6-1 0-0.6 0.4-0.9 0.3-0.3 0.9-0.3zm2.4 13.3h-0.1q-0.2 0-2.1 0-1.8 0-2.2 0h-0.1v-0.9h0.3q0.5 0 1 0 0.1-0.1 0.2-0.3 0 0 0-2.9 0-3-0.1-3.2-0.1-0.4-1.1-0.4h-0.3v-0.4q0-0.5 0.1-0.5h0.2q0.2 0 0.5 0 0.4-0.1 0.8-0.1 0.3 0 0.7 0 0.4-0.1 0.6-0.1 0.2 0 0.2 0v7.6q0.1 0.2 0.3 0.3 0.1 0 0.7 0h0.4zm6.3-8.3l0.2 0.1q0.9-0.8 2-0.8 0.5 0 0.8 0.3 0.3 0.3 0.3 0.8 0 0.3-0.2 0.5-0.2 0.2-0.5 0.2-0.6 0-0.7-0.6-0.1-0.3 0-0.4 0 0 0.1-0.1-0.1 0-0.2 0.1-0.5 0-0.9 0.4-0.2 0.1-0.2 0.1 0.1 0 0.1 0.1 0.7 0.8 0.7 1.8 0 0.8-0.6 1.6-0.9 1.4-2.8 1.4-1 0-2-0.6-0.2 0.4-0.2 0.8 0 0.7 0.5 1 0.2 0.1 0.3 0.1 0.2 0 1.5 0.1 1.7 0 2.1 0.1 1.3 0.2 2 0.8 0.7 0.8 0.7 2 0 0.3 0 0.4-0.3 1-1.5 1.6-1.2 0.6-2.9 0.6-1.6 0-2.8-0.6-1.3-0.6-1.5-1.6-0.1-0.1-0.1-0.4 0-0.8 0.6-1.4 0.3-0.3 0.7-0.4l0.2-0.2q-0.7-0.6-0.7-1.6 0-1 0.6-1.7-0.9-0.9-0.9-2 0-0.9 0.5-1.6 0.4-0.7 1.2-1 0.8-0.4 1.7-0.4 1 0 1.9 0.5zm-3.5 2.5q0 1.1 0.3 1.6 0.4 0.6 1.3 0.6 0.6 0 1-0.3 0.4-0.4 0.5-0.9 0.1-0.3 0.1-1 0-0.7-0.1-1-0.2-1.3-1.5-1.3-0.6 0-1 0.4-0.5 0.3-0.6 0.9 0 0.3 0 1zm4.6 6.3q-0.4-0.3-1-0.4-0.5-0.1-1.5-0.1h-0.6q-1.3 0-1.6 0.1-0.4 0.2-0.6 0.6-0.3 0.4-0.3 0.8 0 0.2 0.1 0.4 0.2 0.5 0.7 0.9 0.6 0.3 1.3 0.5 0.4 0.1 1 0.1 0.7 0 1-0.1 0.8-0.2 1.3-0.6 0.6-0.4 0.8-0.8 0-0.1 0-0.4 0-0.7-0.6-1zm2.9-1.4h0.4 0.2q0.8 0 1-0.3v-0.1q0-0.2 0-0.5 0-0.3 0-0.6 0-0.4 0-0.8 0-0.4 0-0.8 0-0.7 0-1.4 0-0.7 0-1.1v-0.5q-0.1-0.4-0.3-0.5-0.2-0.1-0.9-0.2h-0.4v-0.4q0-0.5 0.1-0.5h0.2q0.2 0 0.5-0.1 0.4 0 0.8 0 0.3 0 0.7 0 0.3-0.1 0.5-0.1 0.2 0 0.3 0v1.4q0.4-0.7 0.9-1 0.4-0.4 1.2-0.4 0.5 0 0.9 0.2 0.8 0.4 0.8 1.2 0 0.4-0.3 0.7-0.3 0.3-0.7 0.3-0.4 0-0.7-0.3-0.3-0.3-0.3-0.7 0-0.4 0.2-0.6 0-0.1 0-0.1 0 0-0.5 0.1-0.3 0.2-0.4 0.3-0.8 0.8-1 2.5v0.8q0 0.8 0 1.3 0 0.3 0 0.6 0 0.3 0 0.5 0 0.2 0 0.4 0 0.2 0 0.3v0.1q0.1 0.2 0.3 0.2 0.2 0.1 1 0.1h0.7v0.9h-0.2q-0.4 0-2.6 0-1.9 0-2.2 0h-0.2zm10.7-5.5q-0.3 0.3-0.7 0.3-0.5 0-0.8-0.3-0.3-0.3-0.3-0.7 0-0.3 0.2-0.7 0.2-0.5 1-0.8 0.8-0.3 1.9-0.3 1.3 0 2.3 0.6 1 0.6 1.3 1.5 0.1 0.3 0.1 0.7 0 0.3 0 2.3 0 1.9 0 2.3 0 0.3 0.1 0.5 0.1 0.2 0.4 0.2 0.3 0 0.4-0.2 0.1-0.3 0.1-1.1v-0.8h0.8v0.8q0 0.8-0.1 1-0.1 0.5-0.6 0.9-0.5 0.4-1.2 0.4-0.5 0-0.9-0.4-0.3-0.3-0.5-0.8v-0.1q0 0-0.2 0.3-0.2 0.2-0.3 0.2-1 0.9-2.3 0.9-1 0-1.8-0.5-0.8-0.4-1.1-1.1-0.2-0.4-0.2-0.8 0-0.9 0.8-1.7 0.5-0.5 1.1-0.8 1.4-0.6 3.5-0.7h0.3v-0.5q0-0.6-0.1-1-0.2-0.6-0.7-1-0.5-0.4-1.3-0.4-1.3 0-1.3 0.2 0.4 0.3 0.4 0.9 0 0.4-0.3 0.7zm3.3 2.9q0-1.1 0-1.1-0.1 0-0.1 0-2.8 0.2-3.5 1.6-0.2 0.4-0.2 0.9 0 0.7 0.4 1.2 0.5 0.4 1.2 0.4 0.8 0 1.4-0.5 0.6-0.4 0.7-1.1 0.1-0.2 0.1-1.4zm9.3 3.5h-0.2q-0.4 0-2.5 0-2 0-2.3 0h-0.1v-0.9h0.3q0.5 0 1 0 0.1-0.1 0.2-0.3 0 0 0-3.2v-3.3h-1.4v-0.9h1.4v-1.3-1.3l0.1-0.2q0.3-1.1 1.1-1.8 0.8-0.7 2.1-0.8 0 0 0.1 0 0.2-0.1 0.3-0.1 0.7 0.1 1.2 0.5 0.5 0.4 0.5 1.1 0 0.5-0.3 0.7-0.3 0.3-0.7 0.3-0.5 0-0.8-0.3-0.3-0.2-0.3-0.7 0-0.4 0.4-0.8h-0.1q-0.2 0-0.4 0-0.5 0.1-0.9 0.5-0.4 0.4-0.6 1-0.1 0.4-0.1 1.9v1.3h2.2v0.9h-2.2v3.2q0 3.3 0.1 3.3 0 0.2 0.2 0.2 0.2 0.1 1.1 0.1h0.6zm4.1-8.3q-1.8 0-1.8 1.3 0 0.3 0 0.4 0.2 0.5 0.7 0.7 0.4 0.2 1.3 0.4 1.2 0.2 1.6 0.4 1.2 0.6 1.6 2 0 0.1 0 0.5 0 0.7-0.3 1.3-0.7 1.5-2.9 1.5-1.2 0-2.1-0.7l-0.1 0.1-0.2 0.2q-0.1 0.1-0.3 0.2l-0.2 0.2h-0.1q-0.2 0-0.3-0.1v-1.6q0-1.3 0-1.5 0-0.2 0.1-0.2 0 0 0.3 0 0.3 0 0.3 0 0.1 0.1 0.1 0.3 0.2 0.8 0.6 1.4 0.7 1 1.9 1 1.9 0 1.9-1.6 0-0.5-0.3-0.9-0.3-0.4-0.9-0.5-0.3-0.1-0.9-0.3-1.1-0.2-1.5-0.4-1.4-0.6-1.6-1.8 0-0.1 0-0.3 0-2.3 2.8-2.6 0.1-0.1 0.5 0 0.8 0 1.4 0.3l0.3 0.1 0.2-0.1q0.2-0.2 0.4-0.3h0.2q0.1 0 0.2 0.1v2.6l-0.1 0.1h-0.5q-0.2-0.1-0.2-0.2 0-0.9-0.5-1.4-0.6-0.6-1.6-0.6z"/><path class="b" d="m388.8 68.8l103.4 103.4"/><path fill-rule="evenodd" class="b" d="m360.5 80.5c-22.1 0-40-17.9-40-40 0-22.1 17.9-40 40-40 22.1 0 40 17.9 40 40 0 22.1-17.9 40-40 40z"/><path  d="m364.7 42.9q0.2 0 0.3 0.1 0 0 0.1 0 0 0 0 0.1 0 0.1 0 0.3-0.5 1.7-1.1 2.3-0.3 0.3-0.7 0.5-0.1 0-0.4 0-1.3 0-1.8-1-0.1-0.2-0.1-0.2 0 0-0.1 0 0 0-0.1 0.1-0.9 0.9-1.9 1.1-0.1 0-0.5 0-1.3 0-2.1-1.1-0.6-0.9-0.6-2.2 0-0.4 0-0.5 0.1-1.3 0.8-2.4 0.7-1.2 1.7-1.9 1.1-0.9 2.4-0.9 1 0 1.8 1 0.3-0.6 0.9-0.6 0.3 0 0.5 0.1 0.2 0.2 0.2 0.4 0 0.3-0.8 3.2-0.7 3-0.7 3.3 0 0.9 0.5 0.9 0.2 0 0.4-0.2 0.5-0.4 0.9-1.9 0.1-0.4 0.2-0.4 0-0.1 0.2-0.1zm-7.3 1q0 0.7 0.3 1.1 0.3 0.5 0.9 0.5 0.6 0 1.2-0.5 0.3-0.2 0.7-0.6 0.4-0.4 0.5-0.6 0-0.1 0.5-2.1 0.5-2.1 0.5-2.3 0-0.2-0.2-0.6-0.4-0.9-1.3-0.9-0.8 0-1.4 0.7-0.6 0.7-0.9 1.5-0.6 1.6-0.8 3.3 0 0.1 0 0.2 0 0.2 0 0.3z"/><path class="b" d="m492.2 68.8l-103.4 103.4"/><path fill-rule="evenodd" class="b" d="m520.5 80.5c-22.1 0-40-17.9-40-40 0-22.1 17.9-40 40-40 22.1 0 40 17.9 40 40 0 22.1-17.9 40-40 40z"/><path  d="m517.8 32.3q0 0 1.4-0.1 1.5-0.1 1.5-0.1 0.2 0 0.2 0.2 0 0.2-0.7 2.9-0.1 0.6-0.3 1.4-0.2 0.7-0.3 1l-0.1 0.4q0 0.1 0.1 0 0.7-0.6 1.6-0.8 0.2 0 0.5 0 0.2 0 0.5 0 1 0.2 1.6 1.1 0.6 0.8 0.6 2.1 0 2.2-1.5 4-1.6 1.8-3.4 1.8-0.6 0-1.1-0.2-1.6-0.7-1.6-3 0-0.6 0.1-1.1 0-0.1 1-4.1l1-4.1q0.1-0.3-0.1-0.4-0.2 0-0.6 0-0.1 0-0.2 0-0.4 0-0.5-0.1-0.1-0.1 0-0.5 0.1-0.3 0.2-0.3 0-0.1 0.1-0.1zm4.9 7.2q0-1.6-1.2-1.6 0 0-0.1 0-0.1 0-0.1 0-1.1 0.2-2 1.5 0 0-0.1 0.1l-0.1 0.1q0 0-0.3 1.4-0.4 1.4-0.4 1.6-0.1 0.6-0.1 1.1 0 1 0.5 1.5 0.3 0.3 0.8 0.3 0.6 0 1.3-0.7 0.5-0.4 0.8-1.1 0.3-0.7 0.7-2.1 0.3-1.4 0.3-2.1z"/><path class="b" d="m400.5 200.5h80"/><path fill-rule="evenodd" class="b" d="m360.5 240.5c-22.1 0-40-17.9-40-40 0-22.1 17.9-40 40-40 22.1 0 40 17.9 40 40 0 22.1-17.9 40-40 40z"/><path  d="m364.1 203.6q0.1 0 0.3 0.2 0.2 0.2 0.2 0.2 0 0.2-0.6 0.8-1.3 1.1-3.2 1.4-0.4 0-0.8 0-2.1 0-2.9-1.7-0.4-0.8-0.4-1.7 0-0.9 0.4-1.9 0.5-1.5 1.8-2.5 1.4-1.1 2.8-1.2 0.2 0 0.4 0 0.7 0 1.3 0.2 1.1 0.5 1.1 1.5 0 0.6-0.3 1-0.4 0.4-1 0.4-0.4 0-0.6-0.2-0.2-0.2-0.2-0.6 0-0.3 0.2-0.7 0.2-0.3 0.5-0.4 0.2-0.1 0.2-0.1 0.1 0-0.1-0.2-0.4-0.2-1.1-0.2-0.6 0-1.1 0.3-0.4 0.2-0.9 0.6-0.5 0.5-0.8 1.3-0.3 0.7-0.7 2-0.2 1-0.2 1.5 0 0.9 0.5 1.4 0.5 0.5 1.3 0.5 0.3 0 0.6-0.1 1.9-0.2 3.1-1.6 0.2-0.2 0.2-0.2z"/><path class="b" d="m520.5 240.5q0 20-80 20-80 0-80-20"/><path fill-rule="evenodd" class="b" d="m520.5 240.5c-22.1 0-40-17.9-40-40 0-22.1 17.9-40 40-40 22.1 0 40 17.9 40 40 0 22.1-17.9 40-40 40z"/><path  d="m523.8 192.2q0.3 0 0.6 0 0.4 0 0.6-0.1 0.2 0 0.2 0 0.3 0 0.3 0.2 0 0.1-1.5 6-1.5 5.9-1.5 6 0 0.1 0 0.3 0 0.9 0.5 0.9 0.2 0 0.4-0.2 0.5-0.4 0.9-1.9 0.1-0.4 0.2-0.4 0-0.1 0.2-0.1 0.4 0 0.4 0.2 0 0.1 0 0.3-0.5 1.7-1.1 2.3-0.3 0.3-0.7 0.5-0.1 0-0.4 0-1.3 0-1.8-1-0.1-0.2-0.1-0.2 0 0-0.1 0 0 0-0.1 0.1-0.9 0.9-1.9 1.1-0.1 0-0.5 0-1.3 0-2.1-1.1-0.6-0.9-0.6-2.2 0-1.9 1.3-3.7 1.3-1.5 2.8-1.9 0.4-0.1 0.8-0.1 1.1 0 1.7 0.8 0.1 0.1 0.1 0.1 0-0.1 0.5-2.2 0.6-2.1 0.6-2.2 0-0.3-0.1-0.3-0.3-0.1-0.8-0.1h-0.5q-0.1-0.2-0.1-0.2 0 0 0.1-0.4 0.1-0.4 0.2-0.4 0 0 0.2 0 0.2 0 0.6 0 0.3 0 0.7-0.1zm-1.8 7.3q-0.4-1.6-1.5-1.6-0.8 0-1.4 0.7-0.6 0.7-0.9 1.5-0.6 1.6-0.8 3.3 0 0.1 0 0.2 0 0.2 0 0.3 0 0.7 0.3 1.1 0.3 0.5 0.9 0.5 1 0 2.2-1.5l0.2-0.2q0.1-0.7 0.5-2.1 0.4-1.5 0.5-2.2z"/><path class="b" d="m559.2 30.5q21.3 0 21.3 10 0 10-21.3 10"/><path class="b" d="m606 80.5l-25.5-40"/><path  d="m604.6 93.9h0.6l0.1 0.1v0.3q-0.1 1.8-1.2 3.2-1 1.3-2.7 1.8-0.6 0.1-1.3 0.1-0.8 0-1.3-0.1-2.2-0.4-3.8-2.1-1.5-1.7-1.9-4.2 0-0.2 0-0.8 0-0.7 0-0.9 0.4-2.4 1.9-4.1 1.6-1.7 3.8-2.2 0.6-0.1 1-0.1 0.1 0 0.2 0 0.1 0 0.2 0 0.4 0 0.6 0.1 1.5 0.2 2.6 1.3l0.2 0.2 0.6-0.8q0.6-0.7 0.7-0.8 0 0 0 0 0.1 0 0.2 0 0.1 0 0.2 0.1v5.6l-0.1 0.1h-0.7q-0.1-0.1-0.1-0.3-0.2-1.6-1-2.8-0.8-1.2-1.9-1.6-0.4-0.2-1-0.2-2.1 0-3.5 1.4-1.5 1.6-1.5 5 0 2.4 0.7 3.8 0.6 1.2 1.8 1.8 1.1 0.7 2.6 0.7 1.4 0 2.5-1 1.1-1.1 1.3-2.5 0.1-0.5 0.1-0.9 0-0.1 0.1-0.2zm4-8.3q0.5 0.1 0.8 0.4 0.4 0.3 0.4 0.8 0 0.7-0.6 1-0.2 0.2-0.6 0.2-0.4 0-0.7-0.2-0.5-0.3-0.5-1 0-0.5 0.3-0.9 0.4-0.3 0.9-0.3zm2.5 13.4h-0.2q-0.2-0.1-2-0.1-1.9 0-2.2 0.1h-0.2v-0.9h0.3q0.6 0 1-0.1 0.2 0 0.3-0.2 0 0 0-2.9 0-3-0.1-3.2-0.2-0.4-1.2-0.4h-0.2v-0.5q0-0.4 0-0.4h0.2q0.2-0.1 0.6-0.1 0.4 0 0.7 0 0.4 0 0.7-0.1 0.4 0 0.6 0 0.2 0 0.2 0h0.1v7.6q0.1 0.2 0.2 0.2 0.2 0.1 0.7 0.1h0.5zm1.4-0.9h0.3 0.3q0.8 0 1-0.3v-0.2q0-0.2 0-0.4 0-0.3 0-0.7 0-0.4 0-0.9 0-0.5 0-1 0-0.5 0-1.1 0-0.6 0-1.1 0-0.7 0-1.6 0-0.8 0-1.5 0-0.6 0-1.2 0-0.5 0-0.8 0-0.4 0-0.4-0.1-0.4-0.3-0.5-0.3-0.1-0.9-0.2h-0.4v-0.4q0-0.5 0.1-0.5h0.2q0.2 0 0.5 0 0.4-0.1 0.8-0.1 0.3 0 0.7 0 0.4-0.1 0.6-0.1 0.2 0 0.2 0h0.1v6.3q0 6.3 0 6.4 0.1 0.1 0.3 0.2 0.4 0.1 0.9 0.1h0.4v0.9h-0.2q-0.4-0.1-2.2-0.1-2 0-2.2 0.1h-0.2zm4.9 3.9h0.3 0.3q0.8 0 0.9-0.3v-0.2q0-0.1 0-0.4 0-0.2 0-0.6 0.1-0.3 0.1-0.7 0-0.5 0-0.9 0-0.5 0-1 0-0.5 0-1 0-0.7 0-1.4 0-0.8 0-1.4 0-0.5-0.1-1 0-0.5 0-0.8 0-0.3 0-0.3 0-0.4-0.3-0.5-0.2-0.2-0.8-0.2h-0.4v-0.5q0-0.4 0-0.4h0.2q0.2-0.1 0.6-0.1 0.4 0 0.8 0 0.3 0 0.7-0.1 0.4 0 0.6 0 0.2 0 0.2 0h0.1v0.5 0.5l0.2-0.1q1.2-0.9 2.7-0.9 0.5 0 0.7 0 1.4 0.3 2.3 1.5 0.9 1.2 0.9 3 0 0.4 0 0.7-0.2 1.3-1 2.2-0.7 1-2 1.4-0.6 0.2-1.2 0.2-1.4 0-2.4-0.9l-0.2-0.1v1.7q0 1.7 0.1 1.8 0 0.1 0.2 0.2 0.4 0.1 1 0.1h0.3v0.9h-0.2q-0.2-0.1-2.2-0.1-2 0-2.2 0.1h-0.2zm8.1-7.3q0-1.4-0.6-2.5-0.6-1-1.5-1.2-0.1 0-0.2 0 0 0-0.1 0-1.4 0-2.5 1.3v4.8q0.9 1.4 2.3 1.4 0.8 0 1.5-0.7 1.1-1.2 1.1-3.1zm5.6-2.1q-0.3 0.3-0.8 0.3-0.4 0-0.7-0.3-0.3-0.3-0.3-0.8 0-0.2 0.1-0.6 0.3-0.5 1.1-0.8 0.7-0.3 1.9-0.3 1.3 0 2.2 0.6 1 0.6 1.3 1.5 0.1 0.3 0.1 0.7 0 0.3 0 2.2 0 2 0 2.3 0.1 0.4 0.2 0.5 0.1 0.3 0.4 0.3 0.2 0 0.3-0.3 0.2-0.2 0.2-1.1v-0.7h0.8v0.8q-0.1 0.8-0.1 0.9-0.2 0.6-0.7 1-0.4 0.3-1.1 0.3-0.5 0-0.9-0.3-0.4-0.4-0.5-0.9-0.1 0-0.3 0.2-0.1 0.2-0.2 0.3-1 0.8-2.3 0.8-1 0-1.9-0.4-0.8-0.4-1.1-1.2-0.1-0.3-0.1-0.7 0-1 0.8-1.7 0.4-0.5 1.1-0.8 1.4-0.6 3.5-0.7h0.3v-0.5q0-0.7-0.2-1-0.2-0.6-0.7-1-0.5-0.4-1.2-0.4-1.3 0-1.3 0.2 0.4 0.3 0.4 0.8 0 0.5-0.3 0.8zm3.3 2.9q0-1.1-0.1-1.1 0 0-0.1 0-2.7 0.2-3.5 1.6-0.2 0.4-0.2 0.9 0 0.7 0.5 1.1 0.5 0.5 1.2 0.5 0.8 0 1.3-0.5 0.6-0.5 0.8-1.2 0-0.1 0.1-1.3z"/><path  d="m393.6 299.8v-11.2q-0.2-0.2-0.4-0.3-0.2 0-1 0h-0.7v-1h3.8q3.8 0 4 0.1 1.5 0.1 2.7 1 1.2 0.9 1.4 2.2 0.1 0.2 0.1 0.6 0 0.4-0.1 0.6-0.2 1.1-1.2 2-0.9 0.8-2.2 1.1-0.4 0.1-2.4 0.1h-1.9v2.4q0 2.4 0 2.4 0.2 0.3 1.4 0.3h0.6v0.9h-0.2q-0.3-0.1-2.9-0.1-2.5 0-2.8 0.1h-0.3v-0.9h0.7q0.8 0 1-0.1 0.2 0 0.4-0.2zm6.9-10.9q-0.5-0.4-1.1-0.5-0.5-0.1-1.7-0.1h-0.6q-0.2 0-0.5 0-0.2 0-0.4 0-0.2 0-0.2 0-0.3 0-0.3 0.1-0.1 0.1-0.1 2.9v2.9h1.4q1.6 0 1.7-0.1 1.3-0.1 1.9-0.7 0.5-0.7 0.5-2.2 0-0.9-0.1-1.4-0.1-0.5-0.5-0.9zm7.3 3.8q-1.8 0-1.8 1.3 0 0.3 0 0.4 0.2 0.4 0.6 0.7 0.5 0.2 1.4 0.3 1.1 0.2 1.5 0.5 1.3 0.6 1.7 2 0 0.1 0 0.4 0 0.8-0.3 1.4-0.8 1.5-2.9 1.5-1.2 0-2.1-0.7l-0.2 0.1-0.2 0.2q-0.1 0.1-0.2 0.2l-0.2 0.2h-0.2q-0.1 0-0.2-0.1v-1.6q0-1.3 0-1.5 0-0.2 0.1-0.2 0 0 0.3 0 0.2 0 0.3 0 0 0 0.1 0.3 0.2 0.7 0.5 1.4 0.7 1 2 1 1.9 0 1.9-1.6 0-0.6-0.4-0.9-0.3-0.4-0.8-0.6-0.3 0-1-0.2-1.1-0.2-1.5-0.4-1.3-0.6-1.5-1.9 0 0 0-0.3 0-2.3 2.8-2.5 0.1-0.1 0.5 0 0.8 0 1.4 0.3l0.3 0.1 0.1-0.1q0.3-0.2 0.5-0.4h0.1q0.2 0 0.3 0.2v2.6l-0.1 0.1h-0.6q-0.1-0.1-0.1-0.2 0-0.9-0.6-1.5-0.5-0.5-1.5-0.5zm12.5 3.4q0 0.1-0.1 0.3h-5.7v0.3q0 1.5 0.4 2.2 0.7 1.5 2.5 1.5 0.9 0 1.4-0.6 0.4-0.4 0.7-1.1 0-0.2 0.1-0.3 0 0 0.3 0 0.4 0 0.4 0.2 0 0.1-0.1 0.2-0.3 1.1-1.2 1.8-0.8 0.6-2 0.6-0.4 0-0.9-0.1-1.1-0.2-2-1-0.9-0.8-1.3-2-0.2-0.7-0.2-1.5 0-1.8 1-3.1 1.1-1.2 2.7-1.4 0.1-0.1 0.3-0.1 1.8 0 2.7 1.1 1 1.1 1 3zm-1.6-0.4v-0.2q-0.2-2.2-1.5-2.6-0.2-0.1-0.4-0.1-1.1 0-1.7 0.9-0.4 0.7-0.6 1.8v0.2zm5-8.1q0.5 0.1 0.8 0.4 0.3 0.3 0.3 0.8 0 0.7-0.5 1-0.3 0.2-0.6 0.2-0.4 0-0.7-0.2-0.5-0.3-0.5-1 0-0.5 0.3-0.9 0.4-0.3 0.9-0.3zm2.5 13.4h-0.2q-0.2-0.1-2.1-0.1-1.8 0-2.1 0.1h-0.2v-0.9h0.3q0.6 0 1-0.1 0.2 0 0.2-0.2 0.1 0 0.1-2.9 0-3-0.1-3.2-0.2-0.4-1.2-0.4h-0.2v-0.5q0-0.4 0-0.4h0.2q0.2-0.1 0.6-0.1 0.3 0 0.7 0 0.3 0 0.7-0.1 0.4 0 0.6 0 0.2 0 0.2 0h0.1v7.6q0.1 0.2 0.2 0.2 0.2 0.1 0.7 0.1h0.5zm4.8-8.9q1.4 0 2.6 1v-2q0-2.1 0-2.2-0.1-0.4-0.3-0.5-0.2-0.1-0.9-0.2h-0.4v-0.4q0-0.5 0.1-0.5h0.2q0.2 0 0.6 0 0.3-0.1 0.7-0.1 0.3 0 0.7 0 0.4-0.1 0.6-0.1 0.2 0 0.3 0v6.1q0 6.1 0 6.2 0.1 0.4 0.3 0.5 0.3 0.1 0.9 0.2h0.4v0.9q-0.1 0-1.6 0.1-1.4 0.1-1.5 0.1h-0.2v-1.1l-0.1 0.1q-1.2 1-2.6 1-1.4 0-2.5-0.9-1.2-1.1-1.5-2.9 0-0.2 0-0.7 0-2 1.2-3.3 1.2-1.3 3-1.3zm2.5 6.8v-4.8q-0.9-1.2-2.2-1.2-1 0-1.8 0.7-0.5 0.5-0.6 1.2-0.2 0.7-0.2 2 0 2.2 0.8 3 0.7 0.7 1.6 0.7 0.7 0 1.3-0.4 0.7-0.4 1.1-1.1zm5.1-2.2q0-1.8 1.1-3.1 1.2-1.3 2.8-1.5 0.3-0.1 0.5-0.1 1.7 0 3 1.3 1.4 1.4 1.4 3.4 0 0.4-0.1 0.9-0.2 1.3-1.1 2.2-0.9 1-2.2 1.3-0.4 0.1-1 0.1-0.6 0-1.1-0.1-1.5-0.4-2.4-1.6-0.9-1.2-0.9-2.8zm4.8-3.9q-0.1 0-0.4 0-0.6 0-1.1 0.2-1.1 0.6-1.3 2.2-0.1 0.4-0.1 1.3 0 1.9 0.4 2.7 0.6 1.2 2.1 1.2 2.4 0 2.4-3.3v-0.6q0-1.3-0.1-1.8-0.3-1.5-1.9-1.9zm11-0.1l0.2 0.1q0.9-0.9 2-0.9 0.5 0 0.8 0.4 0.3 0.3 0.3 0.8 0 0.3-0.2 0.5-0.2 0.2-0.5 0.2-0.7 0-0.8-0.6 0-0.3 0.1-0.4 0 0 0-0.1-0.1 0-0.2 0-0.4 0.1-0.8 0.4-0.2 0.1-0.2 0.2 0 0 0.1 0.1 0.6 0.8 0.6 1.8 0 0.8-0.5 1.6-0.9 1.3-2.9 1.3-0.9 0-1.9-0.5-0.3 0.4-0.3 0.7 0 0.7 0.6 1.1 0.1 0.1 0.3 0.1 0.2 0 1.4 0 1.7 0.1 2.2 0.2 1.2 0.1 1.9 0.8 0.8 0.8 0.8 1.9 0 0.4 0 0.5-0.3 1-1.6 1.6-1.1 0.6-2.8 0.6-1.6 0-2.9-0.6-1.2-0.6-1.5-1.6 0-0.1 0-0.4 0-0.8 0.6-1.4 0.3-0.3 0.6-0.5l0.3-0.1q-0.8-0.6-0.8-1.7 0-0.9 0.6-1.7-0.9-0.8-0.9-1.9 0-0.9 0.6-1.7 0.4-0.6 1.2-1 0.7-0.3 1.7-0.3 1 0 1.9 0.5zm-3.6 2.5q0 1 0.4 1.6 0.3 0.6 1.2 0.6 0.7 0 1.1-0.4 0.4-0.3 0.5-0.8 0-0.4 0-1 0-0.7 0-1.1-0.3-1.2-1.6-1.2-0.6 0-1 0.4-0.4 0.3-0.5 0.8-0.1 0.4-0.1 1.1zm4.7 6.3q-0.4-0.3-1-0.4-0.5-0.1-1.6-0.1h-0.5q-1.4 0-1.6 0.1-0.4 0.2-0.7 0.6-0.2 0.4-0.2 0.8 0 0.2 0.1 0.4 0.1 0.4 0.7 0.8 0.5 0.4 1.3 0.6 0.3 0 1 0 0.6 0 1 0 0.7-0.2 1.3-0.6 0.6-0.4 0.7-0.8 0.1-0.1 0.1-0.4 0-0.7-0.6-1zm2.9-1.4h0.3 0.3q0.8 0 0.9-0.3v-0.2q0-0.1 0-0.4 0.1-0.3 0.1-0.6 0-0.4 0-0.8 0-0.5 0-0.9 0-0.6 0-1.3 0-0.7 0-1.2l-0.1-0.4q0-0.4-0.3-0.5-0.2-0.2-0.8-0.2h-0.4v-0.5q0-0.4 0-0.4h0.2q0.2-0.1 0.6-0.1 0.4 0 0.7 0 0.3 0 0.7-0.1 0.4 0 0.6 0 0.2 0 0.2 0h0.1v1.3q0.4-0.6 0.8-1 0.5-0.3 1.2-0.3 0.6 0 1 0.2 0.8 0.4 0.8 1.1 0 0.5-0.3 0.8-0.3 0.3-0.7 0.3-0.5 0-0.8-0.3-0.2-0.3-0.2-0.7 0-0.4 0.1-0.6 0.1-0.1 0.1-0.1-0.1 0-0.5 0.1-0.3 0.1-0.5 0.3-0.8 0.7-0.9 2.5v0.8q0 0.8 0 1.3 0 0.3 0 0.6 0 0.3 0 0.5 0 0.2 0 0.4 0 0.2 0 0.3v0.1q0.1 0.1 0.2 0.2 0.2 0.1 1.1 0.1h0.6v0.9h-0.2q-0.3-0.1-2.5-0.1-2 0-2.2 0.1h-0.2zm9.7-5.5q-0.3 0.3-0.8 0.3-0.4 0-0.7-0.3-0.3-0.3-0.3-0.8 0-0.2 0.1-0.6 0.3-0.5 1.1-0.8 0.7-0.3 1.9-0.3 1.3 0 2.2 0.6 1 0.6 1.3 1.5 0.1 0.3 0.1 0.7 0 0.3 0 2.2 0 2 0 2.3 0.1 0.4 0.2 0.5 0.1 0.3 0.4 0.3 0.2 0 0.3-0.3 0.2-0.2 0.2-1.1v-0.7h0.8v0.8q-0.1 0.8-0.1 0.9-0.2 0.6-0.7 1-0.4 0.3-1.1 0.3-0.5 0-0.9-0.3-0.4-0.4-0.5-0.9-0.1 0-0.3 0.2-0.1 0.2-0.2 0.3-1 0.8-2.3 0.8-1 0-1.9-0.4-0.8-0.4-1.1-1.2-0.1-0.3-0.1-0.7 0-1 0.8-1.7 0.4-0.5 1.1-0.8 1.4-0.6 3.5-0.7h0.3v-0.5q0-0.7-0.2-1-0.2-0.6-0.7-1-0.5-0.4-1.2-0.4-1.3 0-1.3 0.2 0.4 0.3 0.4 0.8 0 0.5-0.3 0.8zm3.3 2.9q0-1.1-0.1-1.1 0 0-0.1 0-2.7 0.2-3.5 1.6-0.2 0.4-0.2 0.9 0 0.7 0.5 1.1 0.5 0.5 1.2 0.5 0.8 0 1.3-0.5 0.6-0.5 0.8-1.2 0-0.1 0.1-1.3zm9.2 3.5h-0.1q-0.4 0-2.6 0-1.9 0-2.2 0h-0.2v-0.9h0.3q0.6 0 1-0.1 0.2 0 0.3-0.2 0 0 0-3.3v-3.2h-1.4v-0.9h1.4v-1.3-1.4-0.2q0.4-1.1 1.2-1.7 0.8-0.7 2-0.9 0 0 0.2 0 0.2 0 0.3 0 0.7 0.1 1.2 0.5 0.4 0.4 0.4 1.1 0 0.4-0.2 0.7-0.3 0.3-0.8 0.3-0.4 0-0.7-0.3-0.3-0.3-0.3-0.7 0-0.4 0.4-0.8h-0.1q-0.2-0.1-0.5 0-0.4 0.1-0.8 0.5-0.4 0.4-0.6 1-0.1 0.4-0.2 1.9v1.3h2.3v0.9h-2.2v3.2q0 3.3 0 3.3 0.1 0.2 0.3 0.2 0.2 0.1 1 0.1h0.6zm5.2-8.3q-1.8 0-1.8 1.3 0 0.3 0 0.4 0.2 0.4 0.6 0.7 0.5 0.2 1.4 0.3 1.1 0.2 1.5 0.5 1.3 0.6 1.7 2 0 0.1 0 0.4 0 0.8-0.3 1.4-0.8 1.5-2.9 1.5-1.2 0-2.1-0.7l-0.2 0.1-0.2 0.2q-0.1 0.1-0.2 0.2l-0.2 0.2h-0.2q-0.1 0-0.2-0.1v-1.6q0-1.3 0-1.5 0-0.2 0.1-0.2 0 0 0.3 0 0.2 0 0.3 0 0 0 0.1 0.3 0.2 0.7 0.5 1.4 0.7 1 2 1 1.9 0 1.9-1.6 0-0.6-0.4-0.9-0.3-0.4-0.8-0.6-0.3 0-1-0.2-1.1-0.2-1.5-0.4-1.3-0.6-1.5-1.9 0 0 0-0.3 0-2.3 2.8-2.5 0.1-0.1 0.5 0 0.8 0 1.4 0.3l0.3 0.1 0.1-0.1q0.3-0.2 0.5-0.4h0.1q0.2 0 0.3 0.2v2.6l-0.1 0.1h-0.6q-0.1-0.1-0.1-0.2 0-0.9-0.6-1.5-0.5-0.5-1.5-0.5z"/></svg>